<svg width="182" height="40" viewBox="0 0 182 40" fill="none" xmlns="http://www.w3.org/2000/svg">
<g clip-path="url(#clip0_44_2158)">
<path fill-rule="evenodd" clip-rule="evenodd" d="M30.151 0H8.87178C3.97306 0 0 4.00386 0 8.94238V30.3847C0 35.3232 3.97306 39.3253 8.87178 39.3253H30.151C35.0515 39.3253 39.0228 35.3232 39.0228 30.3847V8.94055C39.0228 4.00386 35.0497 0 30.151 0ZM24.3992 10.5812C25.3721 10.5812 26.1598 11.3751 26.1598 12.3554C26.1598 13.3358 25.3721 14.1297 24.3992 14.1297C23.4264 14.1297 22.6386 13.3358 22.6386 12.3554C22.6386 11.3751 23.4264 10.5812 24.3992 10.5812ZM24.3992 15.5929C25.3721 15.5929 26.1598 16.3867 26.1598 17.3671C26.1598 18.3475 25.3721 19.1413 24.3992 19.1413C23.4264 19.1413 22.6386 18.3475 22.6386 17.3671C22.6386 16.3867 23.4264 15.5929 24.3992 15.5929ZM19.437 10.5812C20.4098 10.5812 21.1975 11.3751 21.1975 12.3554C21.1975 13.3358 20.4098 14.1297 19.437 14.1297C18.4641 14.1297 17.6764 13.3358 17.6764 12.3554C17.6764 11.3751 18.4641 10.5812 19.437 10.5812ZM19.437 15.5929C20.4098 15.5929 21.1975 16.3867 21.1975 17.3671C21.1975 18.3475 20.4098 19.1413 19.437 19.1413C18.4641 19.1413 17.6764 18.3475 17.6764 17.3671C17.6764 16.3867 18.4641 15.5929 19.437 15.5929ZM14.4747 10.5812C15.4476 10.5812 16.2353 11.3751 16.2353 12.3554C16.2353 13.3358 15.4476 14.1297 14.4747 14.1297C13.5019 14.1297 12.7142 13.3358 12.7142 12.3554C12.7142 11.3751 13.5019 10.5812 14.4747 10.5812ZM14.4747 15.5929C15.4476 15.5929 16.2353 16.3867 16.2353 17.3671C16.2353 18.3475 15.4476 19.1413 14.4747 19.1413C13.5019 19.1413 12.7142 18.3475 12.7142 17.3671C12.7142 16.3867 13.5019 15.5929 14.4747 15.5929ZM9.70305 34.3355C7.84448 34.3355 6.33621 32.8156 6.33621 30.9426C6.33621 29.0678 7.84448 27.5478 9.70305 27.5478C11.5634 27.5478 13.0717 29.0678 13.0717 30.9426C13.0735 32.8156 11.5634 34.3355 9.70305 34.3355ZM29.1636 34.4873C27.305 34.4873 25.7968 32.9674 25.7968 31.0944C25.7968 29.2196 27.305 27.6996 29.1636 27.6996C31.024 27.6996 32.5323 29.2196 32.5323 31.0944C32.5323 32.9674 31.024 34.4873 29.1636 34.4873ZM35.0787 6.88832L31.5975 19.9553C30.6683 23.4433 27.7352 25.6328 24.1505 25.6328H21.8546C21.0959 25.6328 19.9978 25.2194 19.5422 24.7877C19.466 24.7164 19.3462 24.7164 19.27 24.7877C18.8144 25.2194 17.7163 25.6328 16.9577 25.6328H14.4348C10.9645 25.6328 8.33453 23.6391 7.28183 20.3065L4.32154 10.9489C4.26346 10.7623 4.29432 10.5648 4.41048 10.4056C4.52482 10.2483 4.70088 10.1569 4.89872 10.1569L5.465 10.1587C6.82989 10.1642 8.02598 11.0477 8.43799 12.3573L10.6124 19.2383C11.2004 21.1021 13.0826 22.355 15.0229 22.355L15.8668 22.3532C16.738 22.3532 17.3515 21.9033 17.7218 21.5009C17.9142 21.2905 18.1828 21.168 18.4677 21.168L20.3626 21.1698C20.6312 21.1698 20.8926 21.2777 21.0723 21.4771C21.4317 21.874 22.0687 22.3532 22.9472 22.3532L23.7512 22.355C25.755 22.355 27.6989 20.9924 28.2198 19.0426L31.0385 8.46316C31.407 7.08586 32.6502 6.1256 34.0641 6.1256H34.5615C34.6086 6.1256 34.6558 6.13291 34.6994 6.1512C35.017 6.28655 35.1568 6.59933 35.0787 6.88832Z" fill="white" fill-opacity="0.6"/>
<path fill-rule="evenodd" clip-rule="evenodd" d="M29.164 29.8761C28.4979 29.8761 27.957 30.4212 27.957 31.0943C27.957 31.7674 28.4979 32.3125 29.164 32.3125C29.8319 32.3125 30.3728 31.7674 30.3728 31.0943C30.3728 30.4212 29.8319 29.8761 29.164 29.8761Z" fill="white" fill-opacity="0.6"/>
<path fill-rule="evenodd" clip-rule="evenodd" d="M9.70308 29.7243C9.03697 29.7243 8.49609 30.2693 8.49609 30.9425C8.49609 31.6156 9.03697 32.1606 9.70308 32.1606C10.371 32.1606 10.9119 31.6156 10.9119 30.9425C10.9119 30.2693 10.371 29.7243 9.70308 29.7243Z" fill="white" fill-opacity="0.6"/>
<path d="M104.196 29.7478C103.319 29.7478 102.361 29.7057 101.936 30.4776C100.604 32.9029 97.5622 33.6638 95.0629 33.6638C90.0916 33.6638 86.3146 29.5941 86.3146 24.5916C86.3146 19.589 90.0916 15.5193 95.0629 15.5193C97.2718 15.5193 100.147 15.9492 101.853 18.5483C102.336 19.2836 103.29 19.1153 104.167 19.1153C105.396 19.1153 105.1 17.6392 104.617 16.9021C102.134 13.1196 98.0523 12.3239 95.0648 12.3239C88.3438 12.3239 82.877 17.8258 82.877 24.5879C82.877 31.35 88.3456 36.8519 95.0648 36.8519C99.4099 36.8519 103.147 34.9588 104.82 31.9134C105.243 31.1452 105.496 29.7478 104.196 29.7478Z" fill="white" fill-opacity="0.6"/>
<path d="M149.982 12.9644C149.105 12.9644 148.396 13.3521 148.396 14.2338V35.3999C148.396 36.2815 149.105 36.5559 149.982 36.5559C150.858 36.5559 151.568 36.2815 151.568 35.3999V14.2338C151.57 13.3521 150.858 12.9644 149.982 12.9644Z" fill="white" fill-opacity="0.6"/>
<path d="M149.981 2.56055C148.871 2.56055 147.967 3.4696 147.967 4.589C147.967 5.7084 148.871 6.61745 149.981 6.61745C151.092 6.61745 151.996 5.7084 151.996 4.589C151.998 3.4696 151.094 2.56055 149.981 2.56055Z" fill="white" fill-opacity="0.6"/>
<path d="M141.001 13.085C140.97 13.085 140.909 13.0814 140.907 13.0814C140.901 13.0814 139.411 13.0814 138.957 14.2227C138.52 15.3293 136.137 22.8871 133.614 30.2528C133.532 30.4924 133.434 30.7265 133.344 30.9606L127.918 17.2261C127.677 16.6371 127.318 16.1945 126.848 15.9292C126.577 15.7719 126.276 15.6622 125.902 15.6622C125.898 15.6622 125.897 15.664 125.893 15.664C125.889 15.664 125.887 15.6622 125.884 15.6622C125.51 15.6622 125.209 15.7719 124.938 15.9292C124.466 16.1945 124.109 16.6353 123.867 17.2261L118.442 30.9606C118.352 30.7265 118.254 30.4924 118.172 30.2528C115.629 22.8267 113.266 15.3275 112.828 14.2227C112.377 13.0814 110.817 13.0832 110.787 13.085C109.988 13.1015 109.67 13.3118 109.696 13.8313C109.692 13.9502 109.701 14.0782 109.741 14.23C109.863 14.7001 113.658 26.355 116.749 35.2004C116.95 35.7766 117.386 36.596 118.415 36.596C119.097 36.596 119.604 36.1424 119.787 35.676L125.588 20.7745C125.644 20.6373 125.768 20.5696 125.891 20.566C126.016 20.5696 126.14 20.6373 126.194 20.7745L131.995 35.676C132.178 36.1424 132.721 36.596 133.367 36.596C134.416 36.596 134.845 35.7821 135.033 35.2004C137.934 26.3166 141.919 14.7001 142.041 14.23C142.081 14.0782 142.09 13.9502 142.086 13.8313C142.117 13.3118 141.8 13.1015 141.001 13.085Z" fill="white" fill-opacity="0.6"/>
<path d="M78.3105 33.2582H57.5104C57.162 33.2582 56.8806 32.9747 56.8806 32.6254V20.7638H75.0652C75.911 20.7638 76.2831 20.0193 76.2831 19.1011C76.2831 18.1829 75.911 17.4385 75.0652 17.4385H56.8806V6.7786C56.8806 6.40912 57.1783 6.10915 57.5467 6.10915H78.3105C79.1563 6.10915 79.5284 5.36472 79.5284 4.44652C79.5284 3.52832 79.1563 2.78388 78.3105 2.78388H54.8569C53.9458 2.78388 53.3613 3.65453 53.3613 5.01719C53.3613 5.01719 53.3631 34.791 53.3631 34.8093C53.3777 35.6927 53.8768 36.5853 54.699 36.5853H78.3105C79.1563 36.5853 79.5284 35.8409 79.5284 34.9227C79.5284 34.0027 79.1563 33.2582 78.3105 33.2582Z" fill="white" fill-opacity="0.6"/>
<path d="M179.915 2.56055C179.038 2.56055 178.329 2.94831 178.329 3.82993V16.3408C176.526 13.3722 173.043 12.3535 169.976 12.3535C163.262 12.3535 157.801 17.8498 157.801 24.6046C157.801 31.3594 163.262 36.8558 169.976 36.8558C172.595 36.8558 176.675 35.5334 178.329 32.6617V35.3542C178.329 35.3596 178.332 35.3633 178.332 35.3688C178.332 35.3999 178.338 35.4182 178.343 35.42C178.383 36.2413 179.065 36.512 179.915 36.512C180.792 36.512 181.501 36.2376 181.501 35.356V31.9996V6.03397V3.82993C181.501 2.94831 180.792 2.56055 179.915 2.56055ZM169.974 33.6659C165.008 33.6659 161.277 29.6017 161.277 24.6046C161.277 19.6076 165.008 15.5434 169.974 15.5434C172.853 15.5434 178.285 17.2828 178.327 23.7578V25.221C178.287 31.5917 172.582 33.6659 169.974 33.6659Z" fill="white" fill-opacity="0.6"/>
</g>
<defs>
<clipPath id="clip0_44_2158">
<rect width="181.501" height="39.3253" fill="white"/>
</clipPath>
</defs>
</svg>
