<svg width="154" height="68" viewBox="0 0 154 68" fill="none" xmlns="http://www.w3.org/2000/svg">
<g clip-path="url(#clip0_44_3172)">
<path d="M120.681 35.125L119.299 36.484L119.251 36.5297L117.956 37.8048L108.967 46.642C108.041 47.4319 106.998 47.7393 106.007 47.6885C105.526 47.7139 105.032 47.6529 104.546 47.4954C104.03 47.3278 103.522 47.0484 103.043 46.642L102.155 45.8825L101.454 45.283L101.998 44.4117C101.783 43.5582 101.829 42.6057 102.256 41.6303L110.26 31.7237L112.173 29.3563L114.631 26.3158C115.357 26.9203 116.005 27.6468 116.539 28.5003L118.221 31.1903L119.272 32.8719L120.681 35.125Z" fill="url(#paint0_linear_44_3172)"/>
<path style="mix-blend-mode:darken" d="M120.681 35.125L119.299 36.484L119.251 36.5297L117.956 37.8048L108.967 46.642C108.041 47.4319 106.998 47.7393 106.007 47.6885C105.526 47.7139 105.032 47.6529 104.546 47.4954C104.03 47.3278 103.522 47.0484 103.043 46.642L102.155 45.8825L101.454 45.283L101.998 44.4117C101.783 43.5582 101.829 42.6057 102.256 41.6303L110.26 31.7237L112.173 29.3563L114.631 26.3158C115.357 26.9203 116.005 27.6468 116.539 28.5003L118.221 31.1903L119.272 32.8719L120.681 35.125Z" fill="url(#paint1_radial_44_3172)"/>
<path d="M52.4279 42.9283L45.5879 50.4446L55.6113 64.0851C59.44 69.2949 67.2947 69.0003 70.721 63.5161L75.5037 55.8652L66.5431 43.6701C63.1219 39.014 56.3148 38.6558 52.4279 42.9283Z" fill="url(#paint2_linear_44_3172)"/>
<path style="mix-blend-mode:darken" d="M52.4279 42.9283L45.5879 50.4446L55.6113 64.0851C59.44 69.2949 67.2947 69.0003 70.721 63.5161L75.5037 55.8652L66.5431 43.6701C63.1219 39.014 56.3148 38.6558 52.4279 42.9283Z" fill="url(#paint3_radial_44_3172)"/>
<path d="M79.7978 9.42903L74.0586 19.361L77.5457 23.2499C81.6982 27.8831 89.143 27.1058 92.2581 21.7157L97.2685 13.0462L96.0893 10.346C93.0805 3.46226 83.5556 2.92375 79.7978 9.42649V9.42903Z" fill="url(#paint4_linear_44_3172)"/>
<path style="mix-blend-mode:overlay" d="M79.7978 9.42903L74.0586 19.361L77.5457 23.2499C81.6982 27.8831 89.143 27.1058 92.2581 21.7157L97.2685 13.0462L96.0893 10.346C93.0805 3.46226 83.5556 2.92375 79.7978 9.42649V9.42903Z" fill="url(#paint5_radial_44_3172)"/>
<path d="M125.413 41.7878L119.473 36.7228L119.468 36.7177L119.268 36.545C119.268 36.545 119.256 36.5348 119.251 36.5297C118.19 35.628 116.991 35.0158 115.743 34.678C114.574 34.3579 113.362 34.2817 112.183 34.4367C111.53 34.5205 110.885 34.6754 110.262 34.899C109.27 35.2546 108.334 35.7829 107.502 36.4764C106.778 37.0809 106.127 37.8074 105.594 38.6609L101.998 44.4118L101.454 45.283L101.054 45.9231L100.406 46.957L99.1837 48.9154L98.5359 49.9518L93.0902 58.6619C89.6614 64.1435 81.8066 64.4407 77.978 59.2309L75.5056 55.8627L66.5451 43.67C66.4615 43.5557 66.3755 43.4465 66.2895 43.3373C66.2844 43.3322 66.2819 43.3297 66.2794 43.3246C66.1908 43.2154 66.0997 43.1112 66.0086 43.0071C65.9479 42.9385 65.8846 42.8699 65.8213 42.8013C65.6746 42.6438 65.5202 42.494 65.3658 42.3492C65.3582 42.3441 65.3532 42.3365 65.3456 42.3314C65.2924 42.2806 65.2368 42.2349 65.1836 42.1866C65.1128 42.1256 65.0419 42.0647 64.9711 42.0063C64.9154 41.9605 64.8623 41.9174 64.8066 41.8742C64.7509 41.8284 64.6927 41.7853 64.637 41.7446C64.4422 41.5973 64.2423 41.4627 64.0398 41.3357C64.0348 41.3331 64.0297 41.328 64.0247 41.3255C64.0196 41.323 64.0145 41.3179 64.0095 41.3179C63.9513 41.2798 63.8931 41.2442 63.8349 41.2112C63.7564 41.1629 63.6754 41.1172 63.597 41.074C63.516 41.0308 63.4376 40.9877 63.3566 40.947C63.2756 40.9038 63.1921 40.8632 63.1111 40.8251C63.0327 40.787 62.9568 40.7514 62.8783 40.7184C62.7999 40.6828 62.7214 40.6498 62.6405 40.6168C62.562 40.5838 62.4836 40.5533 62.4026 40.5228C62.3216 40.4923 62.2432 40.4644 62.1622 40.4365C62.0812 40.4085 62.0002 40.3831 61.9193 40.3577C61.8358 40.3298 61.7522 40.3044 61.6662 40.2815C61.5878 40.2586 61.5093 40.2383 61.4309 40.218C61.3474 40.1977 61.2639 40.1774 61.1803 40.1596C61.1728 40.157 61.1652 40.157 61.1576 40.1545C61.1221 40.1469 61.0842 40.1393 61.0462 40.1316C61.0083 40.1215 60.9703 40.1164 60.9324 40.1088C60.8514 40.091 60.7679 40.0758 60.6844 40.0631C60.6009 40.0504 60.5174 40.0377 60.4338 40.025C60.3503 40.0123 60.2668 40.0021 60.1833 39.9945C60.1428 39.9894 60.1023 39.9843 60.0619 39.9818C60.0214 39.9792 59.9834 39.9741 59.9429 39.9716C59.8619 39.964 59.781 39.9589 59.7 39.9538C59.6317 39.9487 59.5608 39.9462 59.49 39.9437C59.3862 39.9411 59.2825 39.9386 59.1787 39.9386C59.0876 39.9386 58.999 39.9386 58.9079 39.9437C58.8447 39.9437 58.7814 39.9437 58.7181 39.9513C58.6599 39.9538 58.6017 39.9564 58.5435 39.9614C58.3942 39.9716 58.2475 39.9843 58.0982 40.0021C58.04 40.0097 57.9818 40.0148 57.9236 40.025C57.8704 40.0326 57.8173 40.0402 57.7641 40.0478C57.7009 40.058 57.6351 40.0681 57.5718 40.0808C57.2682 40.1342 56.967 40.2028 56.6684 40.2891C56.595 40.3094 56.5191 40.3298 56.4457 40.3552C56.3724 40.378 56.2964 40.4009 56.2231 40.4288C56.0763 40.4771 55.9295 40.533 55.7827 40.5914C55.636 40.6498 55.4943 40.7108 55.3526 40.7768H55.35C55.2058 40.8429 55.0691 40.914 54.9274 40.9877H54.9249C54.7857 41.0613 54.6465 41.1375 54.5099 41.2214C54.4289 41.2696 54.3505 41.3179 54.2695 41.3712C54.2164 41.4042 54.1607 41.4398 54.1075 41.4779C54.0392 41.5211 53.9709 41.5668 53.9051 41.6151C53.7735 41.7091 53.647 41.8056 53.5205 41.9072H53.5179C53.3889 42.0088 53.2649 42.1155 53.1409 42.2247C53.0169 42.3339 52.8979 42.4432 52.779 42.5651H52.7765C52.7183 42.6235 52.6601 42.6819 52.6019 42.7429C52.5437 42.8039 52.4855 42.8648 52.4273 42.9283L45.5873 50.4446L43.7931 52.4157C41.0273 55.4563 36.1965 55.248 33.7014 51.9814L30.3459 47.5031L25.3406 40.8251L23.8956 38.8971L23.8602 38.8489L23.3693 38.1935C22.4001 36.898 22.8505 35.3943 23.8602 34.6043C24.6447 33.9896 25.7682 33.8092 26.8184 34.5002L30.27 36.7736C33.4509 38.8717 37.4263 38.7092 40.3769 36.7329C41.0829 36.2605 41.7282 35.6864 42.2925 35.0107C42.6595 34.5738 42.991 34.0937 43.2794 33.573L49.7095 22.0052L53.7027 14.8192C56.7595 9.32234 64.298 8.4714 68.4936 13.1529L74.0582 19.361L77.5452 23.2524C77.6034 23.3159 77.6591 23.3794 77.7198 23.4404C77.7679 23.4938 77.8185 23.5446 77.8691 23.5954C78.0134 23.7427 78.1627 23.8824 78.3145 24.017C78.3828 24.078 78.4512 24.1364 78.522 24.1948C78.5625 24.2279 78.603 24.2609 78.6435 24.2939C78.7118 24.3498 78.7801 24.4031 78.8485 24.4539C78.9396 24.5225 79.0332 24.5911 79.1268 24.6571C79.1724 24.6902 79.2179 24.7232 79.266 24.7537C79.3115 24.7841 79.3571 24.8146 79.4052 24.8451C79.4153 24.8527 79.4279 24.8603 79.4381 24.8654C79.5064 24.9086 79.5747 24.9518 79.643 24.9924C79.7493 25.0559 79.8556 25.1169 79.9619 25.1753C79.9745 25.1829 79.9872 25.1906 79.9998 25.1982C80.0909 25.2464 80.182 25.2947 80.2731 25.3404C80.2807 25.343 80.2883 25.3481 80.2959 25.3506C80.3946 25.4014 80.4958 25.4471 80.597 25.4928C80.7008 25.5386 80.802 25.5843 80.9058 25.6249C80.9108 25.6249 80.9159 25.63 80.921 25.6325C81.0171 25.6707 81.1158 25.7088 81.2145 25.7443C81.3182 25.7824 81.4245 25.818 81.5283 25.851C81.589 25.8713 81.6497 25.8916 81.7105 25.9094C81.7155 25.9094 81.7231 25.9094 81.7282 25.9145C81.7687 25.9247 81.8041 25.9374 81.8446 25.9475C81.9509 25.978 82.0572 26.0059 82.1634 26.0314C82.2115 26.0441 82.2596 26.0542 82.3077 26.0644C82.3684 26.0796 82.4317 26.0923 82.4924 26.105C82.586 26.1253 82.6822 26.1431 82.7758 26.1609H82.7809C82.8188 26.166 82.8543 26.1736 82.8922 26.1787C82.9884 26.1939 83.082 26.2066 83.1782 26.2193C83.2465 26.2295 83.3174 26.2371 83.3857 26.2447C83.4413 26.2498 83.497 26.2549 83.5527 26.26H83.5603C83.621 26.265 83.6843 26.2701 83.745 26.2727C83.8209 26.2777 83.8968 26.2828 83.9728 26.2854H84.0031C84.1145 26.2904 84.2233 26.293 84.3346 26.293C84.4738 26.293 84.613 26.293 84.7522 26.2828C84.7623 26.2828 84.7699 26.2828 84.78 26.2803C84.8534 26.2803 84.9318 26.2752 85.0052 26.2676C85.0457 26.265 85.0862 26.2625 85.1267 26.2574C85.1748 26.2549 85.2254 26.2498 85.2735 26.2447C85.2836 26.2447 85.2912 26.2447 85.3013 26.2447C85.3645 26.2371 85.4253 26.232 85.4885 26.2219C85.6859 26.199 85.8808 26.1685 86.0756 26.1304C86.1414 26.1177 86.2072 26.105 86.273 26.0898C86.3186 26.0796 86.3641 26.0695 86.4097 26.0593C86.4729 26.0466 86.5387 26.0288 86.602 26.011C86.6754 25.9932 86.7487 25.9729 86.8221 25.9526C86.8955 25.9323 86.9689 25.912 87.0423 25.8891C87.1865 25.8434 87.3333 25.7977 87.475 25.7443C87.5661 25.7138 87.6547 25.6783 87.7432 25.6427C87.7458 25.6427 87.7508 25.6402 87.7534 25.6376C87.8166 25.6148 87.8824 25.5868 87.9457 25.5589C87.9482 25.5589 87.9507 25.5563 87.9533 25.5563C88.014 25.5309 88.0722 25.5055 88.1304 25.4776C88.1532 25.4674 88.176 25.4573 88.1987 25.4471C88.2089 25.442 88.2164 25.437 88.2266 25.4319C88.2696 25.4116 88.3151 25.3912 88.3582 25.3684C88.4214 25.3404 88.4847 25.3074 88.5479 25.2744C88.7403 25.1753 88.9275 25.0712 89.1123 24.9569C89.1603 24.9289 89.2084 24.8984 89.2565 24.868C89.259 24.868 89.2616 24.868 89.2641 24.8629C89.3349 24.8197 89.4058 24.7714 89.4741 24.7232C89.5855 24.6495 89.6968 24.5708 89.8056 24.4895C89.965 24.3701 90.1219 24.2431 90.2763 24.1135C90.3598 24.0424 90.4433 23.9688 90.5243 23.8926C90.5825 23.8392 90.6407 23.7859 90.6964 23.7274C90.7571 23.6716 90.8178 23.6106 90.876 23.5496C90.919 23.5065 90.9621 23.4607 91.0025 23.415C91.0127 23.4074 91.0228 23.3972 91.0304 23.3871C91.0709 23.3439 91.1088 23.3007 91.1468 23.2575C91.2404 23.1534 91.3315 23.0467 91.4201 22.9375L91.458 22.8917C91.4909 22.8511 91.5213 22.813 91.5517 22.7724C91.6099 22.6987 91.6655 22.6225 91.7212 22.5463C91.7339 22.5285 91.7465 22.5107 91.7592 22.4929C91.8047 22.4294 91.8503 22.3659 91.8933 22.2999C92.0224 22.1145 92.1413 21.9214 92.2577 21.7207L97.2681 13.0513L102.165 4.57737C105.923 -1.92537 115.447 -1.38687 118.456 5.4969L126.389 23.6589L128.077 27.5224L130.286 32.5824L131.121 34.4925L132.121 36.7787C133.951 40.9648 128.882 44.7521 125.413 41.7903V41.7878Z" fill="url(#paint6_linear_44_3172)"/>
<path style="mix-blend-mode:overlay" d="M125.413 41.7879L119.473 36.7228L119.468 36.7178L119.268 36.545C119.268 36.545 119.256 36.5349 119.251 36.5298C118.19 35.628 116.991 35.0159 115.743 34.678C114.574 34.358 113.362 34.2818 112.183 34.4367C111.53 34.5205 110.885 34.6755 110.262 34.899C109.27 35.2546 108.334 35.783 107.502 36.4764C106.778 37.081 106.127 37.8075 105.594 38.661L101.998 44.4118L101.454 45.2831L101.054 45.9232L100.406 46.957L99.1837 48.9155L98.5359 49.9519L93.0902 58.662C89.6614 64.1436 81.8066 64.4408 77.978 59.231L75.5056 55.8628L66.5451 43.6701C66.4615 43.5558 66.3755 43.4466 66.2895 43.3373C66.2844 43.3323 66.2819 43.3297 66.2794 43.3246C66.1908 43.2154 66.0997 43.1113 66.0086 43.0071C65.9479 42.9385 65.8846 42.87 65.8213 42.8014C65.6746 42.6439 65.5202 42.494 65.3658 42.3492C65.3582 42.3442 65.3532 42.3365 65.3456 42.3315C65.2924 42.2807 65.2368 42.2349 65.1836 42.1867C65.1128 42.1257 65.0419 42.0647 64.9711 42.0063C64.9154 41.9606 64.8623 41.9174 64.8066 41.8742C64.7509 41.8285 64.6927 41.7853 64.637 41.7447C64.4422 41.5974 64.2423 41.4627 64.0398 41.3357C64.0348 41.3332 64.0297 41.3281 64.0247 41.3256C64.0196 41.323 64.0145 41.3179 64.0095 41.3179C63.9513 41.2798 63.8931 41.2443 63.8349 41.2113C63.7564 41.163 63.6754 41.1173 63.597 41.0741C63.516 41.0309 63.4376 40.9877 63.3566 40.9471C63.2756 40.9039 63.1921 40.8633 63.1111 40.8252C63.0327 40.7871 62.9568 40.7515 62.8783 40.7185C62.7999 40.6829 62.7214 40.6499 62.6405 40.6169C62.562 40.5838 62.4836 40.5534 62.4026 40.5229C62.3216 40.4924 62.2432 40.4645 62.1622 40.4365C62.0812 40.4086 62.0002 40.3832 61.9193 40.3578C61.8358 40.3298 61.7522 40.3044 61.6662 40.2816C61.5878 40.2587 61.5093 40.2384 61.4309 40.2181C61.3474 40.1977 61.2639 40.1774 61.1803 40.1596C61.1728 40.1571 61.1652 40.1571 61.1576 40.1546C61.1221 40.1469 61.0842 40.1393 61.0462 40.1317C61.0083 40.1215 60.9703 40.1165 60.9324 40.1088C60.8514 40.0911 60.7679 40.0758 60.6844 40.0631C60.6009 40.0504 60.5174 40.0377 60.4338 40.025C60.3503 40.0123 60.2668 40.0022 60.1833 39.9945C60.1428 39.9894 60.1023 39.9844 60.0619 39.9818C60.0214 39.9793 59.9834 39.9742 59.9429 39.9717C59.8619 39.9641 59.781 39.959 59.7 39.9539C59.6317 39.9488 59.5608 39.9463 59.49 39.9437C59.3862 39.9412 59.2825 39.9386 59.1787 39.9386C59.0876 39.9386 58.999 39.9386 58.9079 39.9437C58.8447 39.9437 58.7814 39.9437 58.7181 39.9513C58.6599 39.9539 58.6017 39.9564 58.5435 39.9615C58.3942 39.9717 58.2475 39.9844 58.0982 40.0022C58.04 40.0098 57.9818 40.0149 57.9236 40.025C57.8704 40.0326 57.8173 40.0403 57.7641 40.0479C57.7009 40.058 57.6351 40.0682 57.5718 40.0809C57.2682 40.1342 56.967 40.2028 56.6684 40.2892C56.595 40.3095 56.5191 40.3298 56.4457 40.3552C56.3724 40.3781 56.2964 40.401 56.2231 40.4289C56.0763 40.4772 55.9295 40.533 55.7827 40.5915C55.636 40.6499 55.4943 40.7108 55.3526 40.7769H55.35C55.2058 40.8429 55.0691 40.9141 54.9274 40.9877H54.9249C54.7857 41.0614 54.6465 41.1376 54.5099 41.2214C54.4289 41.2697 54.3505 41.3179 54.2695 41.3713C54.2164 41.4043 54.1607 41.4399 54.1075 41.478C54.0392 41.5212 53.9709 41.5669 53.9051 41.6151C53.7735 41.7091 53.647 41.8056 53.5205 41.9073H53.5179C53.3889 42.0089 53.2649 42.1155 53.1409 42.2248C53.0169 42.334 52.8979 42.4432 52.779 42.5652H52.7765C52.7183 42.6236 52.6601 42.682 52.6019 42.743C52.5437 42.8039 52.4855 42.8649 52.4273 42.9284L45.5873 50.4446L43.7931 52.4158C41.0273 55.4563 36.1965 55.248 33.7014 51.9814L30.3459 47.5032L25.3406 40.8252L23.8956 38.8972L23.8602 38.8489L23.3693 38.1936C22.4001 36.8981 22.8505 35.3943 23.8602 34.6044C24.6447 33.9897 25.7682 33.8093 26.8184 34.5002L30.27 36.7736C33.4509 38.8718 37.4263 38.7092 40.3769 36.733C41.0829 36.2605 41.7282 35.6865 42.2925 35.0108C42.6595 34.5739 42.991 34.0938 43.2794 33.5731L49.7095 22.0053L53.7027 14.8193C56.7595 9.3224 64.298 8.47146 68.4936 13.1529L74.0582 19.361L77.5452 23.2525C77.6034 23.316 77.6591 23.3795 77.7198 23.4405C77.7679 23.4938 77.8185 23.5446 77.8691 23.5954C78.0134 23.7427 78.1627 23.8825 78.3145 24.0171C78.3828 24.078 78.4512 24.1365 78.522 24.1949C78.5625 24.2279 78.603 24.2609 78.6435 24.294C78.7118 24.3498 78.7801 24.4032 78.8485 24.454C78.9396 24.5226 79.0332 24.5912 79.1268 24.6572C79.1724 24.6902 79.2179 24.7232 79.266 24.7537C79.3115 24.7842 79.3571 24.8147 79.4052 24.8452C79.4153 24.8528 79.4279 24.8604 79.4381 24.8655C79.5064 24.9087 79.5747 24.9519 79.643 24.9925C79.7493 25.056 79.8556 25.117 79.9619 25.1754C79.9745 25.183 79.9872 25.1906 79.9998 25.1982C80.0909 25.2465 80.182 25.2948 80.2731 25.3405C80.2807 25.343 80.2883 25.3481 80.2959 25.3507C80.3946 25.4015 80.4958 25.4472 80.597 25.4929C80.7008 25.5386 80.802 25.5843 80.9058 25.625C80.9108 25.625 80.9159 25.6301 80.921 25.6326C81.0171 25.6707 81.1158 25.7088 81.2145 25.7444C81.3182 25.7825 81.4245 25.818 81.5283 25.8511C81.589 25.8714 81.6497 25.8917 81.7105 25.9095C81.7155 25.9095 81.7231 25.9095 81.7282 25.9146C81.7687 25.9247 81.8041 25.9374 81.8446 25.9476C81.9509 25.9781 82.0572 26.006 82.1634 26.0314C82.2115 26.0441 82.2596 26.0543 82.3077 26.0644C82.3684 26.0797 82.4317 26.0924 82.4924 26.1051C82.586 26.1254 82.6822 26.1432 82.7758 26.161H82.7809C82.8188 26.166 82.8543 26.1737 82.8922 26.1787C82.9884 26.194 83.082 26.2067 83.1782 26.2194C83.2465 26.2295 83.3174 26.2372 83.3857 26.2448C83.4413 26.2499 83.497 26.2549 83.5527 26.26H83.5603C83.621 26.2651 83.6843 26.2702 83.745 26.2727C83.8209 26.2778 83.8968 26.2829 83.9728 26.2854H84.0031C84.1145 26.2905 84.2233 26.293 84.3346 26.293C84.4738 26.293 84.613 26.293 84.7522 26.2829C84.7623 26.2829 84.7699 26.2829 84.78 26.2803C84.8534 26.2803 84.9318 26.2753 85.0052 26.2676C85.0457 26.2651 85.0862 26.2626 85.1267 26.2575C85.1748 26.2549 85.2254 26.2499 85.2735 26.2448C85.2836 26.2448 85.2912 26.2448 85.3013 26.2448C85.3645 26.2372 85.4253 26.2321 85.4885 26.2219C85.6859 26.1991 85.8808 26.1686 86.0756 26.1305C86.1414 26.1178 86.2072 26.1051 86.273 26.0898C86.3186 26.0797 86.3641 26.0695 86.4097 26.0594C86.4729 26.0466 86.5387 26.0289 86.602 26.0111C86.6754 25.9933 86.7487 25.973 86.8221 25.9527C86.8955 25.9323 86.9689 25.912 87.0423 25.8892C87.1865 25.8434 87.3333 25.7977 87.475 25.7444C87.5661 25.7139 87.6547 25.6783 87.7432 25.6428C87.7458 25.6428 87.7508 25.6402 87.7534 25.6377C87.8166 25.6148 87.8824 25.5869 87.9457 25.5589C87.9482 25.5589 87.9507 25.5564 87.9533 25.5564C88.014 25.531 88.0722 25.5056 88.1304 25.4777C88.1532 25.4675 88.176 25.4573 88.1987 25.4472C88.2089 25.4421 88.2164 25.437 88.2266 25.4319C88.2696 25.4116 88.3151 25.3913 88.3582 25.3684C88.4214 25.3405 88.4847 25.3075 88.5479 25.2745C88.7403 25.1754 88.9275 25.0712 89.1123 24.9569C89.1603 24.929 89.2084 24.8985 89.2565 24.868C89.259 24.868 89.2616 24.868 89.2641 24.8629C89.3349 24.8198 89.4058 24.7715 89.4741 24.7232C89.5855 24.6496 89.6968 24.5708 89.8056 24.4895C89.965 24.3702 90.1219 24.2432 90.2763 24.1136C90.3598 24.0425 90.4433 23.9688 90.5243 23.8926C90.5825 23.8393 90.6407 23.7859 90.6964 23.7275C90.7571 23.6716 90.8178 23.6107 90.876 23.5497C90.919 23.5065 90.9621 23.4608 91.0025 23.4151C91.0127 23.4075 91.0228 23.3973 91.0304 23.3871C91.0709 23.3439 91.1088 23.3008 91.1468 23.2576C91.2404 23.1534 91.3315 23.0468 91.4201 22.9375L91.458 22.8918C91.4909 22.8512 91.5213 22.8131 91.5517 22.7724C91.6099 22.6988 91.6655 22.6226 91.7212 22.5463C91.7339 22.5286 91.7465 22.5108 91.7592 22.493C91.8047 22.4295 91.8503 22.366 91.8933 22.3C92.0224 22.1145 92.1413 21.9215 92.2577 21.7208L97.2681 13.0513L102.165 4.57743C105.923 -1.92531 115.447 -1.38681 118.456 5.49696L126.389 23.6589L128.077 27.5225L130.286 32.5824L131.121 34.4926L132.121 36.7787C133.951 40.9649 128.882 44.7522 125.413 41.7904V41.7879Z" fill="url(#paint7_radial_44_3172)"/>
<path d="M16.6331 23.3362V40.8251H14.7175V29.1735L8.33301 40.538H8.31277L1.91814 29.1531V40.8251H0V23.3362H0.222686L8.32289 36.992L16.4231 23.3362H16.6331Z" fill="white"/>
<g filter="url(#filter0_d_44_3172)">
<path d="M23.8956 38.8971L25.3406 40.8251H31.9174V38.8971H23.8956ZM23.3693 38.1935L23.8602 38.8489V34.6043C22.8505 35.3943 22.4001 36.8981 23.3693 38.1935Z" fill="black"/>
</g>
<path d="M23.8605 25.564V30.9948H30.8448V32.9329H23.8605V34.6044C22.8508 35.3943 22.4004 36.8981 23.3696 38.1936L23.8605 38.8489V38.8972H23.8959L25.3409 40.8251H21.9424V23.6564H31.9177V25.564H23.8605Z" fill="white"/>
<g filter="url(#filter1_d_44_3172)">
<path d="M40.376 36.733V40.8251H42.2916V35.0107C41.7273 35.6864 41.082 36.2605 40.376 36.733Z" fill="black"/>
</g>
<path d="M47.2126 23.6564V25.5742H42.2933V35.0108C41.729 35.6865 41.0837 36.2605 40.3777 36.733V25.5742H35.4355V23.6564H47.2126Z" fill="white"/>
<g filter="url(#filter2_d_44_3172)">
<path d="M60.2314 38.003H50.962L49.7196 40.8251H47.6445L55.4917 23.3896H55.7017L63.559 40.8251H61.4738L60.2314 38.003ZM59.4924 36.3214L55.6056 27.4919L51.7085 36.3214H59.4924Z" fill="black"/>
</g>
<g filter="url(#filter3_d_44_3172)">
<path d="M83.973 23.3362V40.8251H82.0548V29.1735L75.6729 40.538H75.6526L69.258 29.1531V40.8276H67.3398V23.3388H67.56L75.6602 36.9945L83.7604 23.3388H83.9704L83.973 23.3362Z" fill="black"/>
</g>
<g filter="url(#filter4_d_44_3172)">
<path d="M88.3867 32.2521C88.3867 27.3852 92.3166 23.4125 97.1094 23.4125C101.902 23.4125 105.842 27.3852 105.842 32.2521C105.842 37.119 101.912 41.0512 97.0993 41.0512C92.2863 41.0512 88.3893 37.0886 88.3893 32.2521H88.3867ZM103.904 32.242C103.904 28.4597 100.85 25.3608 97.0993 25.3608C93.3491 25.3608 90.3251 28.4597 90.3251 32.242C90.3251 36.0242 93.3693 39.0902 97.0993 39.0902C100.829 39.0902 103.904 36.0115 103.904 32.242Z" fill="black"/>
</g>
<g filter="url(#filter5_d_44_3172)">
<path d="M117.419 33.9033C118.112 33.6924 118.74 33.3368 119.271 32.872C120.324 31.955 120.989 30.6113 120.989 29.1304C120.989 26.1076 118.418 23.6564 115.27 23.6564H110.255L110.26 31.7238V34.899L110.265 40.8251H112.183V34.1268H115.354L115.744 34.678L117.955 37.8049L119.251 36.5298C119.251 36.5298 119.264 36.5399 119.269 36.545L119.469 36.7177L119.299 36.4841L117.419 33.9033ZM115.334 32.496L112.173 32.4859V25.5742H115.334C117.333 25.5742 119.018 27.1084 119.018 29.0897C119.018 29.8772 118.719 30.6087 118.221 31.1904C117.543 31.9804 116.498 32.496 115.334 32.496Z" fill="black"/>
</g>
<path d="M122.465 40.8251H120.094L117.956 37.8049L119.252 36.5297C119.252 36.5297 119.264 36.5399 119.269 36.545L119.469 36.7177L119.474 36.7228L122.465 40.8251Z" fill="white"/>
<g filter="url(#filter6_d_44_3172)">
<path d="M130.286 32.5799L128.077 32.5722V27.5199L126.389 23.6564H126.161V40.8251H128.077V34.49H131.121L130.286 32.5799Z" fill="black"/>
</g>
<path d="M137.516 29.1964C137.516 32.1125 134.829 34.49 131.544 34.49H131.122L130.287 32.5799H131.544C133.776 32.5926 135.598 31.0583 135.598 29.1735C135.598 27.1922 133.776 25.5742 131.544 25.5742H128.078V27.5199L126.39 23.6564H131.544C134.829 23.6564 137.516 26.1482 137.516 29.1964Z" fill="white"/>
<path d="M154 23.6564V40.8251H152.095V33.1895H143.488V40.8251H141.57V23.6564H143.488V31.2717H152.095V23.6564H154Z" fill="white"/>
<path d="M21.9395 51.2448L22.4936 50.8333C22.7821 51.3845 23.435 51.7528 24.1132 51.7528C24.9482 51.7528 25.629 51.2956 25.629 50.6605C25.629 49.9366 24.7154 49.5886 23.9006 49.2762C23.1161 48.9688 22.2431 48.5802 22.2431 47.5819C22.2431 46.5836 23.1263 45.847 24.2448 45.847C25.1912 45.847 25.8365 46.3703 26.0743 47.0078L25.5328 47.3761C25.3278 46.891 24.8116 46.5633 24.2397 46.5633C23.5539 46.5633 22.9694 47.0205 22.9694 47.5971C22.9694 48.222 23.6703 48.4506 24.4928 48.7707C25.4518 49.1619 26.3577 49.6115 26.3577 50.6478C26.3577 51.7604 25.3405 52.4844 24.1132 52.4844C23.0655 52.4844 22.2482 51.9331 21.9445 51.2422L21.9395 51.2448Z" fill="white"/>
<g filter="url(#filter7_d_44_3172)">
<path d="M34.7422 49.177C34.7422 47.3482 36.2175 45.8546 38.0192 45.8546C39.8209 45.8546 41.2988 47.3482 41.2988 49.177C41.2988 51.0059 39.8235 52.4843 38.0142 52.4843C36.2048 52.4843 34.7422 50.9958 34.7422 49.177ZM40.57 49.172C40.57 47.7495 39.4211 46.5861 38.0142 46.5861C36.6072 46.5861 35.4685 47.752 35.4685 49.172C35.4685 50.5919 36.6122 51.7451 38.0142 51.7451C39.4161 51.7451 40.57 50.5868 40.57 49.172Z" fill="black"/>
</g>
<g filter="url(#filter8_d_44_3172)">
<path d="M53.9382 51.674V52.398H50.0918V45.9435H50.813V51.674H53.9407H53.9382Z" fill="black"/>
</g>
<g filter="url(#filter9_d_44_3172)">
<path d="M62.5295 49.8934V45.946H63.2532V49.8909C63.2532 50.9755 63.9491 51.7655 64.8905 51.7655C65.8318 51.7655 66.5277 50.973 66.5277 49.8909V45.946H67.2514V49.8934C67.2514 51.3997 66.2468 52.4996 64.8879 52.4996C63.529 52.4996 62.5244 51.3997 62.5244 49.8934H62.5295Z" fill="black"/>
</g>
<g filter="url(#filter10_d_44_3172)">
<path d="M80.271 46.6649H78.4237V52.398H77.7025V46.6649H75.8477V45.9435H80.2735V46.6649H80.271Z" fill="black"/>
</g>
<g filter="url(#filter11_d_44_3172)">
<path d="M88.9268 45.9435H89.648V52.398H88.9268V45.9435Z" fill="black"/>
</g>
<g filter="url(#filter12_d_44_3172)">
<path d="M102.152 45.8825L103.04 46.642C103.518 47.0484 104.027 47.3278 104.543 47.4955C104.042 46.6344 103.169 46.0197 102.152 45.8825ZM98.4395 49.1745C98.4395 49.4412 98.4723 49.7029 98.5331 49.9518L99.1809 48.9154C99.2619 48.0848 99.7325 47.3685 100.403 46.957L101.051 45.9231C99.5655 46.2356 98.4395 47.5768 98.4395 49.1745Z" fill="black"/>
</g>
<path d="M104.999 49.1745C104.999 50.9933 103.521 52.4818 101.712 52.4818C100.178 52.4818 98.8799 51.3997 98.5332 49.9518L99.181 48.9155C99.1734 48.9993 99.1684 49.0856 99.1684 49.172C99.1684 50.5894 100.312 51.7452 101.712 51.7452C103.111 51.7452 104.27 50.5894 104.27 49.172C104.27 47.7546 103.121 46.5861 101.712 46.5861C101.233 46.5861 100.785 46.7233 100.403 46.957L101.051 45.9232C101.266 45.8749 101.489 45.8521 101.717 45.8521C101.863 45.8521 102.01 45.8622 102.152 45.8825L103.04 46.642C103.518 47.0485 104.027 47.3279 104.543 47.4955C104.834 47.9883 104.999 48.5624 104.999 49.1745Z" fill="white"/>
<path d="M118.921 45.9283V52.4996H118.886L114.513 47.587V52.4082H113.792V45.847H113.832L118.203 50.7545V45.9308H118.924L118.921 45.9283Z" fill="white"/>
<path d="M127.647 51.2448L128.202 50.8333C128.49 51.3845 129.143 51.7528 129.821 51.7528C130.656 51.7528 131.337 51.2956 131.337 50.6605C131.337 49.9366 130.423 49.5886 129.609 49.2762C128.824 48.9688 127.951 48.5802 127.951 47.5819C127.951 46.5836 128.834 45.847 129.953 45.847C130.899 45.847 131.544 46.3703 131.782 47.0078L131.241 47.3761C131.036 46.891 130.52 46.5633 129.948 46.5633C129.262 46.5633 128.677 47.0205 128.677 47.5971C128.677 48.222 129.378 48.4506 130.201 48.7707C131.16 49.1619 132.066 49.6115 132.066 50.6478C132.066 51.7604 131.048 52.4844 129.821 52.4844C128.771 52.4844 127.956 51.9331 127.653 51.2422L127.647 51.2448Z" fill="white"/>
</g>
<defs>
<filter id="filter0_d_44_3172" x="13.1761" y="33.5314" width="21.9595" height="19.0953" filterUnits="userSpaceOnUse" color-interpolation-filters="sRGB">
<feFlood flood-opacity="0" result="BackgroundImageFix"/>
<feColorMatrix in="SourceAlpha" type="matrix" values="0 0 0 0 0 0 0 0 0 0 0 0 0 0 0 0 0 0 127 0" result="hardAlpha"/>
<feOffset dx="-3.21863" dy="5.36438"/>
<feGaussianBlur stdDeviation="3.21863"/>
<feColorMatrix type="matrix" values="0 0 0 0 0 0 0 0 0 0.14902 0 0 0 0 0.329412 0 0 0 0.25 0"/>
<feBlend mode="normal" in2="BackgroundImageFix" result="effect1_dropShadow_44_3172"/>
<feBlend mode="normal" in="SourceGraphic" in2="effect1_dropShadow_44_3172" result="shape"/>
</filter>
<filter id="filter1_d_44_3172" x="30.7201" y="33.9379" width="14.7905" height="18.6889" filterUnits="userSpaceOnUse" color-interpolation-filters="sRGB">
<feFlood flood-opacity="0" result="BackgroundImageFix"/>
<feColorMatrix in="SourceAlpha" type="matrix" values="0 0 0 0 0 0 0 0 0 0 0 0 0 0 0 0 0 0 127 0" result="hardAlpha"/>
<feOffset dx="-3.21863" dy="5.36438"/>
<feGaussianBlur stdDeviation="3.21863"/>
<feColorMatrix type="matrix" values="0 0 0 0 0 0 0 0 0 0.14902 0 0 0 0 0.329412 0 0 0 0.25 0"/>
<feBlend mode="normal" in2="BackgroundImageFix" result="effect1_dropShadow_44_3172"/>
<feBlend mode="normal" in="SourceGraphic" in2="effect1_dropShadow_44_3172" result="shape"/>
</filter>
<filter id="filter2_d_44_3172" x="37.9886" y="22.3167" width="28.7886" height="30.31" filterUnits="userSpaceOnUse" color-interpolation-filters="sRGB">
<feFlood flood-opacity="0" result="BackgroundImageFix"/>
<feColorMatrix in="SourceAlpha" type="matrix" values="0 0 0 0 0 0 0 0 0 0 0 0 0 0 0 0 0 0 127 0" result="hardAlpha"/>
<feOffset dx="-3.21863" dy="5.36438"/>
<feGaussianBlur stdDeviation="3.21863"/>
<feColorMatrix type="matrix" values="0 0 0 0 0 0 0 0 0 0.14902 0 0 0 0 0.329412 0 0 0 0.25 0"/>
<feBlend mode="normal" in2="BackgroundImageFix" result="effect1_dropShadow_44_3172"/>
<feBlend mode="normal" in="SourceGraphic" in2="effect1_dropShadow_44_3172" result="shape"/>
</filter>
<filter id="filter3_d_44_3172" x="57.684" y="22.2634" width="29.5073" height="30.3659" filterUnits="userSpaceOnUse" color-interpolation-filters="sRGB">
<feFlood flood-opacity="0" result="BackgroundImageFix"/>
<feColorMatrix in="SourceAlpha" type="matrix" values="0 0 0 0 0 0 0 0 0 0 0 0 0 0 0 0 0 0 127 0" result="hardAlpha"/>
<feOffset dx="-3.21863" dy="5.36438"/>
<feGaussianBlur stdDeviation="3.21863"/>
<feColorMatrix type="matrix" values="0 0 0 0 0 0 0 0 0 0.14902 0 0 0 0 0.329412 0 0 0 0.25 0"/>
<feBlend mode="normal" in2="BackgroundImageFix" result="effect1_dropShadow_44_3172"/>
<feBlend mode="normal" in="SourceGraphic" in2="effect1_dropShadow_44_3172" result="shape"/>
</filter>
<filter id="filter4_d_44_3172" x="78.7308" y="22.3396" width="30.3296" height="30.5132" filterUnits="userSpaceOnUse" color-interpolation-filters="sRGB">
<feFlood flood-opacity="0" result="BackgroundImageFix"/>
<feColorMatrix in="SourceAlpha" type="matrix" values="0 0 0 0 0 0 0 0 0 0 0 0 0 0 0 0 0 0 127 0" result="hardAlpha"/>
<feOffset dx="-3.21863" dy="5.36438"/>
<feGaussianBlur stdDeviation="3.21863"/>
<feColorMatrix type="matrix" values="0 0 0 0 0 0 0 0 0 0.14902 0 0 0 0 0.329412 0 0 0 0.25 0"/>
<feBlend mode="normal" in2="BackgroundImageFix" result="effect1_dropShadow_44_3172"/>
<feBlend mode="normal" in="SourceGraphic" in2="effect1_dropShadow_44_3172" result="shape"/>
</filter>
<filter id="filter5_d_44_3172" x="100.599" y="22.5835" width="23.6089" height="30.0433" filterUnits="userSpaceOnUse" color-interpolation-filters="sRGB">
<feFlood flood-opacity="0" result="BackgroundImageFix"/>
<feColorMatrix in="SourceAlpha" type="matrix" values="0 0 0 0 0 0 0 0 0 0 0 0 0 0 0 0 0 0 127 0" result="hardAlpha"/>
<feOffset dx="-3.21863" dy="5.36438"/>
<feGaussianBlur stdDeviation="3.21863"/>
<feColorMatrix type="matrix" values="0 0 0 0 0 0 0 0 0 0.14902 0 0 0 0 0.329412 0 0 0 0.25 0"/>
<feBlend mode="normal" in2="BackgroundImageFix" result="effect1_dropShadow_44_3172"/>
<feBlend mode="normal" in="SourceGraphic" in2="effect1_dropShadow_44_3172" result="shape"/>
</filter>
<filter id="filter6_d_44_3172" x="116.505" y="22.5835" width="17.8345" height="30.0433" filterUnits="userSpaceOnUse" color-interpolation-filters="sRGB">
<feFlood flood-opacity="0" result="BackgroundImageFix"/>
<feColorMatrix in="SourceAlpha" type="matrix" values="0 0 0 0 0 0 0 0 0 0 0 0 0 0 0 0 0 0 127 0" result="hardAlpha"/>
<feOffset dx="-3.21863" dy="5.36438"/>
<feGaussianBlur stdDeviation="3.21863"/>
<feColorMatrix type="matrix" values="0 0 0 0 0 0 0 0 0 0.14902 0 0 0 0 0.329412 0 0 0 0.25 0"/>
<feBlend mode="normal" in2="BackgroundImageFix" result="effect1_dropShadow_44_3172"/>
<feBlend mode="normal" in="SourceGraphic" in2="effect1_dropShadow_44_3172" result="shape"/>
</filter>
<filter id="filter7_d_44_3172" x="27.2321" y="44.7817" width="19.4312" height="19.5043" filterUnits="userSpaceOnUse" color-interpolation-filters="sRGB">
<feFlood flood-opacity="0" result="BackgroundImageFix"/>
<feColorMatrix in="SourceAlpha" type="matrix" values="0 0 0 0 0 0 0 0 0 0 0 0 0 0 0 0 0 0 127 0" result="hardAlpha"/>
<feOffset dx="-1.07288" dy="5.36438"/>
<feGaussianBlur stdDeviation="3.21863"/>
<feColorMatrix type="matrix" values="0 0 0 0 0 0 0 0 0 0.14902 0 0 0 0 0.329412 0 0 0 0.32 0"/>
<feBlend mode="normal" in2="BackgroundImageFix" result="effect1_dropShadow_44_3172"/>
<feBlend mode="normal" in="SourceGraphic" in2="effect1_dropShadow_44_3172" result="shape"/>
</filter>
<filter id="filter8_d_44_3172" x="42.5817" y="44.8706" width="16.7232" height="19.329" filterUnits="userSpaceOnUse" color-interpolation-filters="sRGB">
<feFlood flood-opacity="0" result="BackgroundImageFix"/>
<feColorMatrix in="SourceAlpha" type="matrix" values="0 0 0 0 0 0 0 0 0 0 0 0 0 0 0 0 0 0 127 0" result="hardAlpha"/>
<feOffset dx="-1.07288" dy="5.36438"/>
<feGaussianBlur stdDeviation="3.21863"/>
<feColorMatrix type="matrix" values="0 0 0 0 0 0 0 0 0 0.14902 0 0 0 0 0.329412 0 0 0 0.32 0"/>
<feBlend mode="normal" in2="BackgroundImageFix" result="effect1_dropShadow_44_3172"/>
<feBlend mode="normal" in="SourceGraphic" in2="effect1_dropShadow_44_3172" result="shape"/>
</filter>
<filter id="filter9_d_44_3172" x="55.0143" y="44.8732" width="17.6011" height="19.428" filterUnits="userSpaceOnUse" color-interpolation-filters="sRGB">
<feFlood flood-opacity="0" result="BackgroundImageFix"/>
<feColorMatrix in="SourceAlpha" type="matrix" values="0 0 0 0 0 0 0 0 0 0 0 0 0 0 0 0 0 0 127 0" result="hardAlpha"/>
<feOffset dx="-1.07288" dy="5.36438"/>
<feGaussianBlur stdDeviation="3.21863"/>
<feColorMatrix type="matrix" values="0 0 0 0 0 0 0 0 0 0.14902 0 0 0 0 0.329412 0 0 0 0.32 0"/>
<feBlend mode="normal" in2="BackgroundImageFix" result="effect1_dropShadow_44_3172"/>
<feBlend mode="normal" in="SourceGraphic" in2="effect1_dropShadow_44_3172" result="shape"/>
</filter>
<filter id="filter10_d_44_3172" x="68.3375" y="44.8706" width="17.3003" height="19.329" filterUnits="userSpaceOnUse" color-interpolation-filters="sRGB">
<feFlood flood-opacity="0" result="BackgroundImageFix"/>
<feColorMatrix in="SourceAlpha" type="matrix" values="0 0 0 0 0 0 0 0 0 0 0 0 0 0 0 0 0 0 127 0" result="hardAlpha"/>
<feOffset dx="-1.07288" dy="5.36438"/>
<feGaussianBlur stdDeviation="3.21863"/>
<feColorMatrix type="matrix" values="0 0 0 0 0 0 0 0 0 0.14902 0 0 0 0 0.329412 0 0 0 0.32 0"/>
<feBlend mode="normal" in2="BackgroundImageFix" result="effect1_dropShadow_44_3172"/>
<feBlend mode="normal" in="SourceGraphic" in2="effect1_dropShadow_44_3172" result="shape"/>
</filter>
<filter id="filter11_d_44_3172" x="81.4166" y="44.8706" width="13.5962" height="19.329" filterUnits="userSpaceOnUse" color-interpolation-filters="sRGB">
<feFlood flood-opacity="0" result="BackgroundImageFix"/>
<feColorMatrix in="SourceAlpha" type="matrix" values="0 0 0 0 0 0 0 0 0 0 0 0 0 0 0 0 0 0 127 0" result="hardAlpha"/>
<feOffset dx="-1.07288" dy="5.36438"/>
<feGaussianBlur stdDeviation="3.21863"/>
<feColorMatrix type="matrix" values="0 0 0 0 0 0 0 0 0 0.14902 0 0 0 0 0.329412 0 0 0 0.32 0"/>
<feBlend mode="normal" in2="BackgroundImageFix" result="effect1_dropShadow_44_3172"/>
<feBlend mode="normal" in="SourceGraphic" in2="effect1_dropShadow_44_3172" result="shape"/>
</filter>
<filter id="filter12_d_44_3172" x="90.9293" y="44.8096" width="18.978" height="16.9438" filterUnits="userSpaceOnUse" color-interpolation-filters="sRGB">
<feFlood flood-opacity="0" result="BackgroundImageFix"/>
<feColorMatrix in="SourceAlpha" type="matrix" values="0 0 0 0 0 0 0 0 0 0 0 0 0 0 0 0 0 0 127 0" result="hardAlpha"/>
<feOffset dx="-1.07288" dy="5.36438"/>
<feGaussianBlur stdDeviation="3.21863"/>
<feColorMatrix type="matrix" values="0 0 0 0 0 0 0 0 0 0.14902 0 0 0 0 0.329412 0 0 0 0.32 0"/>
<feBlend mode="normal" in2="BackgroundImageFix" result="effect1_dropShadow_44_3172"/>
<feBlend mode="normal" in="SourceGraphic" in2="effect1_dropShadow_44_3172" result="shape"/>
</filter>
<linearGradient id="paint0_linear_44_3172" x1="181.439" y1="16.1299" x2="22.2644" y2="62.755" gradientUnits="userSpaceOnUse">
<stop stop-color="#51D1F4"/>
<stop offset="0.22" stop-color="#5D7EC2"/>
<stop offset="0.33" stop-color="#615CAD"/>
<stop offset="0.45" stop-color="#663998"/>
<stop offset="0.52" stop-color="#682C90"/>
<stop offset="0.6" stop-color="#74288F"/>
<stop offset="0.76" stop-color="#941D8E"/>
<stop offset="0.96" stop-color="#C80D8C"/>
<stop offset="1" stop-color="#D30A8C"/>
</linearGradient>
<radialGradient id="paint1_radial_44_3172" cx="0" cy="0" r="1" gradientTransform="matrix(5.28703 7.16431 -12.276 9.12824 110.231 42.4502)" gradientUnits="userSpaceOnUse">
<stop stop-color="white"/>
<stop offset="1" stop-color="#231F20"/>
</radialGradient>
<linearGradient id="paint2_linear_44_3172" x1="182.041" y1="18.1773" x2="22.8618" y2="64.8025" gradientUnits="userSpaceOnUse">
<stop stop-color="#51D1F4"/>
<stop offset="0.16" stop-color="#5994CF"/>
<stop offset="0.33" stop-color="#615CAD"/>
<stop offset="0.45" stop-color="#663998"/>
<stop offset="0.52" stop-color="#682C90"/>
<stop offset="0.6" stop-color="#74288F"/>
<stop offset="0.76" stop-color="#941D8E"/>
<stop offset="0.96" stop-color="#C80D8C"/>
<stop offset="1" stop-color="#D30A8C"/>
</linearGradient>
<radialGradient id="paint3_radial_44_3172" cx="0" cy="0" r="1" gradientTransform="matrix(15.6808 20.7748 -17.5917 13.3793 59.0696 56.7912)" gradientUnits="userSpaceOnUse">
<stop stop-color="white"/>
<stop offset="1" stop-color="#231F20"/>
</radialGradient>
<linearGradient id="paint4_linear_44_3172" x1="173.698" y1="-10.3053" x2="14.5184" y2="36.3199" gradientUnits="userSpaceOnUse">
<stop stop-color="#51D1F4"/>
<stop offset="0.16" stop-color="#5994CF"/>
<stop offset="0.33" stop-color="#615CAD"/>
<stop offset="0.45" stop-color="#663998"/>
<stop offset="0.52" stop-color="#682C90"/>
<stop offset="0.6" stop-color="#74288F"/>
<stop offset="0.76" stop-color="#941D8E"/>
<stop offset="0.96" stop-color="#C80D8C"/>
<stop offset="1" stop-color="#D30A8C"/>
</linearGradient>
<radialGradient id="paint5_radial_44_3172" cx="0" cy="0" r="1" gradientUnits="userSpaceOnUse" gradientTransform="translate(89.4265 5.10318) scale(31.009 31.1268)">
<stop stop-color="white"/>
<stop offset="1" stop-color="white" stop-opacity="0"/>
</radialGradient>
<linearGradient id="paint6_linear_44_3172" x1="84.1828" y1="17.0393" x2="49.5399" y2="126.261" gradientUnits="userSpaceOnUse">
<stop stop-color="#51D1F4"/>
<stop offset="0.16" stop-color="#5994CF"/>
<stop offset="0.33" stop-color="#615CAD"/>
<stop offset="0.45" stop-color="#663998"/>
<stop offset="0.52" stop-color="#682C90"/>
<stop offset="0.6" stop-color="#74288F"/>
<stop offset="0.76" stop-color="#941D8E"/>
<stop offset="0.96" stop-color="#C80D8C"/>
<stop offset="1" stop-color="#D30A8C"/>
</linearGradient>
<radialGradient id="paint7_radial_44_3172" cx="0" cy="0" r="1" gradientUnits="userSpaceOnUse" gradientTransform="translate(84.7851 10.5645) scale(40.3289 40.4821)">
<stop stop-color="white"/>
<stop offset="1" stop-color="white" stop-opacity="0"/>
</radialGradient>
<clipPath id="clip0_44_3172">
<rect width="154" height="67.8165" fill="white"/>
</clipPath>
</defs>
</svg>
