<svg width="47" height="47" viewBox="0 0 47 47" fill="none" xmlns="http://www.w3.org/2000/svg">
<path d="M44.1812 9.79598H2.93901C1.74851 9.79598 0.783203 8.83067 0.783203 7.63914C0.783203 6.44864 1.74851 5.48334 2.93901 5.48334H44.1812C45.3717 5.48334 46.337 6.44864 46.337 7.63914C46.337 8.83067 45.3717 9.79598 44.1812 9.79598Z" fill="white"/>
<path d="M28.5146 25.8591H2.93901C1.74851 25.8591 0.783203 24.8938 0.783203 23.7028C0.783203 22.5113 1.74851 21.546 2.93901 21.546H28.5146C29.7051 21.546 30.6704 22.5113 30.6704 23.7028C30.6704 24.8938 29.7051 25.8591 28.5146 25.8591Z" fill="white"/>
<path d="M44.3025 25.8591H37.5269C36.3364 25.8591 35.3711 24.8938 35.3711 23.7028C35.3711 22.5113 36.3364 21.546 37.5269 21.546H44.3025C45.493 21.546 46.4583 22.5113 46.4583 23.7028C46.4583 24.8938 45.493 25.8591 44.3025 25.8591Z" fill="white"/>
<path d="M44.1812 41.9228H2.93901C1.74851 41.9228 0.783203 40.9575 0.783203 39.766C0.783203 38.5744 1.74851 37.6091 2.93901 37.6091H44.1812C45.3717 37.6091 46.337 38.5744 46.337 39.766C46.337 40.9575 45.3717 41.9228 44.1812 41.9228Z" fill="white"/>
</svg>
