<svg width="182" height="52" viewBox="0 0 182 52" fill="none" xmlns="http://www.w3.org/2000/svg">
<g clip-path="url(#clip0_44_2174)">
<path d="M39.1501 9.75328C39.1149 9.49749 38.8915 9.35559 38.706 9.34014C38.522 9.32469 34.9161 9.2699 34.9161 9.2699C34.9161 9.2699 31.9004 6.34136 31.6025 6.04344C31.3047 5.74553 30.7228 5.83547 30.4966 5.90292C30.4938 5.90433 29.9303 6.07858 28.9818 6.37227C28.823 5.85796 28.5896 5.22559 28.2566 4.59042C27.1831 2.54157 25.6106 1.45813 23.7106 1.45533C23.7079 1.45533 23.7064 1.45533 23.7036 1.45533C23.5715 1.45533 23.4408 1.46797 23.3088 1.47921C23.2526 1.41176 23.1964 1.34572 23.1374 1.28107C22.3096 0.39577 21.2487 -0.0356402 19.977 0.00230137C17.5234 0.0725636 15.0797 1.84458 13.0983 4.99232C11.7043 7.20698 10.6433 9.9894 10.3426 12.1436C7.52508 13.0163 5.55492 13.6261 5.51136 13.6402C4.08926 14.087 4.04429 14.1306 3.8588 15.4712C3.72109 16.4844 0 45.2582 0 45.2582L31.1838 50.6515L44.6994 47.2915C44.6994 47.2915 39.1852 10.0091 39.1501 9.75328ZM27.4205 6.85567C26.7025 7.0777 25.886 7.33065 25.0007 7.60467C24.9824 6.36244 24.8349 4.63399 24.2559 3.14021C26.1179 3.49293 27.0341 5.59939 27.4205 6.85567ZM23.3692 8.11055C21.7349 8.61641 19.9516 9.16868 18.1628 9.72239C18.6658 7.79578 19.62 5.87762 20.792 4.61993C21.2276 4.15199 21.8375 3.63064 22.5598 3.33273C23.2385 4.74921 23.3861 6.7545 23.3692 8.11055ZM20.0261 1.63519C20.6022 1.62254 21.0871 1.74902 21.5016 2.02164C20.8384 2.36592 20.1975 2.86057 19.5961 3.50557C18.0377 5.17782 16.8432 7.7733 16.3668 10.2774C14.8815 10.7369 13.4285 11.1881 12.0907 11.6012C12.9353 7.65948 16.239 1.7448 20.0261 1.63519Z" fill="white" fill-opacity="0.6"/>
<path d="M38.7078 9.3412C38.5238 9.32575 34.9179 9.27097 34.9179 9.27097C34.9179 9.27097 31.9023 6.34241 31.6044 6.04451C31.4933 5.93349 31.343 5.87587 31.1855 5.85199L31.187 50.6498L44.7012 47.2912C44.7012 47.2912 39.187 10.0101 39.1519 9.75435C39.1167 9.49856 38.8919 9.35665 38.7078 9.3412Z" fill="white" fill-opacity="0.6"/>
<path d="M23.6936 16.2903L22.124 22.1628C22.124 22.1628 20.3731 21.366 18.2975 21.4967C15.2537 21.6893 15.2214 23.6088 15.2524 24.0908C15.4182 26.7172 22.3277 27.2905 22.7156 33.4427C23.0205 38.2823 20.1482 41.5931 16.0098 41.8545C11.0422 42.1678 8.30762 39.2379 8.30762 39.2379L9.36016 34.7608C9.36016 34.7608 12.113 36.8378 14.3164 36.6986C15.7554 36.6073 16.2697 35.4367 16.2177 34.609C16.0013 31.183 10.3747 31.3854 10.0192 25.756C9.71987 21.019 12.8311 16.2186 19.6957 15.7858C22.3404 15.6158 23.6936 16.2903 23.6936 16.2903Z" fill="white" fill-opacity="0.6"/>
<path d="M62.4977 28.5875C60.9436 27.7442 60.145 27.0334 60.145 26.0564C60.145 24.8131 61.2544 24.0144 62.9869 24.0144C65.0037 24.0144 66.8044 24.8577 66.8044 24.8577L68.2247 20.5063C68.2247 20.5063 66.9187 19.4847 63.0747 19.4847C57.7253 19.4847 54.0179 22.5482 54.0179 26.855C54.0179 29.2969 55.749 31.1618 58.0584 32.4928C59.9233 33.5577 60.5896 34.3131 60.5896 35.4226C60.5896 36.5767 59.6572 37.5091 57.9261 37.5091C55.3461 37.5091 52.9098 36.1766 52.9098 36.1766L51.4004 40.528C51.4004 40.528 53.6513 42.0375 57.4382 42.0375C62.9437 42.0375 66.8951 39.3293 66.8951 34.4455C66.8937 31.828 64.8964 29.9631 62.4977 28.5875Z" fill="white" fill-opacity="0.6"/>
<path d="M84.4303 19.4413C81.722 19.4413 79.5909 20.7292 77.949 22.6819L77.8598 22.6372L80.2125 10.3399H74.0854L68.1367 41.6387H74.2638L76.3057 30.94C77.1043 26.8995 79.1908 24.4143 81.145 24.4143C82.5206 24.4143 83.0544 25.3467 83.0544 26.6792C83.0544 27.5225 82.9652 28.5441 82.7882 29.3874L80.4801 41.6402H86.6075L89.0041 28.9873C89.2709 27.6549 89.449 26.0576 89.449 24.9913C89.4465 21.5278 87.6264 19.4413 84.4303 19.4413Z" fill="white" fill-opacity="0.6"/>
<path d="M103.298 19.4415C95.9279 19.4415 91.0459 26.1011 91.0459 33.5146C91.0459 38.2646 93.9752 42.0822 99.4811 42.0822C106.717 42.0822 111.601 35.6011 111.601 28.0092C111.601 23.6145 109.025 19.4415 103.298 19.4415ZM100.28 37.3782C98.1928 37.3782 97.3047 35.6025 97.3047 33.3822C97.3047 29.8754 99.1257 24.1484 102.455 24.1484C104.631 24.1484 105.34 26.0132 105.34 27.8336C105.34 31.6065 103.521 37.3782 100.28 37.3782Z" fill="white" fill-opacity="0.6"/>
<path d="M127.272 19.4415C123.136 19.4415 120.789 23.0821 120.789 23.0821H120.702L121.057 19.7969H115.641C115.375 22.0172 114.885 25.3902 114.398 27.9214L110.136 50.3404H116.263L117.949 41.2836H118.083C118.083 41.2836 119.34 42.0822 121.679 42.0822C128.871 42.0822 133.576 34.7133 133.576 27.2538C133.576 23.1268 131.755 19.4415 127.272 19.4415ZM121.412 37.466C119.821 37.466 118.88 36.5781 118.88 36.5781L119.901 30.8511C120.612 27.0335 122.61 24.5024 124.741 24.5024C126.606 24.5024 127.183 26.2335 127.183 27.8768C127.183 31.8281 124.83 37.466 121.412 37.466Z" fill="white" fill-opacity="0.6"/>
<path d="M142.322 10.6507C140.37 10.6507 138.815 12.2047 138.815 14.202C138.815 16.0223 139.969 17.2656 141.701 17.2656H141.79C143.699 17.2656 145.341 15.9777 145.386 13.7142C145.386 11.9385 144.187 10.6507 142.322 10.6507Z" fill="white" fill-opacity="0.6"/>
<path d="M133.755 41.639H139.88L144.055 19.9307H137.883L133.755 41.639Z" fill="white" fill-opacity="0.6"/>
<path d="M159.638 19.886H155.376L155.597 18.8644C155.952 16.7779 157.196 14.913 159.238 14.913C160.328 14.913 161.19 15.2238 161.19 15.2238L162.389 10.4292C162.389 10.4292 161.324 9.89677 159.059 9.89677C156.883 9.89677 154.71 10.5184 153.066 11.9386C150.979 13.7144 150.002 16.2887 149.514 18.8644L149.338 19.886H146.496L145.607 24.5037H148.45L145.209 41.6402H151.336L154.577 24.5037H158.795L159.638 19.886Z" fill="white" fill-opacity="0.6"/>
<path d="M174.376 19.9304C174.376 19.9304 170.546 29.5795 168.827 34.8467H168.737C168.621 33.1504 167.228 19.9304 167.228 19.9304H160.79L164.477 39.8629C164.566 40.3062 164.521 40.5738 164.343 40.8845C163.631 42.2602 162.434 43.5927 161.013 44.5697C159.859 45.4129 158.571 45.9454 157.551 46.3008L159.237 51.4954C160.481 51.2292 163.055 50.2076 165.23 48.1657C168.028 45.5467 170.602 41.5062 173.265 36.0007L180.769 19.929H174.376V19.9304Z" fill="white" fill-opacity="0.6"/>
</g>
<defs>
<clipPath id="clip0_44_2174">
<rect width="181.501" height="51.4957" fill="white"/>
</clipPath>
</defs>
</svg>
