<svg width="216" height="45" viewBox="0 0 216 45" fill="none" xmlns="http://www.w3.org/2000/svg">
<path d="M22.7858 28.2053L15.2474 15.2779H7.6524C4.53504 15.2779 2.60794 18.6357 4.13828 21.2659L15.4741 40.685C17.0045 43.3153 20.9154 43.3712 22.5024 40.685L29.814 28.2053C28.2837 30.8915 24.3728 30.8356 22.7858 28.2053Z" fill="#5D5D5D"/>
<path d="M30.3804 15.2779H15.2471L22.7854 28.2053C24.3158 30.8356 28.2266 30.8915 29.8137 28.2053L33.8946 21.2659C35.4249 18.5797 33.4411 15.2779 30.3804 15.2779Z" fill="#AAAAAA"/>
<path d="M37.6923 2.79791H14.9639C11.8466 2.79791 9.91946 6.09972 11.4498 8.78594L15.2473 15.2776H30.3807C33.4981 15.2776 35.4252 18.6354 33.8948 21.2657L41.2064 8.78594C42.7368 6.15568 40.8097 2.79791 37.6923 2.79791Z" fill="#747474"/>
<path d="M11.4503 8.78599C10.7135 7.5548 10.7135 6.04381 11.4503 4.81262L4.13867 17.2923C4.8755 16.0612 6.17913 15.2777 7.65279 15.2777H15.2478L11.4503 8.78599Z" fill="#AAAAAA"/>
<path d="M177.917 14.83C171.795 14.83 166.978 19.475 166.978 25.2391C166.978 31.0033 171.682 35.6482 177.917 35.6482C184.151 35.6482 188.856 31.0033 188.856 25.2391C188.856 19.475 184.038 14.83 177.917 14.83ZM177.917 31.451C174.459 31.451 171.909 28.7088 171.909 25.2951C171.909 21.8814 174.573 19.1392 177.917 19.1392C181.261 19.1392 183.925 21.8814 183.925 25.2951C183.925 28.7088 181.317 31.451 177.917 31.451Z" fill="white" fill-opacity="0.6"/>
<path d="M106.388 6.82733H104.631C103.497 6.82733 102.931 7.38696 102.931 8.50622V33.5216C102.931 34.6409 103.497 35.2005 104.631 35.2005H106.388C107.522 35.2005 108.088 34.6409 108.088 33.5216V8.50622C108.088 7.38696 107.522 6.82733 106.388 6.82733Z" fill="white" fill-opacity="0.6"/>
<path d="M161.14 15.3334H159.383C158.249 15.3334 157.683 15.8931 157.683 17.0123V33.5773C157.683 34.6966 158.249 35.2562 159.383 35.2562H161.14C162.274 35.2562 162.84 34.6966 162.84 33.5773V17.0123C162.84 15.8931 162.217 15.3334 161.14 15.3334Z" fill="white" fill-opacity="0.6"/>
<path d="M73.5135 15.2779H71.8698C70.7362 15.2779 70.2261 15.6696 69.8294 16.7329L65.0116 29.6603L60.1939 16.7329C59.7971 15.6696 59.287 15.2779 58.1534 15.2779H56.453C55.3761 15.2779 54.4126 15.7256 54.9794 17.1806L61.6109 33.4658C62.1776 34.9209 62.7444 35.2007 63.9347 35.2007H66.0318C67.2221 35.2007 67.7889 34.8649 68.3557 33.4658L74.9872 17.1806C75.554 15.7256 74.5904 15.2779 73.5135 15.2779Z" fill="white" fill-opacity="0.6"/>
<path d="M130.873 15.3334H129.116C127.983 15.3334 127.416 15.8931 127.416 17.0123V25.3508C127.246 29.3241 124.922 31.4507 122.088 31.4507C119.821 31.4507 118.574 29.492 118.574 26.526V17.0123C118.574 15.8931 118.007 15.3334 116.873 15.3334H115.116C113.983 15.3334 113.416 15.8931 113.416 17.0123V26.9177C113.416 30.4434 115.003 35.7039 120.898 35.7039C125.602 35.7039 127.076 32.6819 127.416 31.6746V33.5773C127.416 34.6966 127.983 35.2562 129.116 35.2562H130.873C132.007 35.2562 132.574 34.6966 132.574 33.5773V17.0123C132.574 15.8931 132.007 15.3334 130.873 15.3334Z" fill="white" fill-opacity="0.6"/>
<path d="M194.581 35.2565H196.338C197.472 35.2565 198.039 34.6969 198.039 33.5776V25.1832C198.209 21.2098 200.533 19.0832 203.367 19.0832C205.634 19.0832 206.881 21.0419 206.881 24.008V33.5216C206.881 34.6409 207.447 35.2005 208.581 35.2005H210.338C211.472 35.2005 212.038 34.6409 212.038 33.5216V23.6162C212.038 20.0906 210.451 14.83 204.557 14.83C199.852 14.83 198.379 17.852 198.039 18.8594V17.0126C198.039 15.8933 197.472 15.3337 196.338 15.3337H194.581C193.448 15.3337 192.881 15.8933 192.881 17.0126V33.5776C192.881 34.6969 193.504 35.2565 194.581 35.2565Z" fill="white" fill-opacity="0.6"/>
<path d="M163.463 9.45778C163.463 11.0807 162.273 12.4238 160.233 12.4238C158.192 12.4238 157.002 11.0807 157.002 9.45778C157.002 7.83485 158.249 6.49174 160.233 6.49174C162.216 6.49174 163.463 7.83485 163.463 9.45778Z" fill="white" fill-opacity="0.6"/>
<path d="M152.071 17.964C152.185 17.5722 152.185 17.1805 152.015 16.7887C151.845 16.453 151.505 16.1732 151.165 16.0612C149.578 15.5016 147.424 14.83 144.93 14.83C140.509 14.83 137.448 17.2924 137.278 20.4823C137.165 23.0566 138.638 24.7355 140.509 25.7428C142.719 26.918 145.27 27.3098 146.403 27.7015C147.594 28.1492 148.217 28.6529 148.274 29.6602C148.274 30.6675 147.31 31.5629 145.327 31.5629C142.833 31.5629 140.736 30.7235 139.375 30.1639C138.638 29.8281 137.788 30.1079 137.391 30.8354L136.995 31.8987C136.655 32.6262 136.938 33.4657 137.618 33.8574C139.092 34.6409 141.869 35.7042 145.1 35.7042C150.088 35.7042 153.092 33.0739 153.092 29.6042C153.092 28.0373 152.582 26.1345 149.918 24.7355C148.501 23.952 144.59 23.2245 143.286 22.497C142.379 22.0493 141.982 21.3217 142.096 20.5383C142.209 19.419 143.286 18.9153 144.646 18.8034C146.857 18.6915 148.444 19.419 150.031 19.8107C150.768 19.9786 151.505 19.5309 151.731 18.8594L152.071 17.964Z" fill="white" fill-opacity="0.6"/>
<path d="M87.6833 14.83C81.5619 14.83 76.7441 19.475 76.7441 25.2391C76.7441 31.0033 81.4485 35.6482 87.6833 35.6482C93.918 35.6482 98.6224 31.0033 98.6224 25.2391C98.6224 19.475 93.8046 14.83 87.6833 14.83ZM87.6833 31.451C84.2258 31.451 81.6752 28.7088 81.6752 25.2951C81.6752 21.8814 84.3392 19.1392 87.6833 19.1392C91.0273 19.1392 93.6913 21.8814 93.6913 25.2951C93.6913 28.7088 91.1407 31.451 87.6833 31.451Z" fill="white" fill-opacity="0.6"/>
</svg>
