<svg width="218" height="44" viewBox="0 0 218 44" fill="none" xmlns="http://www.w3.org/2000/svg">
<g clip-path="url(#clip0_44_2188)">
<path fill-rule="evenodd" clip-rule="evenodd" d="M6.88253 0H66.9376C70.7419 0 73.8202 3.05383 73.8202 6.8279V29.5588C73.8202 33.3328 70.7419 36.3579 66.9376 36.3579H45.3898L48.3229 43.5315L35.3129 36.3579H6.85349C3.07826 36.3579 0 33.304 0 29.5588V6.8279C0 3.05383 3.07826 0 6.88253 0Z" fill="white" fill-opacity="0.6"/>
<path d="M3.717 6.16531C4.18164 5.58912 4.8786 5.2434 5.60461 5.2434C7.14374 5.12816 8.01494 5.84841 8.24727 7.40413C9.20559 13.6558 10.193 18.928 11.2965 23.3071L17.9176 10.8325C18.5275 9.70891 19.2825 9.10391 20.1828 9.04629C21.5186 8.95986 22.3318 9.79534 22.6802 11.5527C23.2901 15.0387 24.2484 18.4671 25.5262 21.7802C26.3103 14.1744 27.6461 8.70057 29.5047 5.30102C29.8822 4.52316 30.6373 4.00459 31.5085 3.97578C32.2054 3.91816 32.8733 4.11982 33.3961 4.55197C33.9478 4.95531 34.2963 5.58912 34.3254 6.28055C34.3834 6.77032 34.2673 7.28889 34.035 7.72104C32.8443 9.88177 31.886 13.483 31.1309 18.5247C30.3759 23.3935 30.1145 27.1964 30.2888 29.9333C30.3469 30.596 30.2307 31.2874 29.9403 31.8924C29.6499 32.5262 29.04 32.9295 28.3431 32.9872C27.559 33.0448 26.7459 32.6703 25.9618 31.8924C23.1449 29.0402 20.9378 24.8052 19.2825 19.1585C17.3368 22.9902 15.8848 25.8712 14.9265 27.7726C13.1551 31.1433 11.645 32.9007 10.3672 32.9872C9.55407 33.0448 8.85711 32.3533 8.27631 30.9417C6.6791 26.9947 5.0238 19.4466 3.25235 8.2108C3.10715 7.49056 3.28139 6.74151 3.717 6.16531Z" fill="white" fill-opacity="0.6"/>
<path d="M68.5351 10.89C67.5187 9.07499 65.7473 7.80736 63.7145 7.43284C63.1627 7.3176 62.64 7.25998 62.0882 7.25998C59.2132 7.25998 56.8319 8.75808 55.0024 11.7255C53.4342 14.2607 52.6211 17.1705 52.6502 20.1379C52.6502 22.4427 53.1438 24.4306 54.1022 26.0727C55.1186 27.8877 56.89 29.1554 58.9228 29.5299C59.4746 29.6451 59.9973 29.7027 60.5491 29.7027C63.4531 29.7027 65.8344 28.2046 67.6349 25.2372C69.2031 22.6732 70.0162 19.7346 69.9872 16.7672C69.9872 14.4624 69.4935 12.5033 68.5351 10.89ZM64.7309 19.1872C64.3243 21.1463 63.5402 22.6156 62.4367 23.6239C61.5655 24.4018 60.7524 24.7475 59.9973 24.5746C59.2423 24.4018 58.6615 23.7968 58.2259 22.6444C57.8774 21.7801 57.7032 20.8582 57.7032 19.9363C57.7032 19.1872 57.7612 18.467 57.9355 17.7467C58.2259 16.4791 58.7776 15.2691 59.5327 14.2031C60.5491 12.7338 61.5945 12.1288 62.669 12.3593C63.395 12.5033 64.0049 13.1372 64.4405 14.2895C64.789 15.1538 64.9632 16.0758 64.9632 16.9977C64.9632 17.7179 64.8761 18.4381 64.7309 19.1872Z" fill="white" fill-opacity="0.6"/>
<path d="M49.6299 10.89C48.6135 9.07499 46.842 7.80736 44.8092 7.43284C44.2574 7.3176 43.7347 7.25998 43.183 7.25998C40.2789 7.25998 37.9267 8.75808 36.0971 11.7255C34.529 14.2607 33.7159 17.1705 33.7449 20.1379C33.7449 22.4427 34.2386 24.4306 35.1969 26.0727C36.2133 27.8877 37.9848 29.1554 40.0176 29.5299C40.5693 29.6451 41.0921 29.7027 41.6438 29.7027C44.5769 29.7027 46.9291 28.2046 48.7296 25.2372C50.2978 22.6732 51.1109 19.7634 51.0819 16.7672C51.1109 14.4624 50.6172 12.5033 49.6299 10.89ZM45.8256 19.1872C45.4191 21.1463 44.635 22.6156 43.5314 23.6239C42.6312 24.4018 41.8471 24.7475 41.0921 24.5746C40.3661 24.4306 39.7562 23.7679 39.3206 22.6444C38.9721 21.7801 38.7979 20.8582 38.7979 19.9363C38.7979 19.1872 38.856 18.467 39.0302 17.7467C39.3206 16.4791 39.8724 15.2691 40.6274 14.2031C41.6148 12.7338 42.6602 12.1288 43.7638 12.3593C44.4898 12.5033 45.0996 13.1372 45.5352 14.2895C45.8837 15.1538 46.0579 16.0758 46.0579 16.9977C46.0579 17.7179 45.9708 18.4381 45.8256 19.1872Z" fill="white" fill-opacity="0.6"/>
<path d="M81.4284 10.6308C79.4246 12.5898 78.4082 15.0963 78.4082 18.1501C78.4082 21.4344 79.3956 24.0849 81.3993 26.1016C83.4031 28.1183 85.9877 29.1266 89.2112 29.1266C90.2856 29.0978 91.3311 28.9249 92.3475 28.6368V23.7968C91.4472 24.0849 90.547 24.229 89.5887 24.2578C87.9915 24.2578 86.7137 23.7392 85.7554 22.6732C84.797 21.6073 84.3324 20.1668 84.3324 18.3518C84.3324 16.652 84.797 15.2691 85.7554 14.1456C86.6266 13.0796 87.9624 12.4746 89.3564 12.5034C90.3728 12.5034 91.3892 12.6475 92.3475 12.9355V8.0379C91.273 7.77861 90.1695 7.63456 89.066 7.63456C85.9877 7.66337 83.4322 8.6429 81.4284 10.6308ZM102.366 7.66337C99.5785 7.66337 97.4005 8.58528 95.8323 10.4291C94.2641 12.2729 93.4801 14.837 93.5091 18.1213C93.5091 21.6937 94.2932 24.4018 95.8323 26.3033C97.3714 28.2047 99.6366 29.1266 102.599 29.1266C105.445 29.1266 107.652 28.1759 109.191 26.3033C110.73 24.4018 111.514 21.7801 111.514 18.3518C111.514 14.9234 110.73 12.3017 109.162 10.4579C107.594 8.58528 105.328 7.66337 102.366 7.66337ZM104.748 23.2206C104.254 24.0273 103.325 24.5171 102.366 24.4882C101.437 24.5171 100.595 24.0273 100.159 23.2206C99.6656 22.3851 99.4043 20.6854 99.4043 18.1789C99.4043 14.2608 100.392 12.2729 102.395 12.2729C104.515 12.2729 105.59 14.2608 105.59 18.2365C105.59 20.6854 105.299 22.3563 104.748 23.2206ZM126.441 8.23956L125.366 12.8203C125.076 14.0015 124.814 15.1827 124.582 16.4215L123.972 19.5906C123.391 16.4215 122.607 12.6474 121.62 8.26837H114.592L111.95 28.6368H117.206L118.629 14.6065L122.23 28.6368H125.976L129.403 14.6065L130.884 28.608H136.372L133.585 8.23956H126.441ZM151.56 8.23956L150.486 12.8203C150.196 14.0015 149.934 15.1827 149.702 16.4215L149.092 19.5906C148.511 16.4215 147.727 12.6474 146.74 8.26837H139.741L137.069 28.5792H142.326L143.749 14.5489L147.35 28.5792H151.096L154.523 14.5489L156.004 28.5504H161.492L158.704 8.21075H151.56V8.23956ZM168.607 20.5413H173.544V16.3063H168.607V12.561H174.27V8.23956H163.06V28.608H174.328V24.229H168.607V20.5413ZM189.952 17.3146C191.52 14.8658 190.91 11.6103 188.529 9.88172C187.019 8.75814 184.957 8.21075 182.343 8.21075H175.867V28.5792H181.414V19.3025H181.501L185.973 28.5792H191.839L187.396 19.3889C188.471 18.9856 189.342 18.2653 189.952 17.3146ZM181.443 16.9977V12.1577C182.75 12.1865 183.708 12.417 184.26 12.8203C184.84 13.2236 185.102 13.8863 185.102 14.837C185.102 16.2199 183.882 16.9401 181.443 16.9977ZM194.075 10.6308C192.072 12.6186 191.055 15.1251 191.055 18.1501C191.055 21.4344 192.042 24.0849 194.046 26.0728C196.05 28.0895 198.635 29.0978 201.858 29.0978C202.933 29.069 203.978 28.9249 205.023 28.6368V23.7968C204.123 24.0849 203.223 24.229 202.265 24.2578C200.667 24.2578 199.39 23.7392 198.431 22.6732C197.473 21.6073 196.979 20.1668 196.979 18.3518C196.979 16.652 197.444 15.2691 198.402 14.1456C199.273 13.0796 200.609 12.4746 202.003 12.5034C203.02 12.5034 204.036 12.6475 205.023 12.9355V8.0379C203.949 7.77861 202.845 7.63456 201.713 7.63456C198.635 7.66337 196.108 8.6429 194.075 10.6308ZM212.08 24.229V20.5413H217.017V16.3063H212.08V12.561H217.743V8.23956H206.504V28.608H217.801V24.229H212.08Z" fill="white" fill-opacity="0.6"/>
</g>
<defs>
<clipPath id="clip0_44_2188">
<rect width="217.801" height="43.5603" fill="white"/>
</clipPath>
</defs>
</svg>
