<svg width="32" height="32" viewBox="0 0 32 32" fill="none" xmlns="http://www.w3.org/2000/svg">
<path d="M9.01172 5.89355H22.9893C23.2225 5.89373 23.4111 6.08315 23.4111 6.31641C23.4111 6.57401 23.4059 6.83101 23.3955 7.08691L23.3877 7.27441H25.6836C25.917 7.2745 26.1064 7.46386 26.1064 7.69727V8.99219C26.1064 12.4537 23.6047 15.3431 20.3145 15.9463L20.2549 15.957L20.2139 16.002C19.931 16.311 19.6345 16.5889 19.3262 16.833C18.2444 17.6896 17.6212 18.955 17.6211 20.3047V22.8496H20.0918C20.325 22.8497 20.5144 23.0383 20.5146 23.2715V25.2598H21.2969C21.5303 25.2598 21.7197 25.4492 21.7197 25.6826C21.7197 25.916 21.5303 26.1055 21.2969 26.1055H10.7041C10.4707 26.1054 10.2812 25.916 10.2812 25.6826C10.2812 25.4492 10.4707 25.2598 10.7041 25.2598H11.4873V23.2715C11.4875 23.0384 11.676 22.8498 11.9092 22.8496H14.3799V20.3047C14.3798 18.955 13.7566 17.6895 12.6748 16.833C12.3665 16.5889 12.07 16.311 11.7871 16.002L11.7461 15.957L11.6865 15.9463L11.3799 15.8828C8.24204 15.1616 5.89453 12.3453 5.89453 8.99219V7.69727C5.89453 7.46388 6.08402 7.27449 6.31738 7.27441H8.61328L8.60547 7.08691C8.595 6.83108 8.58984 6.57404 8.58984 6.31641C8.58992 6.08316 8.77849 5.89374 9.01172 5.89355ZM6.74023 8.99219C6.74023 11.5025 8.23397 13.6699 10.3779 14.6533L10.9033 14.8945L10.6074 14.3975C10.2724 13.8343 9.97139 13.2166 9.70996 12.5518C9.19678 11.2466 8.85233 9.79636 8.69238 8.28125L8.67578 8.12012H6.74023V8.99219ZM23.3086 8.28125C23.1487 9.79636 22.8042 11.2466 22.291 12.5518C22.0296 13.2166 21.7286 13.8344 21.3936 14.3975L21.0977 14.8945L21.623 14.6533C23.767 13.6699 25.2607 11.5025 25.2607 8.99219V8.12012H23.3252L23.3086 8.28125Z" fill="url(#paint0_linear_1085_21338)"/>
<path d="M9.01172 5.89355H22.9893C23.2225 5.89373 23.4111 6.08315 23.4111 6.31641C23.4111 6.57401 23.4059 6.83101 23.3955 7.08691L23.3877 7.27441H25.6836C25.917 7.2745 26.1064 7.46386 26.1064 7.69727V8.99219C26.1064 12.4537 23.6047 15.3431 20.3145 15.9463L20.2549 15.957L20.2139 16.002C19.931 16.311 19.6345 16.5889 19.3262 16.833C18.2444 17.6896 17.6212 18.955 17.6211 20.3047V22.8496H20.0918C20.325 22.8497 20.5144 23.0383 20.5146 23.2715V25.2598H21.2969C21.5303 25.2598 21.7197 25.4492 21.7197 25.6826C21.7197 25.916 21.5303 26.1055 21.2969 26.1055H10.7041C10.4707 26.1054 10.2812 25.916 10.2812 25.6826C10.2812 25.4492 10.4707 25.2598 10.7041 25.2598H11.4873V23.2715C11.4875 23.0384 11.676 22.8498 11.9092 22.8496H14.3799V20.3047C14.3798 18.955 13.7566 17.6895 12.6748 16.833C12.3665 16.5889 12.07 16.311 11.7871 16.002L11.7461 15.957L11.6865 15.9463L11.3799 15.8828C8.24204 15.1616 5.89453 12.3453 5.89453 8.99219V7.69727C5.89453 7.46388 6.08402 7.27449 6.31738 7.27441H8.61328L8.60547 7.08691C8.595 6.83108 8.58984 6.57404 8.58984 6.31641C8.58992 6.08316 8.77849 5.89374 9.01172 5.89355ZM6.74023 8.99219C6.74023 11.5025 8.23397 13.6699 10.3779 14.6533L10.9033 14.8945L10.6074 14.3975C10.2724 13.8343 9.97139 13.2166 9.70996 12.5518C9.19678 11.2466 8.85233 9.79636 8.69238 8.28125L8.67578 8.12012H6.74023V8.99219ZM23.3086 8.28125C23.1487 9.79636 22.8042 11.2466 22.291 12.5518C22.0296 13.2166 21.7286 13.8344 21.3936 14.3975L21.0977 14.8945L21.623 14.6533C23.767 13.6699 25.2607 11.5025 25.2607 8.99219V8.12012H23.3252L23.3086 8.28125Z" fill="url(#paint1_radial_1085_21338)" style="mix-blend-mode:overlay"/>
<path d="M9.01172 5.89355H22.9893C23.2225 5.89373 23.4111 6.08315 23.4111 6.31641C23.4111 6.57401 23.4059 6.83101 23.3955 7.08691L23.3877 7.27441H25.6836C25.917 7.2745 26.1064 7.46386 26.1064 7.69727V8.99219C26.1064 12.4537 23.6047 15.3431 20.3145 15.9463L20.2549 15.957L20.2139 16.002C19.931 16.311 19.6345 16.5889 19.3262 16.833C18.2444 17.6896 17.6212 18.955 17.6211 20.3047V22.8496H20.0918C20.325 22.8497 20.5144 23.0383 20.5146 23.2715V25.2598H21.2969C21.5303 25.2598 21.7197 25.4492 21.7197 25.6826C21.7197 25.916 21.5303 26.1055 21.2969 26.1055H10.7041C10.4707 26.1054 10.2812 25.916 10.2812 25.6826C10.2812 25.4492 10.4707 25.2598 10.7041 25.2598H11.4873V23.2715C11.4875 23.0384 11.676 22.8498 11.9092 22.8496H14.3799V20.3047C14.3798 18.955 13.7566 17.6895 12.6748 16.833C12.3665 16.5889 12.07 16.311 11.7871 16.002L11.7461 15.957L11.6865 15.9463L11.3799 15.8828C8.24204 15.1616 5.89453 12.3453 5.89453 8.99219V7.69727C5.89453 7.46388 6.08402 7.27449 6.31738 7.27441H8.61328L8.60547 7.08691C8.595 6.83108 8.58984 6.57404 8.58984 6.31641C8.58992 6.08316 8.77849 5.89374 9.01172 5.89355ZM6.74023 8.99219C6.74023 11.5025 8.23397 13.6699 10.3779 14.6533L10.9033 14.8945L10.6074 14.3975C10.2724 13.8343 9.97139 13.2166 9.70996 12.5518C9.19678 11.2466 8.85233 9.79636 8.69238 8.28125L8.67578 8.12012H6.74023V8.99219ZM23.3086 8.28125C23.1487 9.79636 22.8042 11.2466 22.291 12.5518C22.0296 13.2166 21.7286 13.8344 21.3936 14.3975L21.0977 14.8945L21.623 14.6533C23.767 13.6699 25.2607 11.5025 25.2607 8.99219V8.12012H23.3252L23.3086 8.28125Z" stroke="url(#paint2_linear_1085_21338)" stroke-width="0.36"/>
<defs>
<linearGradient id="paint0_linear_1085_21338" x1="5.70348" y1="25.6452" x2="31.6307" y2="23.081" gradientUnits="userSpaceOnUse">
<stop stop-color="#7D4AE2"/>
<stop offset="0.804643" stop-color="#701D38"/>
</linearGradient>
<radialGradient id="paint1_radial_1085_21338" cx="0" cy="0" r="1" gradientTransform="matrix(-3.89631 -25.8015 8.3493 -14.8496 15.9894 30.5265)" gradientUnits="userSpaceOnUse">
<stop stop-color="#F2D25E"/>
<stop offset="1" stop-color="#F2D25E" stop-opacity="0"/>
</radialGradient>
<linearGradient id="paint2_linear_1085_21338" x1="5.71484" y1="15.9996" x2="26.2861" y2="15.9996" gradientUnits="userSpaceOnUse">
<stop stop-color="#51D1F4"/>
<stop offset="0.25" stop-color="white" stop-opacity="0.1"/>
<stop offset="0.75" stop-color="white" stop-opacity="0.1"/>
<stop offset="1" stop-color="#74288F"/>
</linearGradient>
</defs>
</svg>
