<svg width="48" height="48" viewBox="0 0 48 48" fill="none" xmlns="http://www.w3.org/2000/svg">
<path d="M30.0205 23.2803H38.0205C38.4159 23.2803 38.7402 23.6047 38.7402 24V27.2803H43.2451L39.3564 32.7197H35.29V32C35.29 31.593 35.1333 31.2673 34.8828 31.0469C34.6378 30.8314 34.3194 30.7305 34.0107 30.7305C33.7019 30.7305 33.3828 30.8312 33.1377 31.0469C32.8872 31.2673 32.7305 31.593 32.7305 32V32.7197H28.6641L24.7754 27.2803H29.3008V24C29.3008 23.6046 29.6251 23.2803 30.0205 23.2803ZM30.7207 27.2803H37.2803V24.7197H30.7207V27.2803Z" fill="url(#paint0_linear_1085_21258)"/>
<path d="M30.0205 23.2803H38.0205C38.4159 23.2803 38.7402 23.6047 38.7402 24V27.2803H43.2451L39.3564 32.7197H35.29V32C35.29 31.593 35.1333 31.2673 34.8828 31.0469C34.6378 30.8314 34.3194 30.7305 34.0107 30.7305C33.7019 30.7305 33.3828 30.8312 33.1377 31.0469C32.8872 31.2673 32.7305 31.593 32.7305 32V32.7197H28.6641L24.7754 27.2803H29.3008V24C29.3008 23.6046 29.6251 23.2803 30.0205 23.2803ZM30.7207 27.2803H37.2803V24.7197H30.7207V27.2803Z" fill="url(#paint1_radial_1085_21258)" style="mix-blend-mode:overlay"/>
<path d="M30.0205 23.2803H38.0205C38.4159 23.2803 38.7402 23.6047 38.7402 24V27.2803H43.2451L39.3564 32.7197H35.29V32C35.29 31.593 35.1333 31.2673 34.8828 31.0469C34.6378 30.8314 34.3194 30.7305 34.0107 30.7305C33.7019 30.7305 33.3828 30.8312 33.1377 31.0469C32.8872 31.2673 32.7305 31.593 32.7305 32V32.7197H28.6641L24.7754 27.2803H29.3008V24C29.3008 23.6046 29.6251 23.2803 30.0205 23.2803ZM30.7207 27.2803H37.2803V24.7197H30.7207V27.2803Z" stroke="url(#paint2_linear_1085_21258)" stroke-width="0.56"/>
<path d="M44.7197 42C44.7196 42.3952 44.3953 42.7197 44 42.7197H24C23.6047 42.7197 23.2804 42.3952 23.2803 42V29.5928L26.9619 34.7422C27.1956 35.0775 27.5914 35.2793 28 35.2793H32.7197V36C32.7198 36.4068 32.8775 36.7318 33.1279 36.9521C33.373 37.1678 33.6911 37.2695 34 37.2695C34.3089 37.2695 34.627 37.1678 34.8721 36.9521C35.1225 36.7318 35.2802 36.4068 35.2803 36V35.2793H40C40.4141 35.2793 40.7963 35.0732 41.0361 34.7451L41.0381 34.7422L44.7197 29.5928V42Z" fill="url(#paint3_linear_1085_21258)"/>
<path d="M44.7197 42C44.7196 42.3952 44.3953 42.7197 44 42.7197H24C23.6047 42.7197 23.2804 42.3952 23.2803 42V29.5928L26.9619 34.7422C27.1956 35.0775 27.5914 35.2793 28 35.2793H32.7197V36C32.7198 36.4068 32.8775 36.7318 33.1279 36.9521C33.373 37.1678 33.6911 37.2695 34 37.2695C34.3089 37.2695 34.627 37.1678 34.8721 36.9521C35.1225 36.7318 35.2802 36.4068 35.2803 36V35.2793H40C40.4141 35.2793 40.7963 35.0732 41.0361 34.7451L41.0381 34.7422L44.7197 29.5928V42Z" fill="url(#paint4_radial_1085_21258)" style="mix-blend-mode:overlay"/>
<path d="M44.7197 42C44.7196 42.3952 44.3953 42.7197 44 42.7197H24C23.6047 42.7197 23.2804 42.3952 23.2803 42V29.5928L26.9619 34.7422C27.1956 35.0775 27.5914 35.2793 28 35.2793H32.7197V36C32.7198 36.4068 32.8775 36.7318 33.1279 36.9521C33.373 37.1678 33.6911 37.2695 34 37.2695C34.3089 37.2695 34.627 37.1678 34.8721 36.9521C35.1225 36.7318 35.2802 36.4068 35.2803 36V35.2793H40C40.4141 35.2793 40.7963 35.0732 41.0361 34.7451L41.0381 34.7422L44.7197 29.5928V42Z" stroke="url(#paint5_linear_1085_21258)" stroke-width="0.56"/>
<path d="M20 3.28027C24.8058 3.28027 28.7197 7.17504 28.7197 12C28.7197 14.4215 27.7419 17.1127 26.1484 19.1973C24.5538 21.2834 22.3777 22.7197 20 22.7197C17.6227 22.7197 15.4464 21.2791 13.8516 19.1904C12.258 17.1032 11.2803 14.4114 11.2803 12C11.2803 7.19464 15.1946 3.28027 20 3.28027Z" fill="url(#paint6_linear_1085_21258)"/>
<path d="M20 3.28027C24.8058 3.28027 28.7197 7.17504 28.7197 12C28.7197 14.4215 27.7419 17.1127 26.1484 19.1973C24.5538 21.2834 22.3777 22.7197 20 22.7197C17.6227 22.7197 15.4464 21.2791 13.8516 19.1904C12.258 17.1032 11.2803 14.4114 11.2803 12C11.2803 7.19464 15.1946 3.28027 20 3.28027Z" fill="url(#paint7_radial_1085_21258)" style="mix-blend-mode:overlay"/>
<path d="M20 3.28027C24.8058 3.28027 28.7197 7.17504 28.7197 12C28.7197 14.4215 27.7419 17.1127 26.1484 19.1973C24.5538 21.2834 22.3777 22.7197 20 22.7197C17.6227 22.7197 15.4464 21.2791 13.8516 19.1904C12.258 17.1032 11.2803 14.4114 11.2803 12C11.2803 7.19464 15.1946 3.28027 20 3.28027Z" stroke="url(#paint8_linear_1085_21258)" stroke-width="0.56"/>
<path d="M13 24.2803H13.0098C13.016 24.2808 13.0246 24.2817 13.0352 24.2832C13.0569 24.2863 13.085 24.2916 13.1201 24.2988C13.1911 24.3134 13.2819 24.3358 13.3945 24.3643C13.6159 24.4201 13.9202 24.5005 14.2832 24.5889C15.015 24.767 16.0122 24.9821 17.2285 25.127C18.655 25.2968 20.3823 25.3681 22.3389 25.1748C21.3719 25.7468 20.7197 26.8006 20.7197 28V41.7197H20.71V42C20.71 43.1211 21.2808 44.1087 22.1455 44.6982C16.6464 44.7887 11.1432 44.5307 5.69141 43.9219C4.31378 43.7678 3.28027 42.6078 3.28027 41.2197V34C3.28027 28.6446 7.64464 24.2803 13 24.2803ZM26.7197 24.7197H25.1875C25.6879 24.609 26.199 24.4803 26.7197 24.3301V24.7197Z" fill="url(#paint9_linear_1085_21258)"/>
<path d="M13 24.2803H13.0098C13.016 24.2808 13.0246 24.2817 13.0352 24.2832C13.0569 24.2863 13.085 24.2916 13.1201 24.2988C13.1911 24.3134 13.2819 24.3358 13.3945 24.3643C13.6159 24.4201 13.9202 24.5005 14.2832 24.5889C15.015 24.767 16.0122 24.9821 17.2285 25.127C18.655 25.2968 20.3823 25.3681 22.3389 25.1748C21.3719 25.7468 20.7197 26.8006 20.7197 28V41.7197H20.71V42C20.71 43.1211 21.2808 44.1087 22.1455 44.6982C16.6464 44.7887 11.1432 44.5307 5.69141 43.9219C4.31378 43.7678 3.28027 42.6078 3.28027 41.2197V34C3.28027 28.6446 7.64464 24.2803 13 24.2803ZM26.7197 24.7197H25.1875C25.6879 24.609 26.199 24.4803 26.7197 24.3301V24.7197Z" fill="url(#paint10_radial_1085_21258)" style="mix-blend-mode:overlay"/>
<path d="M13 24.2803H13.0098C13.016 24.2808 13.0246 24.2817 13.0352 24.2832C13.0569 24.2863 13.085 24.2916 13.1201 24.2988C13.1911 24.3134 13.2819 24.3358 13.3945 24.3643C13.6159 24.4201 13.9202 24.5005 14.2832 24.5889C15.015 24.767 16.0122 24.9821 17.2285 25.127C18.655 25.2968 20.3823 25.3681 22.3389 25.1748C21.3719 25.7468 20.7197 26.8006 20.7197 28V41.7197H20.71V42C20.71 43.1211 21.2808 44.1087 22.1455 44.6982C16.6464 44.7887 11.1432 44.5307 5.69141 43.9219C4.31378 43.7678 3.28027 42.6078 3.28027 41.2197V34C3.28027 28.6446 7.64464 24.2803 13 24.2803ZM26.7197 24.7197H25.1875C25.6879 24.609 26.199 24.4803 26.7197 24.3301V24.7197Z" stroke="url(#paint11_linear_1085_21258)" stroke-width="0.56"/>
<defs>
<linearGradient id="paint0_linear_1085_21258" x1="24.2197" y1="32.6888" x2="48.2154" y2="28.0469" gradientUnits="userSpaceOnUse">
<stop stop-color="#7D4AE2"/>
<stop offset="0.804643" stop-color="#701D38"/>
</linearGradient>
<radialGradient id="paint1_radial_1085_21258" cx="0" cy="0" r="1" gradientTransform="matrix(-3.70476 -12.5424 7.93884 -7.21858 33.9999 35.0617)" gradientUnits="userSpaceOnUse">
<stop stop-color="#F2D25E"/>
<stop offset="1" stop-color="#F2D25E" stop-opacity="0"/>
</radialGradient>
<linearGradient id="paint2_linear_1085_21258" x1="24.2305" y1="28" x2="43.7905" y2="28" gradientUnits="userSpaceOnUse">
<stop stop-color="#51D1F4"/>
<stop offset="0.25" stop-color="white" stop-opacity="0.1"/>
<stop offset="0.75" stop-color="white" stop-opacity="0.1"/>
<stop offset="1" stop-color="#74288F"/>
</linearGradient>
<linearGradient id="paint3_linear_1085_21258" x1="22.9878" y1="42.5554" x2="50.3517" y2="38.3861" gradientUnits="userSpaceOnUse">
<stop stop-color="#7D4AE2"/>
<stop offset="0.804643" stop-color="#701D38"/>
</linearGradient>
<radialGradient id="paint4_radial_1085_21258" cx="0" cy="0" r="1" gradientTransform="matrix(-4.16691 -17.9105 8.92916 -10.3081 33.9881 45.9438)" gradientUnits="userSpaceOnUse">
<stop stop-color="#F2D25E"/>
<stop offset="1" stop-color="#F2D25E" stop-opacity="0"/>
</radialGradient>
<linearGradient id="paint5_linear_1085_21258" x1="23" y1="35.8597" x2="45" y2="35.8597" gradientUnits="userSpaceOnUse">
<stop stop-color="#51D1F4"/>
<stop offset="0.25" stop-color="white" stop-opacity="0.1"/>
<stop offset="0.75" stop-color="white" stop-opacity="0.1"/>
<stop offset="1" stop-color="#74288F"/>
</linearGradient>
<linearGradient id="paint6_linear_1085_21258" x1="10.9901" y1="22.3776" x2="33.7183" y2="20.3546" gradientUnits="userSpaceOnUse">
<stop stop-color="#7D4AE2"/>
<stop offset="0.804643" stop-color="#701D38"/>
</linearGradient>
<radialGradient id="paint7_radial_1085_21258" cx="0" cy="0" r="1" gradientTransform="matrix(-3.40929 -25.0847 7.30568 -14.4372 19.9903 27.1234)" gradientUnits="userSpaceOnUse">
<stop stop-color="#F2D25E"/>
<stop offset="1" stop-color="#F2D25E" stop-opacity="0"/>
</radialGradient>
<linearGradient id="paint8_linear_1085_21258" x1="11" y1="13" x2="29" y2="13" gradientUnits="userSpaceOnUse">
<stop stop-color="#51D1F4"/>
<stop offset="0.25" stop-color="white" stop-opacity="0.1"/>
<stop offset="0.75" stop-color="white" stop-opacity="0.1"/>
<stop offset="1" stop-color="#74288F"/>
</linearGradient>
<linearGradient id="paint9_linear_1085_21258" x1="2.98674" y1="44.3435" x2="33.1458" y2="40.9341" gradientUnits="userSpaceOnUse">
<stop stop-color="#7D4AE2"/>
<stop offset="0.804643" stop-color="#701D38"/>
</linearGradient>
<radialGradient id="paint10_radial_1085_21258" cx="0" cy="0" r="1" gradientTransform="matrix(-4.54572 -26.335 9.7409 -15.1567 14.987 49.3258)" gradientUnits="userSpaceOnUse">
<stop stop-color="#F2D25E"/>
<stop offset="1" stop-color="#F2D25E" stop-opacity="0"/>
</radialGradient>
<linearGradient id="paint11_linear_1085_21258" x1="3" y1="34.4984" x2="27" y2="34.4984" gradientUnits="userSpaceOnUse">
<stop stop-color="#51D1F4"/>
<stop offset="0.25" stop-color="white" stop-opacity="0.1"/>
<stop offset="0.75" stop-color="white" stop-opacity="0.1"/>
<stop offset="1" stop-color="#74288F"/>
</linearGradient>
</defs>
</svg>
