<svg width="56" height="56" viewBox="0 0 56 56" fill="none" xmlns="http://www.w3.org/2000/svg">
<path d="M4.66504 28.2793H13.999C14.5433 28.2794 15.0652 28.4961 15.4502 28.8809C15.8353 29.2659 16.0518 29.7884 16.0518 30.333V51.333C16.0518 51.8776 15.8353 52.4001 15.4502 52.7852C15.0652 53.17 14.5433 53.3866 13.999 53.3867H4.66504C4.12073 53.3866 3.59883 53.17 3.21387 52.7852C2.82879 52.4001 2.6123 51.8776 2.6123 51.333V30.333C2.61231 29.7884 2.82879 29.2659 3.21387 28.8809C3.59883 28.4961 4.12073 28.2794 4.66504 28.2793ZM23.332 2.61328H32.665C33.2096 2.61328 33.7321 2.82977 34.1172 3.21484C34.5021 3.59983 34.7187 4.12163 34.7188 4.66602V51.333C34.7188 51.8776 34.5023 52.4001 34.1172 52.7852C33.7321 53.1701 33.2095 53.3867 32.665 53.3867H23.332C22.7875 53.3867 22.265 53.1702 21.8799 52.7852C21.4948 52.4001 21.2783 51.8776 21.2783 51.333V4.66602C21.2784 4.12171 21.4951 3.59981 21.8799 3.21484C22.265 2.82977 22.7875 2.61328 23.332 2.61328ZM41.999 14.2793H51.332C51.8766 14.2793 52.3991 14.4958 52.7842 14.8809C53.1693 15.2659 53.3857 15.7884 53.3857 16.333V51.333C53.3857 51.8776 53.1693 52.4001 52.7842 52.7852C52.3991 53.1702 51.8766 53.3867 51.332 53.3867H41.999C41.4545 53.3867 40.9319 53.1701 40.5469 52.7852C40.1618 52.4001 39.9453 51.8776 39.9453 51.333V16.333C39.9453 15.7884 40.1618 15.2659 40.5469 14.8809C40.9319 14.4959 41.4545 14.2793 41.999 14.2793Z" fill="url(#paint0_linear_1085_21239)"/>
<path d="M4.66504 28.2793H13.999C14.5433 28.2794 15.0652 28.4961 15.4502 28.8809C15.8353 29.2659 16.0518 29.7884 16.0518 30.333V51.333C16.0518 51.8776 15.8353 52.4001 15.4502 52.7852C15.0652 53.17 14.5433 53.3866 13.999 53.3867H4.66504C4.12073 53.3866 3.59883 53.17 3.21387 52.7852C2.82879 52.4001 2.6123 51.8776 2.6123 51.333V30.333C2.61231 29.7884 2.82879 29.2659 3.21387 28.8809C3.59883 28.4961 4.12073 28.2794 4.66504 28.2793ZM23.332 2.61328H32.665C33.2096 2.61328 33.7321 2.82977 34.1172 3.21484C34.5021 3.59983 34.7187 4.12163 34.7188 4.66602V51.333C34.7188 51.8776 34.5023 52.4001 34.1172 52.7852C33.7321 53.1701 33.2095 53.3867 32.665 53.3867H23.332C22.7875 53.3867 22.265 53.1702 21.8799 52.7852C21.4948 52.4001 21.2783 51.8776 21.2783 51.333V4.66602C21.2784 4.12171 21.4951 3.59981 21.8799 3.21484C22.265 2.82977 22.7875 2.61328 23.332 2.61328ZM41.999 14.2793H51.332C51.8766 14.2793 52.3991 14.4958 52.7842 14.8809C53.1693 15.2659 53.3857 15.7884 53.3857 16.333V51.333C53.3857 51.8776 53.1693 52.4001 52.7842 52.7852C52.3991 53.1702 51.8766 53.3867 51.332 53.3867H41.999C41.4545 53.3867 40.9319 53.1701 40.5469 52.7852C40.1618 52.4001 39.9453 51.8776 39.9453 51.333V16.333C39.9453 15.7884 40.1618 15.2659 40.5469 14.8809C40.9319 14.4959 41.4545 14.2793 41.999 14.2793Z" fill="url(#paint1_radial_1085_21239)" style="mix-blend-mode:overlay"/>
<path d="M4.66504 28.2793H13.999C14.5433 28.2794 15.0652 28.4961 15.4502 28.8809C15.8353 29.2659 16.0518 29.7884 16.0518 30.333V51.333C16.0518 51.8776 15.8353 52.4001 15.4502 52.7852C15.0652 53.17 14.5433 53.3866 13.999 53.3867H4.66504C4.12073 53.3866 3.59883 53.17 3.21387 52.7852C2.82879 52.4001 2.6123 51.8776 2.6123 51.333V30.333C2.61231 29.7884 2.82879 29.2659 3.21387 28.8809C3.59883 28.4961 4.12073 28.2794 4.66504 28.2793ZM23.332 2.61328H32.665C33.2096 2.61328 33.7321 2.82977 34.1172 3.21484C34.5021 3.59983 34.7187 4.12163 34.7188 4.66602V51.333C34.7188 51.8776 34.5023 52.4001 34.1172 52.7852C33.7321 53.1701 33.2095 53.3867 32.665 53.3867H23.332C22.7875 53.3867 22.265 53.1702 21.8799 52.7852C21.4948 52.4001 21.2783 51.8776 21.2783 51.333V4.66602C21.2784 4.12171 21.4951 3.59981 21.8799 3.21484C22.265 2.82977 22.7875 2.61328 23.332 2.61328ZM41.999 14.2793H51.332C51.8766 14.2793 52.3991 14.4958 52.7842 14.8809C53.1693 15.2659 53.3857 15.7884 53.3857 16.333V51.333C53.3857 51.8776 53.1693 52.4001 52.7842 52.7852C52.3991 53.1702 51.8766 53.3867 51.332 53.3867H41.999C41.4545 53.3867 40.9319 53.1701 40.5469 52.7852C40.1618 52.4001 39.9453 51.8776 39.9453 51.333V16.333C39.9453 15.7884 40.1618 15.2659 40.5469 14.8809C40.9319 14.4959 41.4545 14.2793 41.999 14.2793Z" stroke="url(#paint2_linear_1085_21239)" stroke-width="0.56"/>
<defs>
<linearGradient id="paint0_linear_1085_21239" x1="2.30367" y1="52.069" x2="67.0021" y2="45.6703" gradientUnits="userSpaceOnUse">
<stop stop-color="#7D4AE2"/>
<stop offset="0.804643" stop-color="#701D38"/>
</linearGradient>
<radialGradient id="paint1_radial_1085_21239" cx="0" cy="0" r="1" gradientTransform="matrix(-9.72278 -64.3842 20.8347 -37.0554 27.9709 64.2498)" gradientUnits="userSpaceOnUse">
<stop stop-color="#F2D25E"/>
<stop offset="1" stop-color="#F2D25E" stop-opacity="0"/>
</radialGradient>
<linearGradient id="paint2_linear_1085_21239" x1="2.33203" y1="27.9997" x2="53.6654" y2="27.9997" gradientUnits="userSpaceOnUse">
<stop stop-color="#51D1F4"/>
<stop offset="0.25" stop-color="white" stop-opacity="0.1"/>
<stop offset="0.75" stop-color="white" stop-opacity="0.1"/>
<stop offset="1" stop-color="#74288F"/>
</linearGradient>
</defs>
</svg>
