<svg width="56" height="56" viewBox="0 0 56 56" fill="none" xmlns="http://www.w3.org/2000/svg">
<g clip-path="url(#clip0_1085_21249)">
<path d="M48.2812 54.248C48.2812 55.377 47.057 56.0829 46.082 55.5244H46.0811L40.8252 52.5205L40.6865 52.4414L40.5469 52.5205L35.291 55.5244C34.3119 56.0841 33.0918 55.3741 33.0918 54.248V45.1631C37.6656 48.3198 43.7134 48.3157 48.2812 45.1631V54.248ZM9.48828 0.280273H40.3857C42.3265 0.280443 43.9062 1.85998 43.9062 3.80078V21.1123C32.475 18.2423 23.2238 30.636 29.0527 40.7744C29.0247 41.0358 29.031 41.3406 29.0312 47.8428H9.48828C7.54737 47.8428 5.96777 46.2632 5.96777 44.3223V3.80078C5.96777 1.85987 7.54737 0.280273 9.48828 0.280273ZM40.6865 24.7793C45.8384 24.7795 50.0312 28.9721 50.0312 34.124C50.0311 39.2758 45.8383 43.4686 40.6865 43.4688C35.5346 43.4688 31.342 39.2759 31.3418 34.124C31.3418 28.972 35.5345 24.7793 40.6865 24.7793ZM45 32.7344C46.1883 30.9492 44.1457 28.7808 42.2959 29.8506C42.1822 29.9154 42.0741 29.9743 41.9502 30.0938C41.8335 30.2063 41.7078 30.3675 41.5225 30.6318C41.1641 31.1429 40.5336 32.1106 39.2471 34.042L38.3125 33.4189C37.3793 32.7979 36.1199 33.0489 35.498 33.9814H35.4971C34.8758 34.9147 35.1269 36.175 36.0596 36.7969L38.6846 38.5469C39.615 39.1671 40.8767 38.9192 41.5 37.9844C42.9953 35.7421 42.2023 36.9316 45 32.7344ZM16.1875 22.4688C15.066 22.4688 14.1573 23.3776 14.1572 24.499C14.1572 25.6205 15.066 26.5293 16.1875 26.5293H24.9365C26.058 26.5293 26.9668 25.6205 26.9668 24.499C26.9668 23.3776 26.058 22.4688 24.9365 22.4688H16.1875ZM16.1875 15.4697C15.0661 15.4697 14.1574 16.3777 14.1572 17.499C14.1572 18.6205 15.066 19.5293 16.1875 19.5293H31.0615C32.183 19.5293 33.0918 18.6205 33.0918 17.499C33.0916 16.3777 32.1829 15.4697 31.0615 15.4697H16.1875ZM16.1875 8.46973C15.066 8.46973 14.1572 9.37852 14.1572 10.5C14.1574 11.6213 15.0662 12.5293 16.1875 12.5293H31.0615C32.1829 12.5293 33.0916 11.6213 33.0918 10.5C33.0918 9.37852 32.183 8.46973 31.0615 8.46973H16.1875Z" fill="url(#paint0_linear_1085_21249)"/>
<path d="M48.2812 54.248C48.2812 55.377 47.057 56.0829 46.082 55.5244H46.0811L40.8252 52.5205L40.6865 52.4414L40.5469 52.5205L35.291 55.5244C34.3119 56.0841 33.0918 55.3741 33.0918 54.248V45.1631C37.6656 48.3198 43.7134 48.3157 48.2812 45.1631V54.248ZM9.48828 0.280273H40.3857C42.3265 0.280443 43.9062 1.85998 43.9062 3.80078V21.1123C32.475 18.2423 23.2238 30.636 29.0527 40.7744C29.0247 41.0358 29.031 41.3406 29.0312 47.8428H9.48828C7.54737 47.8428 5.96777 46.2632 5.96777 44.3223V3.80078C5.96777 1.85987 7.54737 0.280273 9.48828 0.280273ZM40.6865 24.7793C45.8384 24.7795 50.0312 28.9721 50.0312 34.124C50.0311 39.2758 45.8383 43.4686 40.6865 43.4688C35.5346 43.4688 31.342 39.2759 31.3418 34.124C31.3418 28.972 35.5345 24.7793 40.6865 24.7793ZM45 32.7344C46.1883 30.9492 44.1457 28.7808 42.2959 29.8506C42.1822 29.9154 42.0741 29.9743 41.9502 30.0938C41.8335 30.2063 41.7078 30.3675 41.5225 30.6318C41.1641 31.1429 40.5336 32.1106 39.2471 34.042L38.3125 33.4189C37.3793 32.7979 36.1199 33.0489 35.498 33.9814H35.4971C34.8758 34.9147 35.1269 36.175 36.0596 36.7969L38.6846 38.5469C39.615 39.1671 40.8767 38.9192 41.5 37.9844C42.9953 35.7421 42.2023 36.9316 45 32.7344ZM16.1875 22.4688C15.066 22.4688 14.1573 23.3776 14.1572 24.499C14.1572 25.6205 15.066 26.5293 16.1875 26.5293H24.9365C26.058 26.5293 26.9668 25.6205 26.9668 24.499C26.9668 23.3776 26.058 22.4688 24.9365 22.4688H16.1875ZM16.1875 15.4697C15.0661 15.4697 14.1574 16.3777 14.1572 17.499C14.1572 18.6205 15.066 19.5293 16.1875 19.5293H31.0615C32.183 19.5293 33.0918 18.6205 33.0918 17.499C33.0916 16.3777 32.1829 15.4697 31.0615 15.4697H16.1875ZM16.1875 8.46973C15.066 8.46973 14.1572 9.37852 14.1572 10.5C14.1574 11.6213 15.0662 12.5293 16.1875 12.5293H31.0615C32.1829 12.5293 33.0916 11.6213 33.0918 10.5C33.0918 9.37852 32.183 8.46973 31.0615 8.46973H16.1875Z" fill="url(#paint1_radial_1085_21249)" style="mix-blend-mode:overlay"/>
<path d="M48.2812 54.248C48.2812 55.377 47.057 56.0829 46.082 55.5244H46.0811L40.8252 52.5205L40.6865 52.4414L40.5469 52.5205L35.291 55.5244C34.3119 56.0841 33.0918 55.3741 33.0918 54.248V45.1631C37.6656 48.3198 43.7134 48.3157 48.2812 45.1631V54.248ZM9.48828 0.280273H40.3857C42.3265 0.280443 43.9062 1.85998 43.9062 3.80078V21.1123C32.475 18.2423 23.2238 30.636 29.0527 40.7744C29.0247 41.0358 29.031 41.3406 29.0312 47.8428H9.48828C7.54737 47.8428 5.96777 46.2632 5.96777 44.3223V3.80078C5.96777 1.85987 7.54737 0.280273 9.48828 0.280273ZM40.6865 24.7793C45.8384 24.7795 50.0312 28.9721 50.0312 34.124C50.0311 39.2758 45.8383 43.4686 40.6865 43.4688C35.5346 43.4688 31.342 39.2759 31.3418 34.124C31.3418 28.972 35.5345 24.7793 40.6865 24.7793ZM45 32.7344C46.1883 30.9492 44.1457 28.7808 42.2959 29.8506C42.1822 29.9154 42.0741 29.9743 41.9502 30.0938C41.8335 30.2063 41.7078 30.3675 41.5225 30.6318C41.1641 31.1429 40.5336 32.1106 39.2471 34.042L38.3125 33.4189C37.3793 32.7979 36.1199 33.0489 35.498 33.9814H35.4971C34.8758 34.9147 35.1269 36.175 36.0596 36.7969L38.6846 38.5469C39.615 39.1671 40.8767 38.9192 41.5 37.9844C42.9953 35.7421 42.2023 36.9316 45 32.7344ZM16.1875 22.4688C15.066 22.4688 14.1573 23.3776 14.1572 24.499C14.1572 25.6205 15.066 26.5293 16.1875 26.5293H24.9365C26.058 26.5293 26.9668 25.6205 26.9668 24.499C26.9668 23.3776 26.058 22.4688 24.9365 22.4688H16.1875ZM16.1875 15.4697C15.0661 15.4697 14.1574 16.3777 14.1572 17.499C14.1572 18.6205 15.066 19.5293 16.1875 19.5293H31.0615C32.183 19.5293 33.0918 18.6205 33.0918 17.499C33.0916 16.3777 32.1829 15.4697 31.0615 15.4697H16.1875ZM16.1875 8.46973C15.066 8.46973 14.1572 9.37852 14.1572 10.5C14.1574 11.6213 15.0662 12.5293 16.1875 12.5293H31.0615C32.1829 12.5293 33.0916 11.6213 33.0918 10.5C33.0918 9.37852 32.183 8.46973 31.0615 8.46973H16.1875Z" stroke="url(#paint2_linear_1085_21249)" stroke-width="0.56"/>
</g>
<defs>
<linearGradient id="paint0_linear_1085_21249" x1="5.66285" y1="54.2574" x2="62.1038" y2="49.8095" gradientUnits="userSpaceOnUse">
<stop stop-color="#7D4AE2"/>
<stop offset="0.804643" stop-color="#701D38"/>
</linearGradient>
<radialGradient id="paint1_radial_1085_21249" cx="0" cy="0" r="1" gradientTransform="matrix(-8.45188 -70.2373 18.1113 -40.424 27.975 67.5456)" gradientUnits="userSpaceOnUse">
<stop stop-color="#F2D25E"/>
<stop offset="1" stop-color="#F2D25E" stop-opacity="0"/>
</radialGradient>
<linearGradient id="paint2_linear_1085_21249" x1="5.6875" y1="28" x2="50.3108" y2="28" gradientUnits="userSpaceOnUse">
<stop stop-color="#51D1F4"/>
<stop offset="0.25" stop-color="white" stop-opacity="0.1"/>
<stop offset="0.75" stop-color="white" stop-opacity="0.1"/>
<stop offset="1" stop-color="#74288F"/>
</linearGradient>
<clipPath id="clip0_1085_21249">
<rect width="56" height="56" fill="white"/>
</clipPath>
</defs>
</svg>
