<svg width="56" height="56" viewBox="0 0 56 56" fill="none" xmlns="http://www.w3.org/2000/svg">
<g clip-path="url(#clip0_1085_21242)">
<path d="M28 21.8271C29.8387 21.8271 31.3291 23.3175 31.3291 25.1562V34.4531H31.8896C31.8896 32.6144 33.38 31.124 35.2188 31.124C37.0575 31.124 38.5479 32.6144 38.5479 34.4531H39.1084C39.1084 32.6144 40.5988 31.124 42.4375 31.124C44.2762 31.124 45.7666 32.6144 45.7666 34.4531V36.6406H46.3271L46.3311 36.4697C46.42 34.7104 47.8748 33.3115 49.6562 33.3115C51.495 33.3115 52.9854 34.8019 52.9854 36.6406V45.6094C52.9854 49.4592 51.1463 53.1382 48.0664 55.4482C47.831 55.6248 47.5444 55.7197 47.25 55.7197H25.375C24.9096 55.7197 24.4987 55.4865 24.2529 55.1289L24.2383 55.1074L24.2197 55.0889L20.1855 51.0801C18.4487 49.3539 17.4522 46.9576 17.4521 44.5088C17.4521 42.0334 18.4157 39.7074 20.166 37.957L20.8291 37.2939V44.5156C20.8291 45.5763 21.6893 46.4365 22.75 46.4365C23.8107 46.4365 24.6709 45.5763 24.6709 44.5156V25.1562C24.6709 23.3175 26.1613 21.8271 28 21.8271Z" fill="url(#paint0_linear_1085_21242)"/>
<path d="M28 21.8271C29.8387 21.8271 31.3291 23.3175 31.3291 25.1562V34.4531H31.8896C31.8896 32.6144 33.38 31.124 35.2188 31.124C37.0575 31.124 38.5479 32.6144 38.5479 34.4531H39.1084C39.1084 32.6144 40.5988 31.124 42.4375 31.124C44.2762 31.124 45.7666 32.6144 45.7666 34.4531V36.6406H46.3271L46.3311 36.4697C46.42 34.7104 47.8748 33.3115 49.6562 33.3115C51.495 33.3115 52.9854 34.8019 52.9854 36.6406V45.6094C52.9854 49.4592 51.1463 53.1382 48.0664 55.4482C47.831 55.6248 47.5444 55.7197 47.25 55.7197H25.375C24.9096 55.7197 24.4987 55.4865 24.2529 55.1289L24.2383 55.1074L24.2197 55.0889L20.1855 51.0801C18.4487 49.3539 17.4522 46.9576 17.4521 44.5088C17.4521 42.0334 18.4157 39.7074 20.166 37.957L20.8291 37.2939V44.5156C20.8291 45.5763 21.6893 46.4365 22.75 46.4365C23.8107 46.4365 24.6709 45.5763 24.6709 44.5156V25.1562C24.6709 23.3175 26.1613 21.8271 28 21.8271Z" fill="url(#paint1_radial_1085_21242)" style="mix-blend-mode:overlay"/>
<path d="M28 21.8271C29.8387 21.8271 31.3291 23.3175 31.3291 25.1562V34.4531H31.8896C31.8896 32.6144 33.38 31.124 35.2188 31.124C37.0575 31.124 38.5479 32.6144 38.5479 34.4531H39.1084C39.1084 32.6144 40.5988 31.124 42.4375 31.124C44.2762 31.124 45.7666 32.6144 45.7666 34.4531V36.6406H46.3271L46.3311 36.4697C46.42 34.7104 47.8748 33.3115 49.6562 33.3115C51.495 33.3115 52.9854 34.8019 52.9854 36.6406V45.6094C52.9854 49.4592 51.1463 53.1382 48.0664 55.4482C47.831 55.6248 47.5444 55.7197 47.25 55.7197H25.375C24.9096 55.7197 24.4987 55.4865 24.2529 55.1289L24.2383 55.1074L24.2197 55.0889L20.1855 51.0801C18.4487 49.3539 17.4522 46.9576 17.4521 44.5088C17.4521 42.0334 18.4157 39.7074 20.166 37.957L20.8291 37.2939V44.5156C20.8291 45.5763 21.6893 46.4365 22.75 46.4365C23.8107 46.4365 24.6709 45.5763 24.6709 44.5156V25.1562C24.6709 23.3175 26.1613 21.8271 28 21.8271Z" stroke="url(#paint2_linear_1085_21242)" stroke-width="0.56"/>
<path d="M39.1104 12.2393C39.5005 12.2393 39.8184 12.5571 39.8184 12.9473C39.8183 13.3373 39.5004 13.6553 39.1104 13.6553C38.8504 13.6553 38.3174 13.6572 37.7725 13.6592V12.2393H39.1104Z" fill="url(#paint3_linear_1085_21242)"/>
<path d="M39.1104 12.2393C39.5005 12.2393 39.8184 12.5571 39.8184 12.9473C39.8183 13.3373 39.5004 13.6553 39.1104 13.6553C38.8504 13.6553 38.3174 13.6572 37.7725 13.6592V12.2393H39.1104Z" fill="url(#paint4_radial_1085_21242)" style="mix-blend-mode:overlay"/>
<path d="M39.1104 12.2393C39.5005 12.2393 39.8184 12.5571 39.8184 12.9473C39.8183 13.3373 39.5004 13.6553 39.1104 13.6553C38.8504 13.6553 38.3174 13.6572 37.7725 13.6592V12.2393H39.1104Z" stroke="url(#paint5_linear_1085_21242)" stroke-width="0.56"/>
<path d="M3.28125 0.280273H52.7188C54.3763 0.280273 55.7197 1.62366 55.7197 3.28125V18.5938C55.7197 20.2513 54.3763 21.5947 52.7188 21.5947H34.2207C32.9829 19.441 30.6593 17.9854 28 17.9854C25.3407 17.9854 23.017 19.441 21.7793 21.5947H3.28125C1.62366 21.5947 0.280273 20.2513 0.280273 18.5938V3.28125C0.280273 1.62366 1.62366 0.280273 3.28125 0.280273ZM19.4365 5.25879C18.4937 4.90384 17.2949 4.76037 16.0254 5.14258C14.6203 5.56589 13.6096 6.6853 13.4102 8.0752C13.2225 9.38372 13.7912 10.6469 14.8945 11.3662C14.9671 11.4134 15.0431 11.4549 15.1221 11.4902C15.1752 11.514 16.3926 12.0558 17.7637 12.5615C18.0028 12.6498 18.23 12.7667 18.3838 12.8916C18.551 13.0274 18.5568 13.1079 18.5527 13.1309C18.5273 13.2733 18.2375 13.665 17.5752 13.665C16.8536 13.665 16.1742 13.376 15.7539 12.9121C15.1812 12.2801 14.2296 12.1961 13.5576 12.6914L13.4268 12.7979C12.7528 13.4086 12.7019 14.45 13.3125 15.124C14.3725 16.2937 15.9275 16.9599 17.5752 16.96C19.6626 16.96 21.456 15.6132 21.7959 13.71C21.925 12.987 21.8292 12.1543 21.3799 11.3848C20.9293 10.6134 20.1353 9.9252 18.9033 9.4707C17.9536 9.12042 17.0616 8.74069 16.6709 8.57129C16.6704 8.56404 16.6692 8.5547 16.6709 8.54297C16.6804 8.47686 16.7458 8.36613 16.9756 8.29688C17.8344 8.03817 18.495 8.43453 18.665 8.55273C19.1569 9.12606 19.9963 9.30347 20.6904 8.93262C21.4924 8.50396 21.7954 7.50629 21.3672 6.7041C21.0876 6.18078 20.3657 5.60861 19.4365 5.25879ZM31.2041 4.91504C30.2944 4.91518 29.5576 5.65295 29.5576 6.5625V12.5771C29.5576 12.7278 29.5351 12.8661 29.4473 13.0068C29.3796 13.1151 29.2632 13.2413 29.0547 13.375L28.8145 13.5107C28.6124 13.6124 28.3819 13.6617 28.1104 13.6641C27.8979 13.6636 27.7134 13.6264 27.5459 13.5508L27.3838 13.4629C27.0919 13.2765 26.9458 13.127 26.8691 13C26.7967 12.8799 26.7715 12.7554 26.7715 12.583V6.5625C26.7715 5.65285 26.0337 4.91504 25.124 4.91504C24.2144 4.91519 23.4775 5.65296 23.4775 6.5625V12.583C23.4775 14.1102 24.2106 15.3444 25.6094 16.2383V16.2393C26.3563 16.7168 27.1989 16.9588 28.1074 16.96H28.1143C28.8914 16.96 29.6268 16.7902 30.2959 16.4531C31.8341 15.6787 32.7442 14.4083 32.8418 12.8574H32.8516V6.5625C32.8516 5.65284 32.1138 4.91504 31.2041 4.91504ZM36.126 4.91504C35.2164 4.91512 34.4785 5.65289 34.4785 6.5625V15.3125C34.4785 15.7506 34.6536 16.1704 34.9639 16.4795C35.2726 16.7869 35.6905 16.9599 36.126 16.96H36.1318C36.1327 16.96 36.7185 16.9567 37.3818 16.9541C38.0462 16.9515 38.79 16.9492 39.1113 16.9492C41.3183 16.9492 43.114 15.1544 43.1143 12.9473C43.1143 11.859 42.6769 10.871 41.9707 10.1494C42.1989 9.67237 42.3281 9.13908 42.3281 8.57617C42.3281 6.55751 40.6865 4.91514 38.668 4.91504H36.126Z" fill="url(#paint6_linear_1085_21242)"/>
<path d="M3.28125 0.280273H52.7188C54.3763 0.280273 55.7197 1.62366 55.7197 3.28125V18.5938C55.7197 20.2513 54.3763 21.5947 52.7188 21.5947H34.2207C32.9829 19.441 30.6593 17.9854 28 17.9854C25.3407 17.9854 23.017 19.441 21.7793 21.5947H3.28125C1.62366 21.5947 0.280273 20.2513 0.280273 18.5938V3.28125C0.280273 1.62366 1.62366 0.280273 3.28125 0.280273ZM19.4365 5.25879C18.4937 4.90384 17.2949 4.76037 16.0254 5.14258C14.6203 5.56589 13.6096 6.6853 13.4102 8.0752C13.2225 9.38372 13.7912 10.6469 14.8945 11.3662C14.9671 11.4134 15.0431 11.4549 15.1221 11.4902C15.1752 11.514 16.3926 12.0558 17.7637 12.5615C18.0028 12.6498 18.23 12.7667 18.3838 12.8916C18.551 13.0274 18.5568 13.1079 18.5527 13.1309C18.5273 13.2733 18.2375 13.665 17.5752 13.665C16.8536 13.665 16.1742 13.376 15.7539 12.9121C15.1812 12.2801 14.2296 12.1961 13.5576 12.6914L13.4268 12.7979C12.7528 13.4086 12.7019 14.45 13.3125 15.124C14.3725 16.2937 15.9275 16.9599 17.5752 16.96C19.6626 16.96 21.456 15.6132 21.7959 13.71C21.925 12.987 21.8292 12.1543 21.3799 11.3848C20.9293 10.6134 20.1353 9.9252 18.9033 9.4707C17.9536 9.12042 17.0616 8.74069 16.6709 8.57129C16.6704 8.56404 16.6692 8.5547 16.6709 8.54297C16.6804 8.47686 16.7458 8.36613 16.9756 8.29688C17.8344 8.03817 18.495 8.43453 18.665 8.55273C19.1569 9.12606 19.9963 9.30347 20.6904 8.93262C21.4924 8.50396 21.7954 7.50629 21.3672 6.7041C21.0876 6.18078 20.3657 5.60861 19.4365 5.25879ZM31.2041 4.91504C30.2944 4.91518 29.5576 5.65295 29.5576 6.5625V12.5771C29.5576 12.7278 29.5351 12.8661 29.4473 13.0068C29.3796 13.1151 29.2632 13.2413 29.0547 13.375L28.8145 13.5107C28.6124 13.6124 28.3819 13.6617 28.1104 13.6641C27.8979 13.6636 27.7134 13.6264 27.5459 13.5508L27.3838 13.4629C27.0919 13.2765 26.9458 13.127 26.8691 13C26.7967 12.8799 26.7715 12.7554 26.7715 12.583V6.5625C26.7715 5.65285 26.0337 4.91504 25.124 4.91504C24.2144 4.91519 23.4775 5.65296 23.4775 6.5625V12.583C23.4775 14.1102 24.2106 15.3444 25.6094 16.2383V16.2393C26.3563 16.7168 27.1989 16.9588 28.1074 16.96H28.1143C28.8914 16.96 29.6268 16.7902 30.2959 16.4531C31.8341 15.6787 32.7442 14.4083 32.8418 12.8574H32.8516V6.5625C32.8516 5.65284 32.1138 4.91504 31.2041 4.91504ZM36.126 4.91504C35.2164 4.91512 34.4785 5.65289 34.4785 6.5625V15.3125C34.4785 15.7506 34.6536 16.1704 34.9639 16.4795C35.2726 16.7869 35.6905 16.9599 36.126 16.96H36.1318C36.1327 16.96 36.7185 16.9567 37.3818 16.9541C38.0462 16.9515 38.79 16.9492 39.1113 16.9492C41.3183 16.9492 43.114 15.1544 43.1143 12.9473C43.1143 11.859 42.6769 10.871 41.9707 10.1494C42.1989 9.67237 42.3281 9.13908 42.3281 8.57617C42.3281 6.55751 40.6865 4.91514 38.668 4.91504H36.126Z" fill="url(#paint7_radial_1085_21242)" style="mix-blend-mode:overlay"/>
<path d="M3.28125 0.280273H52.7188C54.3763 0.280273 55.7197 1.62366 55.7197 3.28125V18.5938C55.7197 20.2513 54.3763 21.5947 52.7188 21.5947H34.2207C32.9829 19.441 30.6593 17.9854 28 17.9854C25.3407 17.9854 23.017 19.441 21.7793 21.5947H3.28125C1.62366 21.5947 0.280273 20.2513 0.280273 18.5938V3.28125C0.280273 1.62366 1.62366 0.280273 3.28125 0.280273ZM19.4365 5.25879C18.4937 4.90384 17.2949 4.76037 16.0254 5.14258C14.6203 5.56589 13.6096 6.6853 13.4102 8.0752C13.2225 9.38372 13.7912 10.6469 14.8945 11.3662C14.9671 11.4134 15.0431 11.4549 15.1221 11.4902C15.1752 11.514 16.3926 12.0558 17.7637 12.5615C18.0028 12.6498 18.23 12.7667 18.3838 12.8916C18.551 13.0274 18.5568 13.1079 18.5527 13.1309C18.5273 13.2733 18.2375 13.665 17.5752 13.665C16.8536 13.665 16.1742 13.376 15.7539 12.9121C15.1812 12.2801 14.2296 12.1961 13.5576 12.6914L13.4268 12.7979C12.7528 13.4086 12.7019 14.45 13.3125 15.124C14.3725 16.2937 15.9275 16.9599 17.5752 16.96C19.6626 16.96 21.456 15.6132 21.7959 13.71C21.925 12.987 21.8292 12.1543 21.3799 11.3848C20.9293 10.6134 20.1353 9.9252 18.9033 9.4707C17.9536 9.12042 17.0616 8.74069 16.6709 8.57129C16.6704 8.56404 16.6692 8.5547 16.6709 8.54297C16.6804 8.47686 16.7458 8.36613 16.9756 8.29688C17.8344 8.03817 18.495 8.43453 18.665 8.55273C19.1569 9.12606 19.9963 9.30347 20.6904 8.93262C21.4924 8.50396 21.7954 7.50629 21.3672 6.7041C21.0876 6.18078 20.3657 5.60861 19.4365 5.25879ZM31.2041 4.91504C30.2944 4.91518 29.5576 5.65295 29.5576 6.5625V12.5771C29.5576 12.7278 29.5351 12.8661 29.4473 13.0068C29.3796 13.1151 29.2632 13.2413 29.0547 13.375L28.8145 13.5107C28.6124 13.6124 28.3819 13.6617 28.1104 13.6641C27.8979 13.6636 27.7134 13.6264 27.5459 13.5508L27.3838 13.4629C27.0919 13.2765 26.9458 13.127 26.8691 13C26.7967 12.8799 26.7715 12.7554 26.7715 12.583V6.5625C26.7715 5.65285 26.0337 4.91504 25.124 4.91504C24.2144 4.91519 23.4775 5.65296 23.4775 6.5625V12.583C23.4775 14.1102 24.2106 15.3444 25.6094 16.2383V16.2393C26.3563 16.7168 27.1989 16.9588 28.1074 16.96H28.1143C28.8914 16.96 29.6268 16.7902 30.2959 16.4531C31.8341 15.6787 32.7442 14.4083 32.8418 12.8574H32.8516V6.5625C32.8516 5.65284 32.1138 4.91504 31.2041 4.91504ZM36.126 4.91504C35.2164 4.91512 34.4785 5.65289 34.4785 6.5625V15.3125C34.4785 15.7506 34.6536 16.1704 34.9639 16.4795C35.2726 16.7869 35.6905 16.9599 36.126 16.96H36.1318C36.1327 16.96 36.7185 16.9567 37.3818 16.9541C38.0462 16.9515 38.79 16.9492 39.1113 16.9492C41.3183 16.9492 43.114 15.1544 43.1143 12.9473C43.1143 11.859 42.6769 10.871 41.9707 10.1494C42.1989 9.67237 42.3281 9.13908 42.3281 8.57617C42.3281 6.55751 40.6865 4.91514 38.668 4.91504H36.126Z" stroke="url(#paint8_linear_1085_21242)" stroke-width="0.56"/>
<path d="M38.667 8.20996C38.8685 8.21014 39.0332 8.37458 39.0332 8.57617C39.033 8.7776 38.8684 8.9422 38.667 8.94238C38.5741 8.94238 38.2799 8.94276 38.0098 8.94336C37.9264 8.94354 37.8449 8.94319 37.7725 8.94336V8.20996H38.667Z" fill="url(#paint9_linear_1085_21242)"/>
<path d="M38.667 8.20996C38.8685 8.21014 39.0332 8.37458 39.0332 8.57617C39.033 8.7776 38.8684 8.9422 38.667 8.94238C38.5741 8.94238 38.2799 8.94276 38.0098 8.94336C37.9264 8.94354 37.8449 8.94319 37.7725 8.94336V8.20996H38.667Z" fill="url(#paint10_radial_1085_21242)" style="mix-blend-mode:overlay"/>
<path d="M38.667 8.20996C38.8685 8.21014 39.0332 8.37458 39.0332 8.57617C39.033 8.7776 38.8684 8.9422 38.667 8.94238C38.5741 8.94238 38.2799 8.94276 38.0098 8.94336C37.9264 8.94354 37.8449 8.94319 37.7725 8.94336V8.20996H38.667Z" stroke="url(#paint11_linear_1085_21242)" stroke-width="0.56"/>
</g>
<defs>
<linearGradient id="paint0_linear_1085_21242" x1="17.1519" y1="54.9279" x2="62.6001" y2="50.2191" gradientUnits="userSpaceOnUse">
<stop stop-color="#7D4AE2"/>
<stop offset="0.804643" stop-color="#701D38"/>
</linearGradient>
<radialGradient id="paint1_radial_1085_21242" cx="0" cy="0" r="1" gradientTransform="matrix(-6.83633 -43.2124 14.6494 -24.8703 35.1992 63.1032)" gradientUnits="userSpaceOnUse">
<stop stop-color="#F2D25E"/>
<stop offset="1" stop-color="#F2D25E" stop-opacity="0"/>
</radialGradient>
<linearGradient id="paint2_linear_1085_21242" x1="17.1719" y1="38.7734" x2="53.2656" y2="38.7734" gradientUnits="userSpaceOnUse">
<stop stop-color="#51D1F4"/>
<stop offset="0.25" stop-color="white" stop-opacity="0.1"/>
<stop offset="0.75" stop-color="white" stop-opacity="0.1"/>
<stop offset="1" stop-color="#74288F"/>
</linearGradient>
<linearGradient id="paint3_linear_1085_21242" x1="37.4907" y1="13.8782" x2="40.7527" y2="13.4538" gradientUnits="userSpaceOnUse">
<stop stop-color="#7D4AE2"/>
<stop offset="0.804643" stop-color="#701D38"/>
</linearGradient>
<radialGradient id="paint4_radial_1085_21242" cx="0" cy="0" r="1" gradientTransform="matrix(-0.493666 -2.48451 1.05787 -1.42992 38.794 14.3483)" gradientUnits="userSpaceOnUse">
<stop stop-color="#F2D25E"/>
<stop offset="1" stop-color="#F2D25E" stop-opacity="0"/>
</radialGradient>
<linearGradient id="paint5_linear_1085_21242" x1="37.4922" y1="12.9494" x2="40.0986" y2="12.9494" gradientUnits="userSpaceOnUse">
<stop stop-color="#51D1F4"/>
<stop offset="0.25" stop-color="white" stop-opacity="0.1"/>
<stop offset="0.75" stop-color="white" stop-opacity="0.1"/>
<stop offset="1" stop-color="#74288F"/>
</linearGradient>
<linearGradient id="paint6_linear_1085_21242" x1="-0.0309341" y1="21.1943" x2="66.9462" y2="4.23688" gradientUnits="userSpaceOnUse">
<stop stop-color="#7D4AE2"/>
<stop offset="0.804643" stop-color="#701D38"/>
</linearGradient>
<radialGradient id="paint7_radial_1085_21242" cx="0" cy="0" r="1" gradientTransform="matrix(-10.6067 -27.4364 22.7288 -15.7906 27.9697 26.385)" gradientUnits="userSpaceOnUse">
<stop stop-color="#F2D25E"/>
<stop offset="1" stop-color="#F2D25E" stop-opacity="0"/>
</radialGradient>
<linearGradient id="paint8_linear_1085_21242" x1="0" y1="10.9375" x2="56" y2="10.9375" gradientUnits="userSpaceOnUse">
<stop stop-color="#51D1F4"/>
<stop offset="0.25" stop-color="white" stop-opacity="0.1"/>
<stop offset="0.75" stop-color="white" stop-opacity="0.1"/>
<stop offset="1" stop-color="#74288F"/>
</linearGradient>
<linearGradient id="paint9_linear_1085_21242" x1="37.4912" y1="9.18418" x2="39.7643" y2="8.86806" gradientUnits="userSpaceOnUse">
<stop stop-color="#7D4AE2"/>
<stop offset="0.804643" stop-color="#701D38"/>
</linearGradient>
<radialGradient id="paint10_radial_1085_21242" cx="0" cy="0" r="1" gradientTransform="matrix(-0.344841 -1.62396 0.738951 -0.934648 38.4015 9.49141)" gradientUnits="userSpaceOnUse">
<stop stop-color="#F2D25E"/>
<stop offset="1" stop-color="#F2D25E" stop-opacity="0"/>
</radialGradient>
<linearGradient id="paint11_linear_1085_21242" x1="37.4922" y1="8.57708" x2="39.3128" y2="8.57708" gradientUnits="userSpaceOnUse">
<stop stop-color="#51D1F4"/>
<stop offset="0.25" stop-color="white" stop-opacity="0.1"/>
<stop offset="0.75" stop-color="white" stop-opacity="0.1"/>
<stop offset="1" stop-color="#74288F"/>
</linearGradient>
<clipPath id="clip0_1085_21242">
<rect width="56" height="56" fill="white"/>
</clipPath>
</defs>
</svg>
