<svg width="56" height="56" viewBox="0 0 56 56" fill="none" xmlns="http://www.w3.org/2000/svg">
<path d="M12.835 35.2803H15.168C16.6293 35.2803 17.9859 35.6752 19.1543 36.3613C16.5487 38.551 14.8877 41.8316 14.8877 45.5V48.7197H8.16797C6.38594 48.7197 4.94824 47.282 4.94824 45.5V43.167C4.94824 38.8066 8.4746 35.2803 12.835 35.2803Z" fill="url(#paint0_linear_1085_16638)"/>
<path d="M12.835 35.2803H15.168C16.6293 35.2803 17.9859 35.6752 19.1543 36.3613C16.5487 38.551 14.8877 41.8316 14.8877 45.5V48.7197H8.16797C6.38594 48.7197 4.94824 47.282 4.94824 45.5V43.167C4.94824 38.8066 8.4746 35.2803 12.835 35.2803Z" fill="url(#paint1_radial_1085_16638)" style="mix-blend-mode:overlay"/>
<path d="M12.835 35.2803H15.168C16.6293 35.2803 17.9859 35.6752 19.1543 36.3613C16.5487 38.551 14.8877 41.8316 14.8877 45.5V48.7197H8.16797C6.38594 48.7197 4.94824 47.282 4.94824 45.5V43.167C4.94824 38.8066 8.4746 35.2803 12.835 35.2803Z" stroke="url(#paint2_linear_1085_16638)" stroke-width="0.56"/>
<path d="M42 24.7803C44.7449 24.7803 46.9697 27.0051 46.9697 29.75C46.9697 32.4949 44.7449 34.7197 42 34.7197C39.2551 34.7197 37.0303 32.4949 37.0303 29.75C37.0303 27.0051 39.2551 24.7803 42 24.7803Z" fill="url(#paint3_linear_1085_16638)"/>
<path d="M42 24.7803C44.7449 24.7803 46.9697 27.0051 46.9697 29.75C46.9697 32.4949 44.7449 34.7197 42 34.7197C39.2551 34.7197 37.0303 32.4949 37.0303 29.75C37.0303 27.0051 39.2551 24.7803 42 24.7803Z" fill="url(#paint4_radial_1085_16638)" style="mix-blend-mode:overlay"/>
<path d="M42 24.7803C44.7449 24.7803 46.9697 27.0051 46.9697 29.75C46.9697 32.4949 44.7449 34.7197 42 34.7197C39.2551 34.7197 37.0303 32.4949 37.0303 29.75C37.0303 27.0051 39.2551 24.7803 42 24.7803Z" stroke="url(#paint5_linear_1085_16638)" stroke-width="0.56"/>
<path d="M14 24.7803C16.7449 24.7803 18.9697 27.0051 18.9697 29.75C18.9697 32.4949 16.7449 34.7197 14 34.7197C11.2551 34.7197 9.03027 32.4949 9.03027 29.75C9.03027 27.0051 11.2551 24.7803 14 24.7803Z" fill="url(#paint6_linear_1085_16638)"/>
<path d="M14 24.7803C16.7449 24.7803 18.9697 27.0051 18.9697 29.75C18.9697 32.4949 16.7449 34.7197 14 34.7197C11.2551 34.7197 9.03027 32.4949 9.03027 29.75C9.03027 27.0051 11.2551 24.7803 14 24.7803Z" fill="url(#paint7_radial_1085_16638)" style="mix-blend-mode:overlay"/>
<path d="M14 24.7803C16.7449 24.7803 18.9697 27.0051 18.9697 29.75C18.9697 32.4949 16.7449 34.7197 14 34.7197C11.2551 34.7197 9.03027 32.4949 9.03027 29.75C9.03027 27.0051 11.2551 24.7803 14 24.7803Z" stroke="url(#paint8_linear_1085_16638)" stroke-width="0.56"/>
<path d="M40.832 35.2803H43.165C47.5254 35.2803 51.0518 38.8067 51.0518 43.167V45.5C51.0518 47.2819 49.6139 48.7195 47.832 48.7197H41.1113V45.5C41.1113 41.8314 39.4505 38.5511 36.8447 36.3613C38.0132 35.675 39.3706 35.2803 40.832 35.2803Z" fill="url(#paint9_linear_1085_16638)"/>
<path d="M40.832 35.2803H43.165C47.5254 35.2803 51.0518 38.8067 51.0518 43.167V45.5C51.0518 47.2819 49.6139 48.7195 47.832 48.7197H41.1113V45.5C41.1113 41.8314 39.4505 38.5511 36.8447 36.3613C38.0132 35.675 39.3706 35.2803 40.832 35.2803Z" fill="url(#paint10_radial_1085_16638)" style="mix-blend-mode:overlay"/>
<path d="M40.832 35.2803H43.165C47.5254 35.2803 51.0518 38.8067 51.0518 43.167V45.5C51.0518 47.2819 49.6139 48.7195 47.832 48.7197H41.1113V45.5C41.1113 41.8314 39.4505 38.5511 36.8447 36.3613C38.0132 35.675 39.3706 35.2803 40.832 35.2803Z" stroke="url(#paint11_linear_1085_16638)" stroke-width="0.56"/>
<path d="M27.999 23.6135C31.3881 23.6137 34.1357 26.3612 34.1357 29.7502C34.1356 33.1392 31.388 35.8868 27.999 35.887C24.6099 35.887 21.8625 33.1393 21.8623 29.7502C21.8623 26.3611 24.6098 23.6135 27.999 23.6135Z" fill="url(#paint12_linear_1085_16638)"/>
<path d="M27.999 23.6135C31.3881 23.6137 34.1357 26.3612 34.1357 29.7502C34.1356 33.1392 31.388 35.8868 27.999 35.887C24.6099 35.887 21.8625 33.1393 21.8623 29.7502C21.8623 26.3611 24.6098 23.6135 27.999 23.6135Z" fill="url(#paint13_radial_1085_16638)" style="mix-blend-mode:overlay"/>
<path d="M27.999 23.6135C31.3881 23.6137 34.1357 26.3612 34.1357 29.7502C34.1356 33.1392 31.388 35.8868 27.999 35.887C24.6099 35.887 21.8625 33.1393 21.8623 29.7502C21.8623 26.3611 24.6098 23.6135 27.999 23.6135Z" stroke="url(#paint14_linear_1085_16638)" stroke-width="0.56"/>
<path d="M26.833 36.447H29.167C34.1583 36.4472 38.2195 40.5085 38.2197 45.4998V48.9998C38.2197 50.7748 36.775 52.2205 35 52.2205H21C19.225 52.2205 17.7803 50.7748 17.7803 48.9998V45.4998C17.7805 40.5085 21.8417 36.4472 26.833 36.447Z" fill="url(#paint15_linear_1085_16638)"/>
<path d="M26.833 36.447H29.167C34.1583 36.4472 38.2195 40.5085 38.2197 45.4998V48.9998C38.2197 50.7748 36.775 52.2205 35 52.2205H21C19.225 52.2205 17.7803 50.7748 17.7803 48.9998V45.4998C17.7805 40.5085 21.8417 36.4472 26.833 36.447Z" fill="url(#paint16_radial_1085_16638)" style="mix-blend-mode:overlay"/>
<path d="M26.833 36.447H29.167C34.1583 36.4472 38.2195 40.5085 38.2197 45.4998V48.9998C38.2197 50.7748 36.775 52.2205 35 52.2205H21C19.225 52.2205 17.7803 50.7748 17.7803 48.9998V45.4998C17.7805 40.5085 21.8417 36.4472 26.833 36.447Z" stroke="url(#paint17_linear_1085_16638)" stroke-width="0.56"/>
<path d="M44.1523 8.896C44.5206 8.35933 45.3123 8.35944 45.6807 8.896L47.3701 11.3608L47.4268 11.4429L47.5225 11.4712L50.3887 12.3159C51.0126 12.4994 51.2575 13.2536 50.8604 13.77L49.0381 16.1382L48.9775 16.2173L48.9805 16.3169L49.0625 19.3032C49.0804 19.9533 48.4387 20.4199 47.8262 20.2026L45.0107 19.2017L44.917 19.1675L44.8232 19.2017L42.0078 20.2017C41.3937 20.4194 40.7536 19.9545 40.7715 19.3032L40.8535 16.3169L40.8564 16.2173L40.7949 16.1382L38.9727 13.77C38.6007 13.2861 38.7927 12.5935 39.333 12.3569L39.4453 12.3159L42.3115 11.4712L42.4072 11.4429L42.4629 11.3608L44.1523 8.896Z" fill="url(#paint18_linear_1085_16638)"/>
<path d="M44.1523 8.896C44.5206 8.35933 45.3123 8.35944 45.6807 8.896L47.3701 11.3608L47.4268 11.4429L47.5225 11.4712L50.3887 12.3159C51.0126 12.4994 51.2575 13.2536 50.8604 13.77L49.0381 16.1382L48.9775 16.2173L48.9805 16.3169L49.0625 19.3032C49.0804 19.9533 48.4387 20.4199 47.8262 20.2026L45.0107 19.2017L44.917 19.1675L44.8232 19.2017L42.0078 20.2017C41.3937 20.4194 40.7536 19.9545 40.7715 19.3032L40.8535 16.3169L40.8564 16.2173L40.7949 16.1382L38.9727 13.77C38.6007 13.2861 38.7927 12.5935 39.333 12.3569L39.4453 12.3159L42.3115 11.4712L42.4072 11.4429L42.4629 11.3608L44.1523 8.896Z" fill="url(#paint19_radial_1085_16638)" style="mix-blend-mode:overlay"/>
<path d="M44.1523 8.896C44.5206 8.35933 45.3123 8.35944 45.6807 8.896L47.3701 11.3608L47.4268 11.4429L47.5225 11.4712L50.3887 12.3159C51.0126 12.4994 51.2575 13.2536 50.8604 13.77L49.0381 16.1382L48.9775 16.2173L48.9805 16.3169L49.0625 19.3032C49.0804 19.9533 48.4387 20.4199 47.8262 20.2026L45.0107 19.2017L44.917 19.1675L44.8232 19.2017L42.0078 20.2017C41.3937 20.4194 40.7536 19.9545 40.7715 19.3032L40.8535 16.3169L40.8564 16.2173L40.7949 16.1382L38.9727 13.77C38.6007 13.2861 38.7927 12.5935 39.333 12.3569L39.4453 12.3159L42.3115 11.4712L42.4072 11.4429L42.4629 11.3608L44.1523 8.896Z" stroke="url(#paint20_linear_1085_16638)" stroke-width="0.56"/>
<path d="M10.3203 8.896C10.6885 8.35933 11.4803 8.35944 11.8486 8.896L13.5381 11.3608L13.5947 11.4429L13.6904 11.4712L16.5566 12.3159C17.1805 12.4994 17.4255 13.2536 17.0283 13.77L15.2061 16.1382L15.1455 16.2173L15.1484 16.3169L15.2305 19.3032C15.2484 19.9533 14.6067 20.4199 13.9941 20.2026L11.1787 19.2017L11.085 19.1675L10.9912 19.2017L8.17578 20.2017C7.56171 20.4194 6.92154 19.9545 6.93945 19.3032L7.02148 16.3169L7.02441 16.2173L6.96289 16.1382L5.14062 13.77C4.76864 13.2861 4.96071 12.5935 5.50098 12.3569L5.61328 12.3159L8.47949 11.4712L8.5752 11.4429L8.63086 11.3608L10.3203 8.896Z" fill="url(#paint21_linear_1085_16638)"/>
<path d="M10.3203 8.896C10.6885 8.35933 11.4803 8.35944 11.8486 8.896L13.5381 11.3608L13.5947 11.4429L13.6904 11.4712L16.5566 12.3159C17.1805 12.4994 17.4255 13.2536 17.0283 13.77L15.2061 16.1382L15.1455 16.2173L15.1484 16.3169L15.2305 19.3032C15.2484 19.9533 14.6067 20.4199 13.9941 20.2026L11.1787 19.2017L11.085 19.1675L10.9912 19.2017L8.17578 20.2017C7.56171 20.4194 6.92154 19.9545 6.93945 19.3032L7.02148 16.3169L7.02441 16.2173L6.96289 16.1382L5.14062 13.77C4.76864 13.2861 4.96071 12.5935 5.50098 12.3569L5.61328 12.3159L8.47949 11.4712L8.5752 11.4429L8.63086 11.3608L10.3203 8.896Z" fill="url(#paint22_radial_1085_16638)" style="mix-blend-mode:overlay"/>
<path d="M10.3203 8.896C10.6885 8.35933 11.4803 8.35944 11.8486 8.896L13.5381 11.3608L13.5947 11.4429L13.6904 11.4712L16.5566 12.3159C17.1805 12.4994 17.4255 13.2536 17.0283 13.77L15.2061 16.1382L15.1455 16.2173L15.1484 16.3169L15.2305 19.3032C15.2484 19.9533 14.6067 20.4199 13.9941 20.2026L11.1787 19.2017L11.085 19.1675L10.9912 19.2017L8.17578 20.2017C7.56171 20.4194 6.92154 19.9545 6.93945 19.3032L7.02148 16.3169L7.02441 16.2173L6.96289 16.1382L5.14062 13.77C4.76864 13.2861 4.96071 12.5935 5.50098 12.3569L5.61328 12.3159L8.47949 11.4712L8.5752 11.4429L8.63086 11.3608L10.3203 8.896Z" stroke="url(#paint23_linear_1085_16638)" stroke-width="0.56"/>
<path d="M27.0498 4.27856C27.5068 3.61148 28.4913 3.61145 28.9482 4.27856L30.9512 7.20142L31.0078 7.28345L31.1025 7.31177L34.501 8.31372C35.2761 8.54269 35.5806 9.47844 35.0879 10.1194L32.9268 12.927L32.8662 13.0061L32.8691 13.1057L32.9658 16.6467C32.9882 17.4545 32.1921 18.0327 31.4316 17.762H31.4307L28.0918 16.5754L27.998 16.5422L27.9043 16.5754L24.5664 17.762C23.8048 18.033 23.0089 17.4545 23.0312 16.6467L23.1289 13.1057L23.1309 13.0061L23.0703 12.927L20.9102 10.1194C20.4176 9.47854 20.7212 8.54287 21.4961 8.31372L24.8945 7.31177L24.9902 7.28345L25.0469 7.20142L27.0498 4.27856Z" fill="url(#paint24_linear_1085_16638)"/>
<path d="M27.0498 4.27856C27.5068 3.61148 28.4913 3.61145 28.9482 4.27856L30.9512 7.20142L31.0078 7.28345L31.1025 7.31177L34.501 8.31372C35.2761 8.54269 35.5806 9.47844 35.0879 10.1194L32.9268 12.927L32.8662 13.0061L32.8691 13.1057L32.9658 16.6467C32.9882 17.4545 32.1921 18.0327 31.4316 17.762H31.4307L28.0918 16.5754L27.998 16.5422L27.9043 16.5754L24.5664 17.762C23.8048 18.033 23.0089 17.4545 23.0312 16.6467L23.1289 13.1057L23.1309 13.0061L23.0703 12.927L20.9102 10.1194C20.4176 9.47854 20.7212 8.54287 21.4961 8.31372L24.8945 7.31177L24.9902 7.28345L25.0469 7.20142L27.0498 4.27856Z" fill="url(#paint25_radial_1085_16638)" style="mix-blend-mode:overlay"/>
<path d="M27.0498 4.27856C27.5068 3.61148 28.4913 3.61145 28.9482 4.27856L30.9512 7.20142L31.0078 7.28345L31.1025 7.31177L34.501 8.31372C35.2761 8.54269 35.5806 9.47844 35.0879 10.1194L32.9268 12.927L32.8662 13.0061L32.8691 13.1057L32.9658 16.6467C32.9882 17.4545 32.1921 18.0327 31.4316 17.762H31.4307L28.0918 16.5754L27.998 16.5422L27.9043 16.5754L24.5664 17.762C23.8048 18.033 23.0089 17.4545 23.0312 16.6467L23.1289 13.1057L23.1309 13.0061L23.0703 12.927L20.9102 10.1194C20.4176 9.47854 20.7212 8.54287 21.4961 8.31372L24.8945 7.31177L24.9902 7.28345L25.0469 7.20142L27.0498 4.27856Z" stroke="url(#paint26_linear_1085_16638)" stroke-width="0.56"/>
<defs>
<linearGradient id="paint0_linear_1085_16638" x1="4.6597" y1="48.5644" x2="23.4991" y2="46.5723" gradientUnits="userSpaceOnUse">
<stop stop-color="#7D4AE2"/>
<stop offset="0.804643" stop-color="#701D38"/>
</linearGradient>
<radialGradient id="paint1_radial_1085_16638" cx="0" cy="0" r="1" gradientTransform="matrix(-2.83508 -17.5593 6.07521 -10.106 12.144 51.8864)" gradientUnits="userSpaceOnUse">
<stop stop-color="#F2D25E"/>
<stop offset="1" stop-color="#F2D25E" stop-opacity="0"/>
</radialGradient>
<linearGradient id="paint2_linear_1085_16638" x1="4.66797" y1="42" x2="19.6363" y2="42" gradientUnits="userSpaceOnUse">
<stop stop-color="#51D1F4"/>
<stop offset="0.25" stop-color="white" stop-opacity="0.1"/>
<stop offset="0.75" stop-color="white" stop-opacity="0.1"/>
<stop offset="1" stop-color="#74288F"/>
</linearGradient>
<linearGradient id="paint3_linear_1085_16638" x1="36.7442" y1="34.6733" x2="49.978" y2="33.3645" gradientUnits="userSpaceOnUse">
<stop stop-color="#7D4AE2"/>
<stop offset="0.804643" stop-color="#701D38"/>
</linearGradient>
<radialGradient id="paint4_radial_1085_16638" cx="0" cy="0" r="1" gradientTransform="matrix(-1.98875 -13.1695 4.26165 -7.57951 41.9943 37.1648)" gradientUnits="userSpaceOnUse">
<stop stop-color="#F2D25E"/>
<stop offset="1" stop-color="#F2D25E" stop-opacity="0"/>
</radialGradient>
<linearGradient id="paint5_linear_1085_16638" x1="36.75" y1="29.75" x2="47.25" y2="29.75" gradientUnits="userSpaceOnUse">
<stop stop-color="#51D1F4"/>
<stop offset="0.25" stop-color="white" stop-opacity="0.1"/>
<stop offset="0.75" stop-color="white" stop-opacity="0.1"/>
<stop offset="1" stop-color="#74288F"/>
</linearGradient>
<linearGradient id="paint6_linear_1085_16638" x1="8.7442" y1="34.6733" x2="21.978" y2="33.3645" gradientUnits="userSpaceOnUse">
<stop stop-color="#7D4AE2"/>
<stop offset="0.804643" stop-color="#701D38"/>
</linearGradient>
<radialGradient id="paint7_radial_1085_16638" cx="0" cy="0" r="1" gradientTransform="matrix(-1.98875 -13.1695 4.26165 -7.57951 13.9943 37.1648)" gradientUnits="userSpaceOnUse">
<stop stop-color="#F2D25E"/>
<stop offset="1" stop-color="#F2D25E" stop-opacity="0"/>
</radialGradient>
<linearGradient id="paint8_linear_1085_16638" x1="8.75" y1="29.75" x2="19.25" y2="29.75" gradientUnits="userSpaceOnUse">
<stop stop-color="#51D1F4"/>
<stop offset="0.25" stop-color="white" stop-opacity="0.1"/>
<stop offset="0.75" stop-color="white" stop-opacity="0.1"/>
<stop offset="1" stop-color="#74288F"/>
</linearGradient>
<linearGradient id="paint9_linear_1085_16638" x1="36.355" y1="48.5644" x2="55.1944" y2="46.5723" gradientUnits="userSpaceOnUse">
<stop stop-color="#7D4AE2"/>
<stop offset="0.804643" stop-color="#701D38"/>
</linearGradient>
<radialGradient id="paint10_radial_1085_16638" cx="0" cy="0" r="1" gradientTransform="matrix(-2.83508 -17.5593 6.07521 -10.106 43.8393 51.8864)" gradientUnits="userSpaceOnUse">
<stop stop-color="#F2D25E"/>
<stop offset="1" stop-color="#F2D25E" stop-opacity="0"/>
</radialGradient>
<linearGradient id="paint11_linear_1085_16638" x1="36.3633" y1="42" x2="51.3316" y2="42" gradientUnits="userSpaceOnUse">
<stop stop-color="#51D1F4"/>
<stop offset="0.25" stop-color="white" stop-opacity="0.1"/>
<stop offset="0.75" stop-color="white" stop-opacity="0.1"/>
<stop offset="1" stop-color="#74288F"/>
</linearGradient>
<linearGradient id="paint12_linear_1085_16638" x1="21.5749" y1="35.7672" x2="37.7495" y2="34.1676" gradientUnits="userSpaceOnUse">
<stop stop-color="#7D4AE2"/>
<stop offset="0.804643" stop-color="#701D38"/>
</linearGradient>
<radialGradient id="paint13_radial_1085_16638" cx="0" cy="0" r="1" gradientTransform="matrix(-2.4307 -16.096 5.20868 -9.26384 27.9917 38.8124)" gradientUnits="userSpaceOnUse">
<stop stop-color="#F2D25E"/>
<stop offset="1" stop-color="#F2D25E" stop-opacity="0"/>
</radialGradient>
<linearGradient id="paint14_linear_1085_16638" x1="21.582" y1="29.7499" x2="34.4154" y2="29.7499" gradientUnits="userSpaceOnUse">
<stop stop-color="#51D1F4"/>
<stop offset="0.25" stop-color="white" stop-opacity="0.1"/>
<stop offset="0.75" stop-color="white" stop-opacity="0.1"/>
<stop offset="1" stop-color="#74288F"/>
</linearGradient>
<linearGradient id="paint15_linear_1085_16638" x1="17.4884" y1="51.9918" x2="43.7896" y2="48.6475" gradientUnits="userSpaceOnUse">
<stop stop-color="#7D4AE2"/>
<stop offset="0.804643" stop-color="#701D38"/>
</linearGradient>
<radialGradient id="paint16_radial_1085_16638" cx="0" cy="0" r="1" gradientTransform="matrix(-3.9775 -20.4859 8.52329 -11.7903 27.9886 55.8675)" gradientUnits="userSpaceOnUse">
<stop stop-color="#F2D25E"/>
<stop offset="1" stop-color="#F2D25E" stop-opacity="0"/>
</radialGradient>
<linearGradient id="paint17_linear_1085_16638" x1="17.5" y1="44.3334" x2="38.5" y2="44.3334" gradientUnits="userSpaceOnUse">
<stop stop-color="#51D1F4"/>
<stop offset="0.25" stop-color="white" stop-opacity="0.1"/>
<stop offset="0.75" stop-color="white" stop-opacity="0.1"/>
<stop offset="1" stop-color="#74288F"/>
</linearGradient>
<linearGradient id="paint18_linear_1085_16638" x1="38.4929" y1="20.1532" x2="54.6547" y2="18.4886" gradientUnits="userSpaceOnUse">
<stop stop-color="#7D4AE2"/>
<stop offset="0.804643" stop-color="#701D38"/>
</linearGradient>
<radialGradient id="paint19_radial_1085_16638" cx="0" cy="0" r="1" gradientTransform="matrix(-2.43076 -15.4564 5.20882 -8.89567 44.9099 23.0774)" gradientUnits="userSpaceOnUse">
<stop stop-color="#F2D25E"/>
<stop offset="1" stop-color="#F2D25E" stop-opacity="0"/>
</radialGradient>
<linearGradient id="paint20_linear_1085_16638" x1="38.5" y1="14.375" x2="51.3337" y2="14.375" gradientUnits="userSpaceOnUse">
<stop stop-color="#51D1F4"/>
<stop offset="0.25" stop-color="white" stop-opacity="0.1"/>
<stop offset="0.75" stop-color="white" stop-opacity="0.1"/>
<stop offset="1" stop-color="#74288F"/>
</linearGradient>
<linearGradient id="paint21_linear_1085_16638" x1="4.66088" y1="20.1532" x2="20.8227" y2="18.4886" gradientUnits="userSpaceOnUse">
<stop stop-color="#7D4AE2"/>
<stop offset="0.804643" stop-color="#701D38"/>
</linearGradient>
<radialGradient id="paint22_radial_1085_16638" cx="0" cy="0" r="1" gradientTransform="matrix(-2.43076 -15.4564 5.20882 -8.89567 11.0779 23.0774)" gradientUnits="userSpaceOnUse">
<stop stop-color="#F2D25E"/>
<stop offset="1" stop-color="#F2D25E" stop-opacity="0"/>
</radialGradient>
<linearGradient id="paint23_linear_1085_16638" x1="4.66797" y1="14.375" x2="17.5017" y2="14.375" gradientUnits="userSpaceOnUse">
<stop stop-color="#51D1F4"/>
<stop offset="0.25" stop-color="white" stop-opacity="0.1"/>
<stop offset="0.75" stop-color="white" stop-opacity="0.1"/>
<stop offset="1" stop-color="#74288F"/>
</linearGradient>
<linearGradient id="paint24_linear_1085_16638" x1="20.3822" y1="17.6553" x2="39.5448" y2="15.6817" gradientUnits="userSpaceOnUse">
<stop stop-color="#7D4AE2"/>
<stop offset="0.804643" stop-color="#701D38"/>
</linearGradient>
<radialGradient id="paint25_radial_1085_16638" cx="0" cy="0" r="1" gradientTransform="matrix(-2.88208 -18.3266 6.17594 -10.5476 27.9906 21.1225)" gradientUnits="userSpaceOnUse">
<stop stop-color="#F2D25E"/>
<stop offset="1" stop-color="#F2D25E" stop-opacity="0"/>
</radialGradient>
<linearGradient id="paint26_linear_1085_16638" x1="20.3906" y1="10.8042" x2="35.6071" y2="10.8042" gradientUnits="userSpaceOnUse">
<stop stop-color="#51D1F4"/>
<stop offset="0.25" stop-color="white" stop-opacity="0.1"/>
<stop offset="0.75" stop-color="white" stop-opacity="0.1"/>
<stop offset="1" stop-color="#74288F"/>
</linearGradient>
</defs>
</svg>
