<svg width="56" height="56" viewBox="0 0 56 56" fill="none" xmlns="http://www.w3.org/2000/svg">
<g clip-path="url(#clip0_1085_16659)">
<path d="M1.55566 36.1067H7.77734C8.48189 36.1067 9.05371 36.6778 9.05371 37.3821V52.9377C9.05349 53.642 8.48162 54.2131 7.77734 54.2131H1.55566C0.851427 54.2131 0.280493 53.6419 0.280273 52.9377V37.3821C0.280273 36.6778 0.851158 36.1067 1.55566 36.1067Z" fill="url(#paint0_linear_1085_16659)"/>
<path d="M1.55566 36.1067H7.77734C8.48189 36.1067 9.05371 36.6778 9.05371 37.3821V52.9377C9.05349 53.642 8.48162 54.2131 7.77734 54.2131H1.55566C0.851427 54.2131 0.280493 53.6419 0.280273 52.9377V37.3821C0.280273 36.6778 0.851158 36.1067 1.55566 36.1067Z" fill="url(#paint1_radial_1085_16659)" style="mix-blend-mode:overlay"/>
<path d="M1.55566 36.1067H7.77734C8.48189 36.1067 9.05371 36.6778 9.05371 37.3821V52.9377C9.05349 53.642 8.48162 54.2131 7.77734 54.2131H1.55566C0.851427 54.2131 0.280493 53.6419 0.280273 52.9377V37.3821C0.280273 36.6778 0.851158 36.1067 1.55566 36.1067Z" stroke="url(#paint2_linear_1085_16659)" stroke-width="0.56"/>
<path d="M17.1143 23.6621H23.3359C24.0403 23.6621 24.6123 24.2331 24.6123 24.9375V52.9375C24.6123 53.6419 24.0403 54.2129 23.3359 54.2129H17.1143C16.41 54.2129 15.8389 53.642 15.8389 52.9375V24.9375C15.8389 24.233 16.41 23.6621 17.1143 23.6621Z" fill="url(#paint3_linear_1085_16659)"/>
<path d="M17.1143 23.6621H23.3359C24.0403 23.6621 24.6123 24.2331 24.6123 24.9375V52.9375C24.6123 53.6419 24.0403 54.2129 23.3359 54.2129H17.1143C16.41 54.2129 15.8389 53.642 15.8389 52.9375V24.9375C15.8389 24.233 16.41 23.6621 17.1143 23.6621Z" fill="url(#paint4_radial_1085_16659)" style="mix-blend-mode:overlay"/>
<path d="M17.1143 23.6621H23.3359C24.0403 23.6621 24.6123 24.2331 24.6123 24.9375V52.9375C24.6123 53.6419 24.0403 54.2129 23.3359 54.2129H17.1143C16.41 54.2129 15.8389 53.642 15.8389 52.9375V24.9375C15.8389 24.233 16.41 23.6621 17.1143 23.6621Z" stroke="url(#paint5_linear_1085_16659)" stroke-width="0.56"/>
<path d="M32.665 29.8845H38.8877C39.5919 29.8846 40.163 30.4555 40.1631 31.1599V52.9373C40.1631 53.6417 39.5919 54.2135 38.8877 54.2136H32.665C31.9607 54.2136 31.3896 53.6416 31.3896 52.9373V31.1599C31.3897 30.4556 31.9607 29.8846 32.665 29.8845Z" fill="url(#paint6_linear_1085_16659)"/>
<path d="M32.665 29.8845H38.8877C39.5919 29.8846 40.163 30.4555 40.1631 31.1599V52.9373C40.1631 53.6417 39.5919 54.2135 38.8877 54.2136H32.665C31.9607 54.2136 31.3896 53.6416 31.3896 52.9373V31.1599C31.3897 30.4556 31.9607 29.8846 32.665 29.8845Z" fill="url(#paint7_radial_1085_16659)" style="mix-blend-mode:overlay"/>
<path d="M32.665 29.8845H38.8877C39.5919 29.8846 40.163 30.4555 40.1631 31.1599V52.9373C40.1631 53.6417 39.5919 54.2135 38.8877 54.2136H32.665C31.9607 54.2136 31.3896 53.6416 31.3896 52.9373V31.1599C31.3897 30.4556 31.9607 29.8846 32.665 29.8845Z" stroke="url(#paint8_linear_1085_16659)" stroke-width="0.56"/>
<path d="M48.2236 20.551H54.4453C55.1497 20.551 55.7216 21.122 55.7217 21.8264V52.9377C55.7215 53.642 55.1496 54.2131 54.4453 54.2131H48.2236C47.5194 54.2131 46.9484 53.642 46.9482 52.9377V21.8264C46.9483 21.1221 47.5193 20.5511 48.2236 20.551Z" fill="url(#paint9_linear_1085_16659)"/>
<path d="M48.2236 20.551H54.4453C55.1497 20.551 55.7216 21.122 55.7217 21.8264V52.9377C55.7215 53.642 55.1496 54.2131 54.4453 54.2131H48.2236C47.5194 54.2131 46.9484 53.642 46.9482 52.9377V21.8264C46.9483 21.1221 47.5193 20.5511 48.2236 20.551Z" fill="url(#paint10_radial_1085_16659)" style="mix-blend-mode:overlay"/>
<path d="M48.2236 20.551H54.4453C55.1497 20.551 55.7216 21.122 55.7217 21.8264V52.9377C55.7215 53.642 55.1496 54.2131 54.4453 54.2131H48.2236C47.5194 54.2131 46.9484 53.642 46.9482 52.9377V21.8264C46.9483 21.1221 47.5193 20.5511 48.2236 20.551Z" stroke="url(#paint11_linear_1085_16659)" stroke-width="0.56"/>
<path d="M51.333 1.88452C53.7555 1.88452 55.7197 3.84873 55.7197 6.27124C55.7196 8.6936 53.7554 10.657 51.333 10.657C50.5169 10.6541 49.7186 10.4218 49.0293 9.98608L48.8838 9.89429L48.7363 9.98218L40.2666 15.0173L40.1172 15.1052L40.1299 15.2781C40.1349 15.347 40.1457 15.4174 40.1523 15.4675C40.1596 15.5224 40.1641 15.5646 40.1641 15.6042C40.1667 17.8385 38.488 19.7171 36.2676 19.9646C34.0471 20.212 31.9953 18.7488 31.5059 16.5691L31.4766 16.4382L31.3574 16.3796L23.5469 12.5105L23.3691 12.4226L23.2275 12.5603C21.8688 13.8768 19.8077 14.1467 18.1553 13.2253L17.9971 13.1375L17.8516 13.2458L8.85352 19.9617L8.68262 20.0886L8.75977 20.2869C8.92645 20.7171 9.02364 21.1706 9.04785 21.6306L9.05371 21.8289C9.05252 24.2502 7.08862 26.2134 4.66699 26.2136C2.24456 26.2136 0.280404 24.2493 0.280273 21.8269C0.280273 19.4044 2.24326 17.4411 4.66504 17.4402C5.43772 17.4445 6.19592 17.6551 6.85938 18.0505L7.01953 18.1462L7.16992 18.0339L16.0791 11.3855L16.2539 11.2546L16.1699 11.0535C15.4895 9.41344 15.8651 7.52536 17.1211 6.27026C18.3768 5.01513 20.2656 4.64092 21.9053 5.32202C23.5421 6.0025 24.6088 7.59995 24.6094 9.37183C24.6024 9.56241 24.5833 9.75184 24.5518 9.93921L24.5176 10.1443L24.7041 10.2371L31.5723 13.6384L31.8154 13.7595L31.9434 13.5193C32.6022 12.284 33.8154 11.4423 35.2031 11.2566C36.5903 11.0709 37.9823 11.5644 38.9424 12.5828L39.0957 12.7458L39.2891 12.6306L47.0762 8.00171L47.2744 7.88452L47.1973 7.66772C47.0377 7.2195 46.9526 6.74733 46.9463 6.27124C46.949 3.84984 48.9117 1.88754 51.333 1.88452Z" fill="url(#paint12_linear_1085_16659)"/>
<path d="M51.333 1.88452C53.7555 1.88452 55.7197 3.84873 55.7197 6.27124C55.7196 8.6936 53.7554 10.657 51.333 10.657C50.5169 10.6541 49.7186 10.4218 49.0293 9.98608L48.8838 9.89429L48.7363 9.98218L40.2666 15.0173L40.1172 15.1052L40.1299 15.2781C40.1349 15.347 40.1457 15.4174 40.1523 15.4675C40.1596 15.5224 40.1641 15.5646 40.1641 15.6042C40.1667 17.8385 38.488 19.7171 36.2676 19.9646C34.0471 20.212 31.9953 18.7488 31.5059 16.5691L31.4766 16.4382L31.3574 16.3796L23.5469 12.5105L23.3691 12.4226L23.2275 12.5603C21.8688 13.8768 19.8077 14.1467 18.1553 13.2253L17.9971 13.1375L17.8516 13.2458L8.85352 19.9617L8.68262 20.0886L8.75977 20.2869C8.92645 20.7171 9.02364 21.1706 9.04785 21.6306L9.05371 21.8289C9.05252 24.2502 7.08862 26.2134 4.66699 26.2136C2.24456 26.2136 0.280404 24.2493 0.280273 21.8269C0.280273 19.4044 2.24326 17.4411 4.66504 17.4402C5.43772 17.4445 6.19592 17.6551 6.85938 18.0505L7.01953 18.1462L7.16992 18.0339L16.0791 11.3855L16.2539 11.2546L16.1699 11.0535C15.4895 9.41344 15.8651 7.52536 17.1211 6.27026C18.3768 5.01513 20.2656 4.64092 21.9053 5.32202C23.5421 6.0025 24.6088 7.59995 24.6094 9.37183C24.6024 9.56241 24.5833 9.75184 24.5518 9.93921L24.5176 10.1443L24.7041 10.2371L31.5723 13.6384L31.8154 13.7595L31.9434 13.5193C32.6022 12.284 33.8154 11.4423 35.2031 11.2566C36.5903 11.0709 37.9823 11.5644 38.9424 12.5828L39.0957 12.7458L39.2891 12.6306L47.0762 8.00171L47.2744 7.88452L47.1973 7.66772C47.0377 7.2195 46.9526 6.74733 46.9463 6.27124C46.949 3.84984 48.9117 1.88754 51.333 1.88452Z" fill="url(#paint13_radial_1085_16659)" style="mix-blend-mode:overlay"/>
<path d="M51.333 1.88452C53.7555 1.88452 55.7197 3.84873 55.7197 6.27124C55.7196 8.6936 53.7554 10.657 51.333 10.657C50.5169 10.6541 49.7186 10.4218 49.0293 9.98608L48.8838 9.89429L48.7363 9.98218L40.2666 15.0173L40.1172 15.1052L40.1299 15.2781C40.1349 15.347 40.1457 15.4174 40.1523 15.4675C40.1596 15.5224 40.1641 15.5646 40.1641 15.6042C40.1667 17.8385 38.488 19.7171 36.2676 19.9646C34.0471 20.212 31.9953 18.7488 31.5059 16.5691L31.4766 16.4382L31.3574 16.3796L23.5469 12.5105L23.3691 12.4226L23.2275 12.5603C21.8688 13.8768 19.8077 14.1467 18.1553 13.2253L17.9971 13.1375L17.8516 13.2458L8.85352 19.9617L8.68262 20.0886L8.75977 20.2869C8.92645 20.7171 9.02364 21.1706 9.04785 21.6306L9.05371 21.8289C9.05252 24.2502 7.08862 26.2134 4.66699 26.2136C2.24456 26.2136 0.280404 24.2493 0.280273 21.8269C0.280273 19.4044 2.24326 17.4411 4.66504 17.4402C5.43772 17.4445 6.19592 17.6551 6.85938 18.0505L7.01953 18.1462L7.16992 18.0339L16.0791 11.3855L16.2539 11.2546L16.1699 11.0535C15.4895 9.41344 15.8651 7.52536 17.1211 6.27026C18.3768 5.01513 20.2656 4.64092 21.9053 5.32202C23.5421 6.0025 24.6088 7.59995 24.6094 9.37183C24.6024 9.56241 24.5833 9.75184 24.5518 9.93921L24.5176 10.1443L24.7041 10.2371L31.5723 13.6384L31.8154 13.7595L31.9434 13.5193C32.6022 12.284 33.8154 11.4423 35.2031 11.2566C36.5903 11.0709 37.9823 11.5644 38.9424 12.5828L39.0957 12.7458L39.2891 12.6306L47.0762 8.00171L47.2744 7.88452L47.1973 7.66772C47.0377 7.2195 46.9526 6.74733 46.9463 6.27124C46.949 3.84984 48.9117 1.88754 51.333 1.88452Z" stroke="url(#paint14_linear_1085_16659)" stroke-width="0.56"/>
</g>
<defs>
<linearGradient id="paint0_linear_1085_16659" x1="-0.00515569" y1="53.9122" x2="11.8443" y2="53.3263" gradientUnits="userSpaceOnUse">
<stop stop-color="#7D4AE2"/>
<stop offset="0.804643" stop-color="#701D38"/>
</linearGradient>
<radialGradient id="paint1_radial_1085_16659" cx="0" cy="0" r="1" gradientTransform="matrix(-1.76778 -23.4124 3.78813 -13.4747 4.66161 58.3416)" gradientUnits="userSpaceOnUse">
<stop stop-color="#F2D25E"/>
<stop offset="1" stop-color="#F2D25E" stop-opacity="0"/>
</radialGradient>
<linearGradient id="paint2_linear_1085_16659" x1="0" y1="45.1597" x2="9.33333" y2="45.1597" gradientUnits="userSpaceOnUse">
<stop stop-color="#51D1F4"/>
<stop offset="0.25" stop-color="white" stop-opacity="0.1"/>
<stop offset="0.75" stop-color="white" stop-opacity="0.1"/>
<stop offset="1" stop-color="#74288F"/>
</linearGradient>
<linearGradient id="paint3_linear_1085_16659" x1="15.5534" y1="53.5252" x2="27.4214" y2="53.1731" gradientUnits="userSpaceOnUse">
<stop stop-color="#7D4AE2"/>
<stop offset="0.804643" stop-color="#701D38"/>
</linearGradient>
<radialGradient id="paint4_radial_1085_16659" cx="0" cy="0" r="1" gradientTransform="matrix(-1.76778 -39.0212 3.78813 -22.4581 20.2202 60.9076)" gradientUnits="userSpaceOnUse">
<stop stop-color="#F2D25E"/>
<stop offset="1" stop-color="#F2D25E" stop-opacity="0"/>
</radialGradient>
<linearGradient id="paint5_linear_1085_16659" x1="15.5586" y1="38.9376" x2="24.8919" y2="38.9376" gradientUnits="userSpaceOnUse">
<stop stop-color="#51D1F4"/>
<stop offset="0.25" stop-color="white" stop-opacity="0.1"/>
<stop offset="0.75" stop-color="white" stop-opacity="0.1"/>
<stop offset="1" stop-color="#74288F"/>
</linearGradient>
<linearGradient id="paint6_linear_1085_16659" x1="31.1042" y1="53.7188" x2="42.9663" y2="53.2789" gradientUnits="userSpaceOnUse">
<stop stop-color="#7D4AE2"/>
<stop offset="0.804643" stop-color="#701D38"/>
</linearGradient>
<radialGradient id="paint7_radial_1085_16659" cx="0" cy="0" r="1" gradientTransform="matrix(-1.76778 -31.2168 3.78813 -17.9664 35.771 59.6247)" gradientUnits="userSpaceOnUse">
<stop stop-color="#F2D25E"/>
<stop offset="1" stop-color="#F2D25E" stop-opacity="0"/>
</radialGradient>
<linearGradient id="paint8_linear_1085_16659" x1="31.1094" y1="42.0488" x2="40.4427" y2="42.0488" gradientUnits="userSpaceOnUse">
<stop stop-color="#51D1F4"/>
<stop offset="0.25" stop-color="white" stop-opacity="0.1"/>
<stop offset="0.75" stop-color="white" stop-opacity="0.1"/>
<stop offset="1" stop-color="#74288F"/>
</linearGradient>
<linearGradient id="paint9_linear_1085_16659" x1="46.6628" y1="53.4282" x2="58.5326" y2="53.1081" gradientUnits="userSpaceOnUse">
<stop stop-color="#7D4AE2"/>
<stop offset="0.804643" stop-color="#701D38"/>
</linearGradient>
<radialGradient id="paint10_radial_1085_16659" cx="0" cy="0" r="1" gradientTransform="matrix(-1.76778 -42.923 3.78813 -24.7037 51.3296 61.5488)" gradientUnits="userSpaceOnUse">
<stop stop-color="#F2D25E"/>
<stop offset="1" stop-color="#F2D25E" stop-opacity="0"/>
</radialGradient>
<linearGradient id="paint11_linear_1085_16659" x1="46.668" y1="37.382" x2="56.0013" y2="37.382" gradientUnits="userSpaceOnUse">
<stop stop-color="#51D1F4"/>
<stop offset="0.25" stop-color="white" stop-opacity="0.1"/>
<stop offset="0.75" stop-color="white" stop-opacity="0.1"/>
<stop offset="1" stop-color="#74288F"/>
</linearGradient>
<linearGradient id="paint12_linear_1085_16659" x1="-0.0309341" y1="25.7188" x2="67.877" y2="10.6078" gradientUnits="userSpaceOnUse">
<stop stop-color="#7D4AE2"/>
<stop offset="0.804643" stop-color="#701D38"/>
</linearGradient>
<radialGradient id="paint13_radial_1085_16659" cx="0" cy="0" r="1" gradientTransform="matrix(-10.6067 -31.2168 22.7288 -17.9664 27.9697 31.6247)" gradientUnits="userSpaceOnUse">
<stop stop-color="#F2D25E"/>
<stop offset="1" stop-color="#F2D25E" stop-opacity="0"/>
</radialGradient>
<linearGradient id="paint14_linear_1085_16659" x1="0" y1="14.0488" x2="56" y2="14.0488" gradientUnits="userSpaceOnUse">
<stop stop-color="#51D1F4"/>
<stop offset="0.25" stop-color="white" stop-opacity="0.1"/>
<stop offset="0.75" stop-color="white" stop-opacity="0.1"/>
<stop offset="1" stop-color="#74288F"/>
</linearGradient>
<clipPath id="clip0_1085_16659">
<rect width="56" height="56" fill="white"/>
</clipPath>
</defs>
</svg>
