<svg width="56" height="56" viewBox="0 0 56 56" fill="none" xmlns="http://www.w3.org/2000/svg">
<path d="M5.25 26.5303H50.75C51.5619 26.5303 52.2197 27.1874 52.2197 28C52.2197 28.8126 51.5619 29.4697 50.75 29.4697H5.25C4.43812 29.4697 3.78027 28.8126 3.78027 28C3.78027 27.1874 4.43812 26.5303 5.25 26.5303Z" fill="url(#paint0_linear_1085_21140)"/>
<path d="M5.25 26.5303H50.75C51.5619 26.5303 52.2197 27.1874 52.2197 28C52.2197 28.8126 51.5619 29.4697 50.75 29.4697H5.25C4.43812 29.4697 3.78027 28.8126 3.78027 28C3.78027 27.1874 4.43812 26.5303 5.25 26.5303Z" fill="url(#paint1_radial_1085_21140)" style="mix-blend-mode:overlay"/>
<path d="M5.25 26.5303H50.75C51.5619 26.5303 52.2197 27.1874 52.2197 28C52.2197 28.8126 51.5619 29.4697 50.75 29.4697H5.25C4.43812 29.4697 3.78027 28.8126 3.78027 28C3.78027 27.1874 4.43812 26.5303 5.25 26.5303Z" stroke="url(#paint2_linear_1085_21140)" stroke-width="0.56"/>
<path d="M22.75 3.78027C33.6958 3.78029 42.504 13.0987 41.6621 24.2197H27.749C28.0867 23.5085 28.2803 22.7153 28.2803 21.875C28.2803 18.8253 25.7996 16.3447 22.75 16.3447C20.9743 16.3447 19.5303 14.9007 19.5303 13.125C19.5303 11.3493 20.9743 9.90527 22.75 9.90527C24.5256 9.90529 25.9697 11.3493 25.9697 13.125C25.9697 13.7633 26.4867 14.2803 27.125 14.2803C27.7633 14.2803 28.2803 13.7633 28.2803 13.125C28.2803 10.4715 26.3988 8.26575 23.9053 7.73242V6.125C23.9053 5.48673 23.3883 4.96974 22.75 4.96973C22.1117 4.96973 21.5947 5.48672 21.5947 6.125V7.73242C19.1011 8.26573 17.2197 10.4715 17.2197 13.125C17.2197 16.1747 19.7003 18.6553 22.75 18.6553C24.5256 18.6553 25.9697 20.0993 25.9697 21.875C25.9697 22.8018 25.5667 23.63 24.9316 24.2197H3.83789C2.996 13.0987 11.8042 3.78027 22.75 3.78027Z" fill="url(#paint3_linear_1085_21140)"/>
<path d="M22.75 3.78027C33.6958 3.78029 42.504 13.0987 41.6621 24.2197H27.749C28.0867 23.5085 28.2803 22.7153 28.2803 21.875C28.2803 18.8253 25.7996 16.3447 22.75 16.3447C20.9743 16.3447 19.5303 14.9007 19.5303 13.125C19.5303 11.3493 20.9743 9.90527 22.75 9.90527C24.5256 9.90529 25.9697 11.3493 25.9697 13.125C25.9697 13.7633 26.4867 14.2803 27.125 14.2803C27.7633 14.2803 28.2803 13.7633 28.2803 13.125C28.2803 10.4715 26.3988 8.26575 23.9053 7.73242V6.125C23.9053 5.48673 23.3883 4.96974 22.75 4.96973C22.1117 4.96973 21.5947 5.48672 21.5947 6.125V7.73242C19.1011 8.26573 17.2197 10.4715 17.2197 13.125C17.2197 16.1747 19.7003 18.6553 22.75 18.6553C24.5256 18.6553 25.9697 20.0993 25.9697 21.875C25.9697 22.8018 25.5667 23.63 24.9316 24.2197H3.83789C2.996 13.0987 11.8042 3.78027 22.75 3.78027Z" fill="url(#paint4_radial_1085_21140)" style="mix-blend-mode:overlay"/>
<path d="M22.75 3.78027C33.6958 3.78029 42.504 13.0987 41.6621 24.2197H27.749C28.0867 23.5085 28.2803 22.7153 28.2803 21.875C28.2803 18.8253 25.7996 16.3447 22.75 16.3447C20.9743 16.3447 19.5303 14.9007 19.5303 13.125C19.5303 11.3493 20.9743 9.90527 22.75 9.90527C24.5256 9.90529 25.9697 11.3493 25.9697 13.125C25.9697 13.7633 26.4867 14.2803 27.125 14.2803C27.7633 14.2803 28.2803 13.7633 28.2803 13.125C28.2803 10.4715 26.3988 8.26575 23.9053 7.73242V6.125C23.9053 5.48673 23.3883 4.96974 22.75 4.96973C22.1117 4.96973 21.5947 5.48672 21.5947 6.125V7.73242C19.1011 8.26573 17.2197 10.4715 17.2197 13.125C17.2197 16.1747 19.7003 18.6553 22.75 18.6553C24.5256 18.6553 25.9697 20.0993 25.9697 21.875C25.9697 22.8018 25.5667 23.63 24.9316 24.2197H3.83789C2.996 13.0987 11.8042 3.78027 22.75 3.78027Z" stroke="url(#paint5_linear_1085_21140)" stroke-width="0.56"/>
<path d="M22.6885 31.7803C22.1089 32.6875 21.6447 33.6735 21.3125 34.7197H19.25C18.6117 34.7197 18.0947 35.2367 18.0947 35.875C18.0947 36.5133 18.6117 37.0303 19.25 37.0303H20.8203C20.7602 37.5096 20.7197 37.9987 20.7197 38.5C20.7197 39.0013 20.7602 39.4904 20.8203 39.9697H19.25C18.6117 39.9697 18.0947 40.4867 18.0947 41.125C18.0947 41.7633 18.6117 42.2803 19.25 42.2803H21.3125C22.9201 47.3449 27.658 51.0303 33.25 51.0303C36.0749 51.0303 38.743 50.1116 40.9619 48.376C41.4321 48.008 41.5398 47.3469 41.2275 46.8525L41.1602 46.7559C40.7695 46.254 40.0425 46.1562 39.5381 46.5576C37.729 47.9716 35.5554 48.7197 33.25 48.7197C28.9527 48.7197 25.2758 46.0483 23.7686 42.2803H35.875C36.5133 42.2803 37.0303 41.7633 37.0303 41.125C37.0303 40.4867 36.5133 39.9697 35.875 39.9697H23.1484C23.0758 39.4865 23.0303 38.9978 23.0303 38.5C23.0303 38.0022 23.0758 37.5135 23.1484 37.0303H35.875C36.5133 37.0303 37.0303 36.5133 37.0303 35.875C37.0303 35.2367 36.5133 34.7197 35.875 34.7197H23.7695C24.2033 33.6356 24.8169 32.6452 25.5752 31.7803H52.1621C53.004 42.9013 44.1958 52.2197 33.25 52.2197C22.3042 52.2197 13.496 42.9013 14.3379 31.7803H22.6885Z" fill="url(#paint6_linear_1085_21140)"/>
<path d="M22.6885 31.7803C22.1089 32.6875 21.6447 33.6735 21.3125 34.7197H19.25C18.6117 34.7197 18.0947 35.2367 18.0947 35.875C18.0947 36.5133 18.6117 37.0303 19.25 37.0303H20.8203C20.7602 37.5096 20.7197 37.9987 20.7197 38.5C20.7197 39.0013 20.7602 39.4904 20.8203 39.9697H19.25C18.6117 39.9697 18.0947 40.4867 18.0947 41.125C18.0947 41.7633 18.6117 42.2803 19.25 42.2803H21.3125C22.9201 47.3449 27.658 51.0303 33.25 51.0303C36.0749 51.0303 38.743 50.1116 40.9619 48.376C41.4321 48.008 41.5398 47.3469 41.2275 46.8525L41.1602 46.7559C40.7695 46.254 40.0425 46.1562 39.5381 46.5576C37.729 47.9716 35.5554 48.7197 33.25 48.7197C28.9527 48.7197 25.2758 46.0483 23.7686 42.2803H35.875C36.5133 42.2803 37.0303 41.7633 37.0303 41.125C37.0303 40.4867 36.5133 39.9697 35.875 39.9697H23.1484C23.0758 39.4865 23.0303 38.9978 23.0303 38.5C23.0303 38.0022 23.0758 37.5135 23.1484 37.0303H35.875C36.5133 37.0303 37.0303 36.5133 37.0303 35.875C37.0303 35.2367 36.5133 34.7197 35.875 34.7197H23.7695C24.2033 33.6356 24.8169 32.6452 25.5752 31.7803H52.1621C53.004 42.9013 44.1958 52.2197 33.25 52.2197C22.3042 52.2197 13.496 42.9013 14.3379 31.7803H22.6885Z" fill="url(#paint7_radial_1085_21140)" style="mix-blend-mode:overlay"/>
<path d="M22.6885 31.7803C22.1089 32.6875 21.6447 33.6735 21.3125 34.7197H19.25C18.6117 34.7197 18.0947 35.2367 18.0947 35.875C18.0947 36.5133 18.6117 37.0303 19.25 37.0303H20.8203C20.7602 37.5096 20.7197 37.9987 20.7197 38.5C20.7197 39.0013 20.7602 39.4904 20.8203 39.9697H19.25C18.6117 39.9697 18.0947 40.4867 18.0947 41.125C18.0947 41.7633 18.6117 42.2803 19.25 42.2803H21.3125C22.9201 47.3449 27.658 51.0303 33.25 51.0303C36.0749 51.0303 38.743 50.1116 40.9619 48.376C41.4321 48.008 41.5398 47.3469 41.2275 46.8525L41.1602 46.7559C40.7695 46.254 40.0425 46.1562 39.5381 46.5576C37.729 47.9716 35.5554 48.7197 33.25 48.7197C28.9527 48.7197 25.2758 46.0483 23.7686 42.2803H35.875C36.5133 42.2803 37.0303 41.7633 37.0303 41.125C37.0303 40.4867 36.5133 39.9697 35.875 39.9697H23.1484C23.0758 39.4865 23.0303 38.9978 23.0303 38.5C23.0303 38.0022 23.0758 37.5135 23.1484 37.0303H35.875C36.5133 37.0303 37.0303 36.5133 37.0303 35.875C37.0303 35.2367 36.5133 34.7197 35.875 34.7197H23.7695C24.2033 33.6356 24.8169 32.6452 25.5752 31.7803H52.1621C53.004 42.9013 44.1958 52.2197 33.25 52.2197C22.3042 52.2197 13.496 42.9013 14.3379 31.7803H22.6885Z" stroke="url(#paint8_linear_1085_21140)" stroke-width="0.56"/>
<defs>
<linearGradient id="paint0_linear_1085_21140" x1="3.47293" y1="29.6411" x2="24.8509" y2="0.0412829" gradientUnits="userSpaceOnUse">
<stop stop-color="#7D4AE2"/>
<stop offset="0.804643" stop-color="#701D38"/>
</linearGradient>
<radialGradient id="paint1_radial_1085_21140" cx="0" cy="0" r="1" gradientTransform="matrix(-9.28084 -4.38983 19.8877 -2.5265 27.9735 30.4716)" gradientUnits="userSpaceOnUse">
<stop stop-color="#F2D25E"/>
<stop offset="1" stop-color="#F2D25E" stop-opacity="0"/>
</radialGradient>
<linearGradient id="paint2_linear_1085_21140" x1="3.5" y1="28" x2="52.5" y2="28" gradientUnits="userSpaceOnUse">
<stop stop-color="#51D1F4"/>
<stop offset="0.25" stop-color="white" stop-opacity="0.1"/>
<stop offset="0.75" stop-color="white" stop-opacity="0.1"/>
<stop offset="1" stop-color="#74288F"/>
</linearGradient>
<linearGradient id="paint3_linear_1085_21140" x1="3.47873" y1="23.8465" x2="50.9175" y2="15.2452" gradientUnits="userSpaceOnUse">
<stop stop-color="#7D4AE2"/>
<stop offset="0.804643" stop-color="#701D38"/>
</linearGradient>
<radialGradient id="paint4_radial_1085_21140" cx="0" cy="0" r="1" gradientTransform="matrix(-7.29208 -26.339 15.626 -15.159 22.7291 28.8296)" gradientUnits="userSpaceOnUse">
<stop stop-color="#F2D25E"/>
<stop offset="1" stop-color="#F2D25E" stop-opacity="0"/>
</radialGradient>
<linearGradient id="paint5_linear_1085_21140" x1="3.5" y1="14" x2="42" y2="14" gradientUnits="userSpaceOnUse">
<stop stop-color="#51D1F4"/>
<stop offset="0.25" stop-color="white" stop-opacity="0.1"/>
<stop offset="0.75" stop-color="white" stop-opacity="0.1"/>
<stop offset="1" stop-color="#74288F"/>
</linearGradient>
<linearGradient id="paint6_linear_1085_21140" x1="13.9787" y1="51.8465" x2="61.4175" y2="43.2452" gradientUnits="userSpaceOnUse">
<stop stop-color="#7D4AE2"/>
<stop offset="0.804643" stop-color="#701D38"/>
</linearGradient>
<radialGradient id="paint7_radial_1085_21140" cx="0" cy="0" r="1" gradientTransform="matrix(-7.29208 -26.339 15.626 -15.159 33.2291 56.8296)" gradientUnits="userSpaceOnUse">
<stop stop-color="#F2D25E"/>
<stop offset="1" stop-color="#F2D25E" stop-opacity="0"/>
</radialGradient>
<linearGradient id="paint8_linear_1085_21140" x1="14" y1="42" x2="52.5" y2="42" gradientUnits="userSpaceOnUse">
<stop stop-color="#51D1F4"/>
<stop offset="0.25" stop-color="white" stop-opacity="0.1"/>
<stop offset="0.75" stop-color="white" stop-opacity="0.1"/>
<stop offset="1" stop-color="#74288F"/>
</linearGradient>
</defs>
</svg>
