<svg width="56" height="56" viewBox="0 0 56 56" fill="none" xmlns="http://www.w3.org/2000/svg">
<g clip-path="url(#clip0_1085_21165)">
<path d="M41.0146 24.0146H45.8164C47.5656 24.0146 49.0469 25.7538 49.0469 28.1094V51.625C49.0469 53.9916 47.5764 55.7197 45.8164 55.7197H41.0146C39.2551 55.7196 37.7842 53.9811 37.7842 51.625V28.1094C37.7842 25.7429 39.2547 24.0148 41.0146 24.0146Z" fill="url(#paint0_linear_1085_21165)"/>
<path d="M41.0146 24.0146H45.8164C47.5656 24.0146 49.0469 25.7538 49.0469 28.1094V51.625C49.0469 53.9916 47.5764 55.7197 45.8164 55.7197H41.0146C39.2551 55.7196 37.7842 53.9811 37.7842 51.625V28.1094C37.7842 25.7429 39.2547 24.0148 41.0146 24.0146Z" fill="url(#paint1_radial_1085_21165)" style="mix-blend-mode:overlay"/>
<path d="M41.0146 24.0146H45.8164C47.5656 24.0146 49.0469 25.7538 49.0469 28.1094V51.625C49.0469 53.9916 47.5764 55.7197 45.8164 55.7197H41.0146C39.2551 55.7196 37.7842 53.9811 37.7842 51.625V28.1094C37.7842 25.7429 39.2547 24.0148 41.0146 24.0146Z" stroke="url(#paint2_linear_1085_21165)" stroke-width="0.56"/>
<path d="M46.4297 0.334961C46.8022 0.176431 47.2386 0.351661 47.3965 0.722656L47.3975 0.723633C47.4211 0.778986 47.4352 0.83168 47.4424 0.881836L47.4443 0.889648L49.5547 13.3467L49.5557 13.3535C49.6034 13.5992 49.5135 13.8543 49.332 14.0195L49.249 14.085L49.2441 14.0879C49.0094 14.2522 48.7012 14.263 48.4424 14.1094H48.4414L45.1621 12.1416L44.9229 11.998L44.7783 12.2373C42.0856 16.6961 38.8518 21.002 34.4736 24.1943C30.1006 27.3828 24.5719 29.4707 17.2695 29.4707C14.1858 29.4707 10.7824 29.1008 7.01562 28.2734C6.6214 28.1864 6.36526 27.8009 6.44238 27.3926C6.51196 27.0728 6.77457 26.845 7.08984 26.8145L7.22754 26.8135C7.70627 26.8534 13.3147 27.2326 19.9365 25.1172C26.5654 22.9995 34.2193 18.3781 38.7441 8.41797L38.8564 8.16895L38.6113 8.0498L35.2529 6.41992H35.252C34.91 6.2564 34.7499 5.85418 34.874 5.50586L34.9023 5.43652C34.9817 5.2698 35.1158 5.14159 35.2842 5.06934L46.4297 0.334961Z" fill="url(#paint3_linear_1085_21165)"/>
<path d="M46.4297 0.334961C46.8022 0.176431 47.2386 0.351661 47.3965 0.722656L47.3975 0.723633C47.4211 0.778986 47.4352 0.83168 47.4424 0.881836L47.4443 0.889648L49.5547 13.3467L49.5557 13.3535C49.6034 13.5992 49.5135 13.8543 49.332 14.0195L49.249 14.085L49.2441 14.0879C49.0094 14.2522 48.7012 14.263 48.4424 14.1094H48.4414L45.1621 12.1416L44.9229 11.998L44.7783 12.2373C42.0856 16.6961 38.8518 21.002 34.4736 24.1943C30.1006 27.3828 24.5719 29.4707 17.2695 29.4707C14.1858 29.4707 10.7824 29.1008 7.01562 28.2734C6.6214 28.1864 6.36526 27.8009 6.44238 27.3926C6.51196 27.0728 6.77457 26.845 7.08984 26.8145L7.22754 26.8135C7.70627 26.8534 13.3147 27.2326 19.9365 25.1172C26.5654 22.9995 34.2193 18.3781 38.7441 8.41797L38.8564 8.16895L38.6113 8.0498L35.2529 6.41992H35.252C34.91 6.2564 34.7499 5.85418 34.874 5.50586L34.9023 5.43652C34.9817 5.2698 35.1158 5.14159 35.2842 5.06934L46.4297 0.334961Z" fill="url(#paint4_radial_1085_21165)" style="mix-blend-mode:overlay"/>
<path d="M46.4297 0.334961C46.8022 0.176431 47.2386 0.351661 47.3965 0.722656L47.3975 0.723633C47.4211 0.778986 47.4352 0.83168 47.4424 0.881836L47.4443 0.889648L49.5547 13.3467L49.5557 13.3535C49.6034 13.5992 49.5135 13.8543 49.332 14.0195L49.249 14.085L49.2441 14.0879C49.0094 14.2522 48.7012 14.263 48.4424 14.1094H48.4414L45.1621 12.1416L44.9229 11.998L44.7783 12.2373C42.0856 16.6961 38.8518 21.002 34.4736 24.1943C30.1006 27.3828 24.5719 29.4707 17.2695 29.4707C14.1858 29.4707 10.7824 29.1008 7.01562 28.2734C6.6214 28.1864 6.36526 27.8009 6.44238 27.3926C6.51196 27.0728 6.77457 26.845 7.08984 26.8145L7.22754 26.8135C7.70627 26.8534 13.3147 27.2326 19.9365 25.1172C26.5654 22.9995 34.2193 18.3781 38.7441 8.41797L38.8564 8.16895L38.6113 8.0498L35.2529 6.41992H35.252C34.91 6.2564 34.7499 5.85418 34.874 5.50586L34.9023 5.43652C34.9817 5.2698 35.1158 5.14159 35.2842 5.06934L46.4297 0.334961Z" stroke="url(#paint5_linear_1085_21165)" stroke-width="0.56"/>
<path d="M25.5928 32.6553H30.3965C32.1653 32.6458 33.6367 34.3826 33.6367 36.75V51.625C33.6367 53.9916 32.1653 55.7197 30.4053 55.7197H25.5928C23.8332 55.7196 22.3623 53.9811 22.3623 51.625V36.75C22.3623 34.3835 23.8328 32.6554 25.5928 32.6553Z" fill="url(#paint6_linear_1085_21165)"/>
<path d="M25.5928 32.6553H30.3965C32.1653 32.6458 33.6367 34.3826 33.6367 36.75V51.625C33.6367 53.9916 32.1653 55.7197 30.4053 55.7197H25.5928C23.8332 55.7196 22.3623 53.9811 22.3623 51.625V36.75C22.3623 34.3835 23.8328 32.6554 25.5928 32.6553Z" fill="url(#paint7_radial_1085_21165)" style="mix-blend-mode:overlay"/>
<path d="M25.5928 32.6553H30.3965C32.1653 32.6458 33.6367 34.3826 33.6367 36.75V51.625C33.6367 53.9916 32.1653 55.7197 30.4053 55.7197H25.5928C23.8332 55.7196 22.3623 53.9811 22.3623 51.625V36.75C22.3623 34.3835 23.8328 32.6554 25.5928 32.6553Z" stroke="url(#paint8_linear_1085_21165)" stroke-width="0.56"/>
<path d="M10.5225 39.8525H15.3262C17.095 39.843 18.5664 41.5798 18.5664 43.9473V51.625C18.5664 53.9812 17.0946 55.7207 15.335 55.7207H10.5225C8.76292 55.7206 7.29199 53.9811 7.29199 51.625V43.9473C7.29201 41.5808 8.76254 39.8527 10.5225 39.8525Z" fill="url(#paint9_linear_1085_21165)"/>
<path d="M10.5225 39.8525H15.3262C17.095 39.843 18.5664 41.5798 18.5664 43.9473V51.625C18.5664 53.9812 17.0946 55.7207 15.335 55.7207H10.5225C8.76292 55.7206 7.29199 53.9811 7.29199 51.625V43.9473C7.29201 41.5808 8.76254 39.8527 10.5225 39.8525Z" fill="url(#paint10_radial_1085_21165)" style="mix-blend-mode:overlay"/>
<path d="M10.5225 39.8525H15.3262C17.095 39.843 18.5664 41.5798 18.5664 43.9473V51.625C18.5664 53.9812 17.0946 55.7207 15.335 55.7207H10.5225C8.76292 55.7206 7.29199 53.9811 7.29199 51.625V43.9473C7.29201 41.5808 8.76254 39.8527 10.5225 39.8525Z" stroke="url(#paint11_linear_1085_21165)" stroke-width="0.56"/>
</g>
<defs>
<linearGradient id="paint0_linear_1085_21165" x1="37.4974" y1="54.996" x2="52.5252" y2="54.4514" gradientUnits="userSpaceOnUse">
<stop stop-color="#7D4AE2"/>
<stop offset="0.804643" stop-color="#701D38"/>
</linearGradient>
<radialGradient id="paint1_radial_1085_21165" cx="0" cy="0" r="1" gradientTransform="matrix(-2.23942 -40.4687 4.79879 -23.2912 43.4092 62.6522)" gradientUnits="userSpaceOnUse">
<stop stop-color="#F2D25E"/>
<stop offset="1" stop-color="#F2D25E" stop-opacity="0"/>
</radialGradient>
<linearGradient id="paint2_linear_1085_21165" x1="37.5039" y1="39.8672" x2="49.3273" y2="39.8672" gradientUnits="userSpaceOnUse">
<stop stop-color="#51D1F4"/>
<stop offset="0.25" stop-color="white" stop-opacity="0.1"/>
<stop offset="0.75" stop-color="white" stop-opacity="0.1"/>
<stop offset="1" stop-color="#74288F"/>
</linearGradient>
<linearGradient id="paint3_linear_1085_21165" x1="6.1243" y1="28.8245" x2="60.5919" y2="20.9128" gradientUnits="userSpaceOnUse">
<stop stop-color="#7D4AE2"/>
<stop offset="0.804643" stop-color="#701D38"/>
</linearGradient>
<radialGradient id="paint4_radial_1085_21165" cx="0" cy="0" r="1" gradientTransform="matrix(-8.27706 -37.3189 17.7367 -21.4783 27.9749 35.8848)" gradientUnits="userSpaceOnUse">
<stop stop-color="#F2D25E"/>
<stop offset="1" stop-color="#F2D25E" stop-opacity="0"/>
</radialGradient>
<linearGradient id="paint5_linear_1085_21165" x1="6.14844" y1="14.8732" x2="49.8488" y2="14.8732" gradientUnits="userSpaceOnUse">
<stop stop-color="#51D1F4"/>
<stop offset="0.25" stop-color="white" stop-opacity="0.1"/>
<stop offset="0.75" stop-color="white" stop-opacity="0.1"/>
<stop offset="1" stop-color="#74288F"/>
</linearGradient>
<linearGradient id="paint6_linear_1085_21165" x1="22.0755" y1="55.2649" x2="37.1001" y2="54.5206" gradientUnits="userSpaceOnUse">
<stop stop-color="#7D4AE2"/>
<stop offset="0.804643" stop-color="#701D38"/>
</linearGradient>
<radialGradient id="paint7_radial_1085_21165" cx="0" cy="0" r="1" gradientTransform="matrix(-2.24149 -29.6314 4.80323 -17.0539 27.9928 60.8708)" gradientUnits="userSpaceOnUse">
<stop stop-color="#F2D25E"/>
<stop offset="1" stop-color="#F2D25E" stop-opacity="0"/>
</radialGradient>
<linearGradient id="paint8_linear_1085_21165" x1="22.082" y1="44.1875" x2="33.9164" y2="44.1875" gradientUnits="userSpaceOnUse">
<stop stop-color="#51D1F4"/>
<stop offset="0.25" stop-color="white" stop-opacity="0.1"/>
<stop offset="0.75" stop-color="white" stop-opacity="0.1"/>
<stop offset="1" stop-color="#74288F"/>
</linearGradient>
<linearGradient id="paint9_linear_1085_21165" x1="7.00518" y1="55.4892" x2="21.9906" y2="54.4216" gradientUnits="userSpaceOnUse">
<stop stop-color="#7D4AE2"/>
<stop offset="0.804643" stop-color="#701D38"/>
</linearGradient>
<radialGradient id="paint10_radial_1085_21165" cx="0" cy="0" r="1" gradientTransform="matrix(-2.24149 -20.6048 4.80323 -11.8588 12.9225 59.3874)" gradientUnits="userSpaceOnUse">
<stop stop-color="#F2D25E"/>
<stop offset="1" stop-color="#F2D25E" stop-opacity="0"/>
</radialGradient>
<linearGradient id="paint11_linear_1085_21165" x1="7.01172" y1="47.7864" x2="18.8461" y2="47.7864" gradientUnits="userSpaceOnUse">
<stop stop-color="#51D1F4"/>
<stop offset="0.25" stop-color="white" stop-opacity="0.1"/>
<stop offset="0.75" stop-color="white" stop-opacity="0.1"/>
<stop offset="1" stop-color="#74288F"/>
</linearGradient>
<clipPath id="clip0_1085_21165">
<rect width="56" height="56" fill="white"/>
</clipPath>
</defs>
</svg>
