<svg width="56" height="56" viewBox="0 0 56 56" fill="none" xmlns="http://www.w3.org/2000/svg">
<g clip-path="url(#clip0_1085_21136)">
<path d="M28.0029 0.280273C31.7442 0.280273 35.3232 1.01192 38.7393 2.47461C42.1609 3.93918 45.0994 5.90594 47.5547 8.37402C50.0118 10.8423 51.9736 13.7863 53.4385 17.208C54.9012 20.6249 55.6313 24.2156 55.6318 27.9814C55.6318 31.512 54.9899 34.8944 53.7041 38.1289L53.4375 38.7734C51.9725 42.2079 50.0117 45.157 47.5547 47.626C45.0994 50.0942 42.1609 52.0612 38.7393 53.5254C35.3233 54.9886 31.7445 55.7197 28.0029 55.7197C24.4951 55.7197 21.1307 55.0772 17.9082 53.791L17.2656 53.5254V53.5244C13.8443 52.0611 10.9071 50.094 8.45117 47.626C5.99467 45.157 4.03352 42.208 2.56836 38.7734C1.10569 35.3444 0.374023 31.7474 0.374023 27.9814C0.374061 24.2157 1.10489 20.625 2.56738 17.208C4.03214 13.7863 5.99463 10.8423 8.45117 8.37402C10.9071 5.90573 13.8442 3.93911 17.2656 2.47461C20.6828 1.01225 24.2614 0.280307 28.0029 0.280273ZM44.4121 17.0635L17.0117 44.4268L16.7666 44.6719L17.0566 44.8604C20.4201 47.0462 24.0708 48.1396 28.002 48.1396C30.7281 48.1396 33.3285 47.6049 35.7988 46.5361C38.2642 45.4701 40.3958 44.0391 42.1914 42.2441C43.9871 40.4482 45.4107 38.3031 46.4658 35.8135C47.5224 33.3191 48.0511 30.7082 48.0518 27.9814C48.0518 24.0276 46.9831 20.4006 44.8447 17.1084L44.6572 16.8193L44.4121 17.0635ZM28.0029 7.85938C24.3689 7.85942 21.0134 8.75676 17.9414 10.5508C14.8714 12.3445 12.4378 14.7896 10.6455 17.8838C8.85191 20.9799 7.9541 24.3478 7.9541 27.9814C7.95363 31.9603 9.04805 35.6363 11.2334 38.999L11.4219 39.2891L11.666 39.0449L39.1035 11.6445L39.3438 11.4043L39.0615 11.2148C35.7435 8.97871 32.056 7.85938 28.0029 7.85938Z" fill="url(#paint0_linear_1085_21136)"/>
<path d="M28.0029 0.280273C31.7442 0.280273 35.3232 1.01192 38.7393 2.47461C42.1609 3.93918 45.0994 5.90594 47.5547 8.37402C50.0118 10.8423 51.9736 13.7863 53.4385 17.208C54.9012 20.6249 55.6313 24.2156 55.6318 27.9814C55.6318 31.512 54.9899 34.8944 53.7041 38.1289L53.4375 38.7734C51.9725 42.2079 50.0117 45.157 47.5547 47.626C45.0994 50.0942 42.1609 52.0612 38.7393 53.5254C35.3233 54.9886 31.7445 55.7197 28.0029 55.7197C24.4951 55.7197 21.1307 55.0772 17.9082 53.791L17.2656 53.5254V53.5244C13.8443 52.0611 10.9071 50.094 8.45117 47.626C5.99467 45.157 4.03352 42.208 2.56836 38.7734C1.10569 35.3444 0.374023 31.7474 0.374023 27.9814C0.374061 24.2157 1.10489 20.625 2.56738 17.208C4.03214 13.7863 5.99463 10.8423 8.45117 8.37402C10.9071 5.90573 13.8442 3.93911 17.2656 2.47461C20.6828 1.01225 24.2614 0.280307 28.0029 0.280273ZM44.4121 17.0635L17.0117 44.4268L16.7666 44.6719L17.0566 44.8604C20.4201 47.0462 24.0708 48.1396 28.002 48.1396C30.7281 48.1396 33.3285 47.6049 35.7988 46.5361C38.2642 45.4701 40.3958 44.0391 42.1914 42.2441C43.9871 40.4482 45.4107 38.3031 46.4658 35.8135C47.5224 33.3191 48.0511 30.7082 48.0518 27.9814C48.0518 24.0276 46.9831 20.4006 44.8447 17.1084L44.6572 16.8193L44.4121 17.0635ZM28.0029 7.85938C24.3689 7.85942 21.0134 8.75676 17.9414 10.5508C14.8714 12.3445 12.4378 14.7896 10.6455 17.8838C8.85191 20.9799 7.9541 24.3478 7.9541 27.9814C7.95363 31.9603 9.04805 35.6363 11.2334 38.999L11.4219 39.2891L11.666 39.0449L39.1035 11.6445L39.3438 11.4043L39.0615 11.2148C35.7435 8.97871 32.056 7.85938 28.0029 7.85938Z" fill="url(#paint1_radial_1085_21136)" style="mix-blend-mode:overlay"/>
<path d="M28.0029 0.280273C31.7442 0.280273 35.3232 1.01192 38.7393 2.47461C42.1609 3.93918 45.0994 5.90594 47.5547 8.37402C50.0118 10.8423 51.9736 13.7863 53.4385 17.208C54.9012 20.6249 55.6313 24.2156 55.6318 27.9814C55.6318 31.512 54.9899 34.8944 53.7041 38.1289L53.4375 38.7734C51.9725 42.2079 50.0117 45.157 47.5547 47.626C45.0994 50.0942 42.1609 52.0612 38.7393 53.5254C35.3233 54.9886 31.7445 55.7197 28.0029 55.7197C24.4951 55.7197 21.1307 55.0772 17.9082 53.791L17.2656 53.5254V53.5244C13.8443 52.0611 10.9071 50.094 8.45117 47.626C5.99467 45.157 4.03352 42.208 2.56836 38.7734C1.10569 35.3444 0.374023 31.7474 0.374023 27.9814C0.374061 24.2157 1.10489 20.625 2.56738 17.208C4.03214 13.7863 5.99463 10.8423 8.45117 8.37402C10.9071 5.90573 13.8442 3.93911 17.2656 2.47461C20.6828 1.01225 24.2614 0.280307 28.0029 0.280273ZM44.4121 17.0635L17.0117 44.4268L16.7666 44.6719L17.0566 44.8604C20.4201 47.0462 24.0708 48.1396 28.002 48.1396C30.7281 48.1396 33.3285 47.6049 35.7988 46.5361C38.2642 45.4701 40.3958 44.0391 42.1914 42.2441C43.9871 40.4482 45.4107 38.3031 46.4658 35.8135C47.5224 33.3191 48.0511 30.7082 48.0518 27.9814C48.0518 24.0276 46.9831 20.4006 44.8447 17.1084L44.6572 16.8193L44.4121 17.0635ZM28.0029 7.85938C24.3689 7.85942 21.0134 8.75676 17.9414 10.5508C14.8714 12.3445 12.4378 14.7896 10.6455 17.8838C8.85191 20.9799 7.9541 24.3478 7.9541 27.9814C7.95363 31.9603 9.04805 35.6363 11.2334 38.999L11.4219 39.2891L11.666 39.0449L39.1035 11.6445L39.3438 11.4043L39.0615 11.2148C35.7435 8.97871 32.056 7.85938 28.0029 7.85938Z" stroke="url(#paint2_linear_1085_21136)" stroke-width="0.56"/>
</g>
<defs>
<linearGradient id="paint0_linear_1085_21136" x1="0.0629164" y1="54.2573" x2="70.418" y2="47.3218" gradientUnits="userSpaceOnUse">
<stop stop-color="#7D4AE2"/>
<stop offset="0.804643" stop-color="#701D38"/>
</linearGradient>
<radialGradient id="paint1_radial_1085_21136" cx="0" cy="0" r="1" gradientTransform="matrix(-10.5722 -70.2371 22.6549 -40.4239 27.9725 67.5454)" gradientUnits="userSpaceOnUse">
<stop stop-color="#F2D25E"/>
<stop offset="1" stop-color="#F2D25E" stop-opacity="0"/>
</radialGradient>
<linearGradient id="paint2_linear_1085_21136" x1="0.09375" y1="27.9999" x2="55.9117" y2="27.9999" gradientUnits="userSpaceOnUse">
<stop stop-color="#51D1F4"/>
<stop offset="0.25" stop-color="white" stop-opacity="0.1"/>
<stop offset="0.75" stop-color="white" stop-opacity="0.1"/>
<stop offset="1" stop-color="#74288F"/>
</linearGradient>
<clipPath id="clip0_1085_21136">
<rect width="56" height="56" fill="white"/>
</clipPath>
</defs>
</svg>
