<svg width="56" height="56" viewBox="0 0 56 56" fill="none" xmlns="http://www.w3.org/2000/svg">
<path d="M14.165 26.9521C14.1668 27.3731 14.1703 27.7951 14.1748 28.2158V28.2178C14.2033 30.025 14.2729 32.2156 14.8174 34.1113C14.694 34.1034 14.5695 34.0996 14.4434 34.0996C11.2436 34.0996 8.65332 36.6924 8.65332 39.8887C8.65332 43.085 11.2447 45.6777 14.4434 45.6777C17.4614 45.6775 19.8306 43.4716 20.1836 40.6211C22.1813 42.1005 24.3812 43.4715 26.5684 44.7637L24.4961 48.3516L20.8965 47.8008L20.7773 47.7822L20.6816 47.8574C19.9398 48.4396 19.1092 48.9226 18.2227 49.2812L18.1113 49.3271L18.0674 49.4395L16.7441 52.8262H12.1416L10.8184 49.4355L10.7744 49.3232L10.6621 49.2773C9.77307 48.9211 8.946 48.4397 8.2041 47.8574L8.10938 47.7822L7.98926 47.8008L4.38574 48.3516L2.08789 44.3672L4.36133 41.5244L4.43652 41.4316L4.4209 41.3125C4.35777 40.8449 4.32031 40.3707 4.32031 39.8896C4.32032 39.4082 4.35684 38.9332 4.4209 38.4678L4.43652 38.3486L4.36133 38.2549L2.08691 35.4141L4.38574 31.4268L7.98926 31.9775L8.10938 31.9961L8.2041 31.9209C8.9462 31.3385 9.77337 30.856 10.6621 30.501L10.7744 30.4561L10.8184 30.3428L12.1416 26.9521H14.165ZM16.501 17.3496C23.9473 14.0823 32.2048 14.0822 39.6543 17.3496C39.7095 20.5088 39.8052 23.6574 39.792 26.8086L39.7783 28.1846C39.763 29.1748 39.7375 30.3143 39.6123 31.4307C39.4868 32.5495 39.263 33.6264 38.8613 34.4951C38.1726 35.9843 36.7759 37.226 35.4473 38.2607V38.2617C33.1496 40.0548 30.6148 41.611 28.0781 43.0977C25.5388 41.6112 23.0055 40.0547 20.707 38.2617V38.2607C19.3782 37.2259 17.9797 35.9844 17.291 34.4951C16.8894 33.6264 16.6664 32.5495 16.541 31.4307C16.4472 30.5933 16.4094 29.7429 16.3896 28.9521L16.374 28.1846C16.3192 24.5736 16.4376 20.9689 16.501 17.3496ZM35.6895 20.9111C35.0461 20.2687 34.006 20.2698 33.3604 20.9111L25.3369 28.9346L22.7939 26.3926C22.1503 25.7474 21.1095 25.7482 20.4639 26.3926C19.8208 27.0357 19.8208 28.0776 20.4639 28.7207L24.1719 32.4277C24.815 33.0708 25.8598 33.0708 26.5029 32.4277L35.6895 23.2422C36.2924 22.6392 36.3294 21.6832 35.8018 21.0361L35.6895 20.9111ZM43.8535 3.17285L45.1768 6.56348L45.2207 6.67578L45.333 6.7207C46.2227 7.07935 47.0495 7.55969 47.791 8.1416L47.8867 8.2168L48.0059 8.19824L51.6084 7.65039L53.9102 11.6348L51.6338 14.4775L51.5576 14.5723L51.5752 14.6924C51.6349 15.1056 51.6665 15.5273 51.6729 15.957V16.1123C51.6729 16.5912 51.6392 17.0652 51.5732 17.5303L51.5557 17.6504L51.6318 17.7451L53.9082 20.5859L51.6064 24.5713L48.0078 24.0234L47.8877 24.0059L47.793 24.0801C47.0478 24.6624 46.2207 25.1423 45.3311 25.501L45.2188 25.5459L45.1748 25.6592L43.8545 29.0498H41.958L41.9766 28.2188C42.0091 26.1123 41.9813 24.0003 41.9404 21.8867C44.9565 21.6891 47.3435 19.2184 47.3438 16.1143C47.3438 12.9147 44.7512 10.3213 41.5547 10.3213C39.1753 10.3214 37.1322 11.7582 36.2402 13.8096C34.2213 13.2506 32.1674 12.9031 30.1045 12.7676L29.1973 11.6348L31.499 7.65039L35.1025 8.20215L35.2227 8.21973L35.3174 8.14453C36.0587 7.55957 36.8856 7.07939 37.7754 6.7207L37.8877 6.67578L37.9316 6.56348L39.2549 3.17285H43.8535Z" fill="url(#paint0_linear_1085_21155)"/>
<path d="M14.165 26.9521C14.1668 27.3731 14.1703 27.7951 14.1748 28.2158V28.2178C14.2033 30.025 14.2729 32.2156 14.8174 34.1113C14.694 34.1034 14.5695 34.0996 14.4434 34.0996C11.2436 34.0996 8.65332 36.6924 8.65332 39.8887C8.65332 43.085 11.2447 45.6777 14.4434 45.6777C17.4614 45.6775 19.8306 43.4716 20.1836 40.6211C22.1813 42.1005 24.3812 43.4715 26.5684 44.7637L24.4961 48.3516L20.8965 47.8008L20.7773 47.7822L20.6816 47.8574C19.9398 48.4396 19.1092 48.9226 18.2227 49.2812L18.1113 49.3271L18.0674 49.4395L16.7441 52.8262H12.1416L10.8184 49.4355L10.7744 49.3232L10.6621 49.2773C9.77307 48.9211 8.946 48.4397 8.2041 47.8574L8.10938 47.7822L7.98926 47.8008L4.38574 48.3516L2.08789 44.3672L4.36133 41.5244L4.43652 41.4316L4.4209 41.3125C4.35777 40.8449 4.32031 40.3707 4.32031 39.8896C4.32032 39.4082 4.35684 38.9332 4.4209 38.4678L4.43652 38.3486L4.36133 38.2549L2.08691 35.4141L4.38574 31.4268L7.98926 31.9775L8.10938 31.9961L8.2041 31.9209C8.9462 31.3385 9.77337 30.856 10.6621 30.501L10.7744 30.4561L10.8184 30.3428L12.1416 26.9521H14.165ZM16.501 17.3496C23.9473 14.0823 32.2048 14.0822 39.6543 17.3496C39.7095 20.5088 39.8052 23.6574 39.792 26.8086L39.7783 28.1846C39.763 29.1748 39.7375 30.3143 39.6123 31.4307C39.4868 32.5495 39.263 33.6264 38.8613 34.4951C38.1726 35.9843 36.7759 37.226 35.4473 38.2607V38.2617C33.1496 40.0548 30.6148 41.611 28.0781 43.0977C25.5388 41.6112 23.0055 40.0547 20.707 38.2617V38.2607C19.3782 37.2259 17.9797 35.9844 17.291 34.4951C16.8894 33.6264 16.6664 32.5495 16.541 31.4307C16.4472 30.5933 16.4094 29.7429 16.3896 28.9521L16.374 28.1846C16.3192 24.5736 16.4376 20.9689 16.501 17.3496ZM35.6895 20.9111C35.0461 20.2687 34.006 20.2698 33.3604 20.9111L25.3369 28.9346L22.7939 26.3926C22.1503 25.7474 21.1095 25.7482 20.4639 26.3926C19.8208 27.0357 19.8208 28.0776 20.4639 28.7207L24.1719 32.4277C24.815 33.0708 25.8598 33.0708 26.5029 32.4277L35.6895 23.2422C36.2924 22.6392 36.3294 21.6832 35.8018 21.0361L35.6895 20.9111ZM43.8535 3.17285L45.1768 6.56348L45.2207 6.67578L45.333 6.7207C46.2227 7.07935 47.0495 7.55969 47.791 8.1416L47.8867 8.2168L48.0059 8.19824L51.6084 7.65039L53.9102 11.6348L51.6338 14.4775L51.5576 14.5723L51.5752 14.6924C51.6349 15.1056 51.6665 15.5273 51.6729 15.957V16.1123C51.6729 16.5912 51.6392 17.0652 51.5732 17.5303L51.5557 17.6504L51.6318 17.7451L53.9082 20.5859L51.6064 24.5713L48.0078 24.0234L47.8877 24.0059L47.793 24.0801C47.0478 24.6624 46.2207 25.1423 45.3311 25.501L45.2188 25.5459L45.1748 25.6592L43.8545 29.0498H41.958L41.9766 28.2188C42.0091 26.1123 41.9813 24.0003 41.9404 21.8867C44.9565 21.6891 47.3435 19.2184 47.3438 16.1143C47.3438 12.9147 44.7512 10.3213 41.5547 10.3213C39.1753 10.3214 37.1322 11.7582 36.2402 13.8096C34.2213 13.2506 32.1674 12.9031 30.1045 12.7676L29.1973 11.6348L31.499 7.65039L35.1025 8.20215L35.2227 8.21973L35.3174 8.14453C36.0587 7.55957 36.8856 7.07939 37.7754 6.7207L37.8877 6.67578L37.9316 6.56348L39.2549 3.17285H43.8535Z" fill="url(#paint1_radial_1085_21155)" style="mix-blend-mode:overlay"/>
<path d="M14.165 26.9521C14.1668 27.3731 14.1703 27.7951 14.1748 28.2158V28.2178C14.2033 30.025 14.2729 32.2156 14.8174 34.1113C14.694 34.1034 14.5695 34.0996 14.4434 34.0996C11.2436 34.0996 8.65332 36.6924 8.65332 39.8887C8.65332 43.085 11.2447 45.6777 14.4434 45.6777C17.4614 45.6775 19.8306 43.4716 20.1836 40.6211C22.1813 42.1005 24.3812 43.4715 26.5684 44.7637L24.4961 48.3516L20.8965 47.8008L20.7773 47.7822L20.6816 47.8574C19.9398 48.4396 19.1092 48.9226 18.2227 49.2812L18.1113 49.3271L18.0674 49.4395L16.7441 52.8262H12.1416L10.8184 49.4355L10.7744 49.3232L10.6621 49.2773C9.77307 48.9211 8.946 48.4397 8.2041 47.8574L8.10938 47.7822L7.98926 47.8008L4.38574 48.3516L2.08789 44.3672L4.36133 41.5244L4.43652 41.4316L4.4209 41.3125C4.35777 40.8449 4.32031 40.3707 4.32031 39.8896C4.32032 39.4082 4.35684 38.9332 4.4209 38.4678L4.43652 38.3486L4.36133 38.2549L2.08691 35.4141L4.38574 31.4268L7.98926 31.9775L8.10938 31.9961L8.2041 31.9209C8.9462 31.3385 9.77337 30.856 10.6621 30.501L10.7744 30.4561L10.8184 30.3428L12.1416 26.9521H14.165ZM16.501 17.3496C23.9473 14.0823 32.2048 14.0822 39.6543 17.3496C39.7095 20.5088 39.8052 23.6574 39.792 26.8086L39.7783 28.1846C39.763 29.1748 39.7375 30.3143 39.6123 31.4307C39.4868 32.5495 39.263 33.6264 38.8613 34.4951C38.1726 35.9843 36.7759 37.226 35.4473 38.2607V38.2617C33.1496 40.0548 30.6148 41.611 28.0781 43.0977C25.5388 41.6112 23.0055 40.0547 20.707 38.2617V38.2607C19.3782 37.2259 17.9797 35.9844 17.291 34.4951C16.8894 33.6264 16.6664 32.5495 16.541 31.4307C16.4472 30.5933 16.4094 29.7429 16.3896 28.9521L16.374 28.1846C16.3192 24.5736 16.4376 20.9689 16.501 17.3496ZM35.6895 20.9111C35.0461 20.2687 34.006 20.2698 33.3604 20.9111L25.3369 28.9346L22.7939 26.3926C22.1503 25.7474 21.1095 25.7482 20.4639 26.3926C19.8208 27.0357 19.8208 28.0776 20.4639 28.7207L24.1719 32.4277C24.815 33.0708 25.8598 33.0708 26.5029 32.4277L35.6895 23.2422C36.2924 22.6392 36.3294 21.6832 35.8018 21.0361L35.6895 20.9111ZM43.8535 3.17285L45.1768 6.56348L45.2207 6.67578L45.333 6.7207C46.2227 7.07935 47.0495 7.55969 47.791 8.1416L47.8867 8.2168L48.0059 8.19824L51.6084 7.65039L53.9102 11.6348L51.6338 14.4775L51.5576 14.5723L51.5752 14.6924C51.6349 15.1056 51.6665 15.5273 51.6729 15.957V16.1123C51.6729 16.5912 51.6392 17.0652 51.5732 17.5303L51.5557 17.6504L51.6318 17.7451L53.9082 20.5859L51.6064 24.5713L48.0078 24.0234L47.8877 24.0059L47.793 24.0801C47.0478 24.6624 46.2207 25.1423 45.3311 25.501L45.2188 25.5459L45.1748 25.6592L43.8545 29.0498H41.958L41.9766 28.2188C42.0091 26.1123 41.9813 24.0003 41.9404 21.8867C44.9565 21.6891 47.3435 19.2184 47.3438 16.1143C47.3438 12.9147 44.7512 10.3213 41.5547 10.3213C39.1753 10.3214 37.1322 11.7582 36.2402 13.8096C34.2213 13.2506 32.1674 12.9031 30.1045 12.7676L29.1973 11.6348L31.499 7.65039L35.1025 8.20215L35.2227 8.21973L35.3174 8.14453C36.0587 7.55957 36.8856 7.07939 37.7754 6.7207L37.8877 6.67578L37.9316 6.56348L39.2549 3.17285H43.8535Z" stroke="url(#paint2_linear_1085_21155)" stroke-width="0.56"/>
<defs>
<linearGradient id="paint0_linear_1085_21155" x1="1.721" y1="51.5441" x2="67.8289" y2="44.7086" gradientUnits="userSpaceOnUse">
<stop stop-color="#7D4AE2"/>
<stop offset="0.804643" stop-color="#701D38"/>
</linearGradient>
<radialGradient id="paint1_radial_1085_21155" cx="0" cy="0" r="1" gradientTransform="matrix(-9.94355 -62.9803 21.3078 -36.2474 27.971 63.4593)" gradientUnits="userSpaceOnUse">
<stop stop-color="#F2D25E"/>
<stop offset="1" stop-color="#F2D25E" stop-opacity="0"/>
</radialGradient>
<linearGradient id="paint2_linear_1085_21155" x1="1.75" y1="27.9996" x2="54.2489" y2="27.9996" gradientUnits="userSpaceOnUse">
<stop stop-color="#51D1F4"/>
<stop offset="0.25" stop-color="white" stop-opacity="0.1"/>
<stop offset="0.75" stop-color="white" stop-opacity="0.1"/>
<stop offset="1" stop-color="#74288F"/>
</linearGradient>
</defs>
</svg>
