<svg width="56" height="56" viewBox="0 0 56 56" fill="none" xmlns="http://www.w3.org/2000/svg">
<g clip-path="url(#clip0_1085_16651)">
<path d="M33.4043 0.280273C40.8883 0.280316 46.9766 6.3694 46.9766 13.8535C46.9765 21.3376 40.8883 27.4267 33.4043 27.4268C25.9202 27.4268 19.8311 21.3376 19.8311 13.8535C19.8311 6.36941 25.9202 0.280273 33.4043 0.280273ZM38.7549 17.7051C38.7456 16.2606 38.0469 14.8877 36.8867 14.0293L33.5703 11.5752H33.5713L32.2061 10.5645H32.2051C32.0101 10.4205 31.8936 10.1889 31.8936 9.94629C31.8937 9.52246 32.2402 9.17676 32.6641 9.17676H34.1348C34.5586 9.17676 34.9051 9.52246 34.9053 9.94629C34.9053 11.0063 35.7638 11.867 36.8252 11.8672C37.8855 11.8672 38.7461 11.0066 38.7461 9.94629C38.746 7.81474 37.2921 6.01799 35.3252 5.49219V5.33398C35.3251 4.27264 34.4643 3.4141 33.4043 3.41406C32.343 3.41406 31.4835 4.27273 31.4834 5.33398V5.49023C29.511 6.01297 28.0529 7.81027 28.0527 9.94629C28.0527 11.4012 28.7506 12.7868 29.9199 13.6533L33.2373 16.1074L34.6016 17.1172C34.7709 17.2425 34.8811 17.434 34.9072 17.6406L34.9141 17.7305V17.7461C34.9173 18.1715 34.5756 18.5181 34.1475 18.5215C33.2491 18.5267 33.5854 18.5238 32.6807 18.5293C32.2677 18.529 31.9497 18.2227 31.9102 17.8428L31.9062 17.7656L31.8945 17.5693C31.7909 16.6054 30.9743 15.8565 29.9854 15.8564H29.9727C28.9122 15.8628 28.0581 16.7281 28.0645 17.7881C28.0714 19.0193 28.5584 20.1752 29.4346 21.04C30.0122 21.6113 30.7168 22.0083 31.4834 22.2119V22.373C31.4836 23.4342 32.3431 24.293 33.4043 24.293C34.4643 24.2929 35.325 23.4343 35.3252 22.373V22.207C36.1147 21.9993 36.8377 21.5857 37.4248 20.9912C38.2368 20.1694 38.7027 19.0958 38.751 17.9502L38.7549 17.7197V17.7051Z" fill="url(#paint0_linear_1085_16651)"/>
<path d="M33.4043 0.280273C40.8883 0.280316 46.9766 6.3694 46.9766 13.8535C46.9765 21.3376 40.8883 27.4267 33.4043 27.4268C25.9202 27.4268 19.8311 21.3376 19.8311 13.8535C19.8311 6.36941 25.9202 0.280273 33.4043 0.280273ZM38.7549 17.7051C38.7456 16.2606 38.0469 14.8877 36.8867 14.0293L33.5703 11.5752H33.5713L32.2061 10.5645H32.2051C32.0101 10.4205 31.8936 10.1889 31.8936 9.94629C31.8937 9.52246 32.2402 9.17676 32.6641 9.17676H34.1348C34.5586 9.17676 34.9051 9.52246 34.9053 9.94629C34.9053 11.0063 35.7638 11.867 36.8252 11.8672C37.8855 11.8672 38.7461 11.0066 38.7461 9.94629C38.746 7.81474 37.2921 6.01799 35.3252 5.49219V5.33398C35.3251 4.27264 34.4643 3.4141 33.4043 3.41406C32.343 3.41406 31.4835 4.27273 31.4834 5.33398V5.49023C29.511 6.01297 28.0529 7.81027 28.0527 9.94629C28.0527 11.4012 28.7506 12.7868 29.9199 13.6533L33.2373 16.1074L34.6016 17.1172C34.7709 17.2425 34.8811 17.434 34.9072 17.6406L34.9141 17.7305V17.7461C34.9173 18.1715 34.5756 18.5181 34.1475 18.5215C33.2491 18.5267 33.5854 18.5238 32.6807 18.5293C32.2677 18.529 31.9497 18.2227 31.9102 17.8428L31.9062 17.7656L31.8945 17.5693C31.7909 16.6054 30.9743 15.8565 29.9854 15.8564H29.9727C28.9122 15.8628 28.0581 16.7281 28.0645 17.7881C28.0714 19.0193 28.5584 20.1752 29.4346 21.04C30.0122 21.6113 30.7168 22.0083 31.4834 22.2119V22.373C31.4836 23.4342 32.3431 24.293 33.4043 24.293C34.4643 24.2929 35.325 23.4343 35.3252 22.373V22.207C36.1147 21.9993 36.8377 21.5857 37.4248 20.9912C38.2368 20.1694 38.7027 19.0958 38.751 17.9502L38.7549 17.7197V17.7051Z" fill="url(#paint1_radial_1085_16651)" style="mix-blend-mode:overlay"/>
<path d="M33.4043 0.280273C40.8883 0.280316 46.9766 6.3694 46.9766 13.8535C46.9765 21.3376 40.8883 27.4267 33.4043 27.4268C25.9202 27.4268 19.8311 21.3376 19.8311 13.8535C19.8311 6.36941 25.9202 0.280273 33.4043 0.280273ZM38.7549 17.7051C38.7456 16.2606 38.0469 14.8877 36.8867 14.0293L33.5703 11.5752H33.5713L32.2061 10.5645H32.2051C32.0101 10.4205 31.8936 10.1889 31.8936 9.94629C31.8937 9.52246 32.2402 9.17676 32.6641 9.17676H34.1348C34.5586 9.17676 34.9051 9.52246 34.9053 9.94629C34.9053 11.0063 35.7638 11.867 36.8252 11.8672C37.8855 11.8672 38.7461 11.0066 38.7461 9.94629C38.746 7.81474 37.2921 6.01799 35.3252 5.49219V5.33398C35.3251 4.27264 34.4643 3.4141 33.4043 3.41406C32.343 3.41406 31.4835 4.27273 31.4834 5.33398V5.49023C29.511 6.01297 28.0529 7.81027 28.0527 9.94629C28.0527 11.4012 28.7506 12.7868 29.9199 13.6533L33.2373 16.1074L34.6016 17.1172C34.7709 17.2425 34.8811 17.434 34.9072 17.6406L34.9141 17.7305V17.7461C34.9173 18.1715 34.5756 18.5181 34.1475 18.5215C33.2491 18.5267 33.5854 18.5238 32.6807 18.5293C32.2677 18.529 31.9497 18.2227 31.9102 17.8428L31.9062 17.7656L31.8945 17.5693C31.7909 16.6054 30.9743 15.8565 29.9854 15.8564H29.9727C28.9122 15.8628 28.0581 16.7281 28.0645 17.7881C28.0714 19.0193 28.5584 20.1752 29.4346 21.04C30.0122 21.6113 30.7168 22.0083 31.4834 22.2119V22.373C31.4836 23.4342 32.3431 24.293 33.4043 24.293C34.4643 24.2929 35.325 23.4343 35.3252 22.373V22.207C36.1147 21.9993 36.8377 21.5857 37.4248 20.9912C38.2368 20.1694 38.7027 19.0958 38.751 17.9502L38.7549 17.7197V17.7051Z" stroke="url(#paint2_linear_1085_16651)" stroke-width="0.56"/>
<path d="M9.00879 35.2725C9.60794 34.9272 10.3704 35.1345 10.7139 35.7295L18.6016 49.3906C18.925 49.9514 18.7656 50.6575 18.252 51.0273L18.1445 51.0967L10.4277 55.5527C9.82966 55.8974 9.06664 55.6922 8.72168 55.0957L0.833984 41.4346C0.510952 40.8742 0.670514 40.1678 1.18359 39.7969L1.29102 39.7275L9.00879 35.2725Z" fill="url(#paint3_linear_1085_16651)"/>
<path d="M9.00879 35.2725C9.60794 34.9272 10.3704 35.1345 10.7139 35.7295L18.6016 49.3906C18.925 49.9514 18.7656 50.6575 18.252 51.0273L18.1445 51.0967L10.4277 55.5527C9.82966 55.8974 9.06664 55.6922 8.72168 55.0957L0.833984 41.4346C0.510952 40.8742 0.670514 40.1678 1.18359 39.7969L1.29102 39.7275L9.00879 35.2725Z" fill="url(#paint4_radial_1085_16651)" style="mix-blend-mode:overlay"/>
<path d="M9.00879 35.2725C9.60794 34.9272 10.3704 35.1345 10.7139 35.7295L18.6016 49.3906C18.925 49.9514 18.7656 50.6575 18.252 51.0273L18.1445 51.0967L10.4277 55.5527C9.82966 55.8974 9.06664 55.6922 8.72168 55.0957L0.833984 41.4346C0.510952 40.8742 0.670514 40.1678 1.18359 39.7969L1.29102 39.7275L9.00879 35.2725Z" stroke="url(#paint5_linear_1085_16651)" stroke-width="0.56"/>
<path d="M24.917 30.0249C27.1945 30.025 29.2977 30.7668 31 32.022C31.4953 32.3873 31.9572 32.7965 32.3789 33.2427L32.4619 33.3296H38.9805C39.9492 33.3297 40.7747 34.0334 40.9082 34.9575L40.9248 35.145C40.9696 36.2228 40.108 37.1187 39.0322 37.1187H30.6279C29.5693 37.1188 28.708 37.9769 28.708 39.0396C28.7081 40.1008 29.568 40.9593 30.6279 40.9595H38.4873C39.6819 40.9594 40.8269 40.627 41.8154 40.0054L41.8164 40.0063C42.0655 39.8513 42.3035 39.676 42.5303 39.4839C43.0547 39.1051 49.017 34.8108 52.1289 32.5688V32.5679C53.0338 31.9158 54.2961 32.1211 54.9482 33.0269C55.6009 33.9321 55.396 35.1946 54.4912 35.8462L54.4902 35.8472L54.4863 35.8491C54.4852 35.8499 54.4842 35.8517 54.4824 35.853C54.4787 35.8558 54.473 35.8595 54.4658 35.8647C54.4515 35.8752 54.43 35.8905 54.4023 35.9106C54.3471 35.9509 54.2657 36.0102 54.1611 36.0864C53.9517 36.2392 53.6491 36.4607 53.2744 36.7339C52.5251 37.2801 51.4887 38.0347 50.3398 38.8706C48.0417 40.5428 45.2933 42.5388 43.4883 43.8354C42.6331 44.4497 41.8457 44.9571 41.1123 45.3784C39.0135 46.5859 36.6272 47.2065 34.2031 47.2065H21.7754L15.2207 35.855C16.9276 32.5206 20.915 30.0249 24.917 30.0249Z" fill="url(#paint6_linear_1085_16651)"/>
<path d="M24.917 30.0249C27.1945 30.025 29.2977 30.7668 31 32.022C31.4953 32.3873 31.9572 32.7965 32.3789 33.2427L32.4619 33.3296H38.9805C39.9492 33.3297 40.7747 34.0334 40.9082 34.9575L40.9248 35.145C40.9696 36.2228 40.108 37.1187 39.0322 37.1187H30.6279C29.5693 37.1188 28.708 37.9769 28.708 39.0396C28.7081 40.1008 29.568 40.9593 30.6279 40.9595H38.4873C39.6819 40.9594 40.8269 40.627 41.8154 40.0054L41.8164 40.0063C42.0655 39.8513 42.3035 39.676 42.5303 39.4839C43.0547 39.1051 49.017 34.8108 52.1289 32.5688V32.5679C53.0338 31.9158 54.2961 32.1211 54.9482 33.0269C55.6009 33.9321 55.396 35.1946 54.4912 35.8462L54.4902 35.8472L54.4863 35.8491C54.4852 35.8499 54.4842 35.8517 54.4824 35.853C54.4787 35.8558 54.473 35.8595 54.4658 35.8647C54.4515 35.8752 54.43 35.8905 54.4023 35.9106C54.3471 35.9509 54.2657 36.0102 54.1611 36.0864C53.9517 36.2392 53.6491 36.4607 53.2744 36.7339C52.5251 37.2801 51.4887 38.0347 50.3398 38.8706C48.0417 40.5428 45.2933 42.5388 43.4883 43.8354C42.6331 44.4497 41.8457 44.9571 41.1123 45.3784C39.0135 46.5859 36.6272 47.2065 34.2031 47.2065H21.7754L15.2207 35.855C16.9276 32.5206 20.915 30.0249 24.917 30.0249Z" fill="url(#paint7_radial_1085_16651)" style="mix-blend-mode:overlay"/>
<path d="M24.917 30.0249C27.1945 30.025 29.2977 30.7668 31 32.022C31.4953 32.3873 31.9572 32.7965 32.3789 33.2427L32.4619 33.3296H38.9805C39.9492 33.3297 40.7747 34.0334 40.9082 34.9575L40.9248 35.145C40.9696 36.2228 40.108 37.1187 39.0322 37.1187H30.6279C29.5693 37.1188 28.708 37.9769 28.708 39.0396C28.7081 40.1008 29.568 40.9593 30.6279 40.9595H38.4873C39.6819 40.9594 40.8269 40.627 41.8154 40.0054L41.8164 40.0063C42.0655 39.8513 42.3035 39.676 42.5303 39.4839C43.0547 39.1051 49.017 34.8108 52.1289 32.5688V32.5679C53.0338 31.9158 54.2961 32.1211 54.9482 33.0269C55.6009 33.9321 55.396 35.1946 54.4912 35.8462L54.4902 35.8472L54.4863 35.8491C54.4852 35.8499 54.4842 35.8517 54.4824 35.853C54.4787 35.8558 54.473 35.8595 54.4658 35.8647C54.4515 35.8752 54.43 35.8905 54.4023 35.9106C54.3471 35.9509 54.2657 36.0102 54.1611 36.0864C53.9517 36.2392 53.6491 36.4607 53.2744 36.7339C52.5251 37.2801 51.4887 38.0347 50.3398 38.8706C48.0417 40.5428 45.2933 42.5388 43.4883 43.8354C42.6331 44.4497 41.8457 44.9571 41.1123 45.3784C39.0135 46.5859 36.6272 47.2065 34.2031 47.2065H21.7754L15.2207 35.855C16.9276 32.5206 20.915 30.0249 24.917 30.0249Z" stroke="url(#paint8_linear_1085_16651)" stroke-width="0.56"/>
</g>
<defs>
<linearGradient id="paint0_linear_1085_16651" x1="19.5355" y1="26.8447" x2="54.4547" y2="23.3914" gradientUnits="userSpaceOnUse">
<stop stop-color="#7D4AE2"/>
<stop offset="0.804643" stop-color="#701D38"/>
</linearGradient>
<radialGradient id="paint1_radial_1085_16651" cx="0" cy="0" r="1" gradientTransform="matrix(-5.24761 -34.751 11.245 -20.0004 33.3887 33.4192)" gradientUnits="userSpaceOnUse">
<stop stop-color="#F2D25E"/>
<stop offset="1" stop-color="#F2D25E" stop-opacity="0"/>
</radialGradient>
<linearGradient id="paint2_linear_1085_16651" x1="19.5508" y1="13.8534" x2="47.2566" y2="13.8534" gradientUnits="userSpaceOnUse">
<stop stop-color="#51D1F4"/>
<stop offset="0.25" stop-color="white" stop-opacity="0.1"/>
<stop offset="0.75" stop-color="white" stop-opacity="0.1"/>
<stop offset="1" stop-color="#74288F"/>
</linearGradient>
<linearGradient id="paint3_linear_1085_16651" x1="0.37641" y1="55.341" x2="23.9489" y2="53.2863" gradientUnits="userSpaceOnUse">
<stop stop-color="#7D4AE2"/>
<stop offset="0.804643" stop-color="#701D38"/>
</linearGradient>
<radialGradient id="paint4_radial_1085_16651" cx="0" cy="0" r="1" gradientTransform="matrix(-3.53478 -26.5581 7.5746 -15.2851 9.7079 60.3655)" gradientUnits="userSpaceOnUse">
<stop stop-color="#F2D25E"/>
<stop offset="1" stop-color="#F2D25E" stop-opacity="0"/>
</radialGradient>
<linearGradient id="paint5_linear_1085_16651" x1="0.386719" y1="45.4125" x2="19.0493" y2="45.4125" gradientUnits="userSpaceOnUse">
<stop stop-color="#51D1F4"/>
<stop offset="0.25" stop-color="white" stop-opacity="0.1"/>
<stop offset="0.75" stop-color="white" stop-opacity="0.1"/>
<stop offset="1" stop-color="#74288F"/>
</linearGradient>
<linearGradient id="paint6_linear_1085_16651" x1="14.8799" y1="46.9343" x2="64.1509" y2="35.7537" gradientUnits="userSpaceOnUse">
<stop stop-color="#7D4AE2"/>
<stop offset="0.804643" stop-color="#701D38"/>
</linearGradient>
<radialGradient id="paint7_radial_1085_16651" cx="0" cy="0" r="1" gradientTransform="matrix(-7.71023 -22.2523 16.5221 -12.807 35.2341 51.1442)" gradientUnits="userSpaceOnUse">
<stop stop-color="#F2D25E"/>
<stop offset="1" stop-color="#F2D25E" stop-opacity="0"/>
</radialGradient>
<linearGradient id="paint8_linear_1085_16651" x1="14.9023" y1="38.6155" x2="55.61" y2="38.6155" gradientUnits="userSpaceOnUse">
<stop stop-color="#51D1F4"/>
<stop offset="0.25" stop-color="white" stop-opacity="0.1"/>
<stop offset="0.75" stop-color="white" stop-opacity="0.1"/>
<stop offset="1" stop-color="#74288F"/>
</linearGradient>
<clipPath id="clip0_1085_16651">
<rect width="56" height="56" fill="white"/>
</clipPath>
</defs>
</svg>
