<svg width="56" height="56" viewBox="0 0 56 56" fill="none" xmlns="http://www.w3.org/2000/svg">
<path d="M27.8555 41.0015C34.3743 41.0015 40.1239 42.4368 43.668 44.5522C46.5323 46.2622 47.9873 48.4565 47.9873 50.6382C47.9871 51.4494 47.3288 52.1079 46.5176 52.1079H9.19141C8.38015 52.1079 7.72186 51.4494 7.72168 50.6382C7.72168 48.4565 9.17966 46.2623 12.042 44.5522C15.5885 42.437 21.3371 41.0015 27.8555 41.0015Z" fill="url(#paint0_linear_1085_16668)"/>
<path d="M27.8555 41.0015C34.3743 41.0015 40.1239 42.4368 43.668 44.5522C46.5323 46.2622 47.9873 48.4565 47.9873 50.6382C47.9871 51.4494 47.3288 52.1079 46.5176 52.1079H9.19141C8.38015 52.1079 7.72186 51.4494 7.72168 50.6382C7.72168 48.4565 9.17966 46.2623 12.042 44.5522C15.5885 42.437 21.3371 41.0015 27.8555 41.0015Z" fill="url(#paint1_radial_1085_16668)" style="mix-blend-mode:overlay"/>
<path d="M27.8555 41.0015C34.3743 41.0015 40.1239 42.4368 43.668 44.5522C46.5323 46.2622 47.9873 48.4565 47.9873 50.6382C47.9871 51.4494 47.3288 52.1079 46.5176 52.1079H9.19141C8.38015 52.1079 7.72186 51.4494 7.72168 50.6382C7.72168 48.4565 9.17966 46.2623 12.042 44.5522C15.5885 42.437 21.3371 41.0015 27.8555 41.0015Z" stroke="url(#paint2_linear_1085_16668)" stroke-width="0.56"/>
<path d="M42.1582 18.3411C42.8834 17.9785 43.7674 18.2726 44.1299 18.9973C44.4698 19.6772 44.2328 20.4964 43.6025 20.8948L43.4717 20.969C39.2442 23.0839 36.261 27.1374 34.1377 31.2991L33.7246 32.1321C32.0481 35.6049 30.944 39.1176 30.2598 41.76C29.9175 43.0818 29.6806 44.1874 29.5283 44.9631C29.4522 45.3509 29.3972 45.6565 29.3613 45.8655C29.3434 45.9698 29.33 46.0503 29.3213 46.1047C29.3169 46.132 29.3137 46.1532 29.3115 46.1672C29.3105 46.1741 29.3091 46.1792 29.3086 46.1829V46.1887C29.1891 46.9901 28.4399 47.5454 27.6387 47.426C26.8375 47.3065 26.2818 46.5571 26.4014 45.7532L26.4023 45.7522C26.4025 45.7515 26.4022 45.7505 26.4023 45.7493C26.4029 45.7458 26.4042 45.7397 26.4053 45.7327C26.4074 45.7186 26.4106 45.6971 26.415 45.6692C26.424 45.6128 26.4373 45.5288 26.4561 45.4192C26.4936 45.1995 26.5515 44.8768 26.6318 44.4661C26.7926 43.6444 27.0445 42.4706 27.4072 41.0667C28.133 38.2576 29.3018 34.5312 31.0762 30.8538C33.5281 25.7712 37.1283 20.8562 42.1582 18.3411Z" fill="url(#paint3_linear_1085_16668)"/>
<path d="M42.1582 18.3411C42.8834 17.9785 43.7674 18.2726 44.1299 18.9973C44.4698 19.6772 44.2328 20.4964 43.6025 20.8948L43.4717 20.969C39.2442 23.0839 36.261 27.1374 34.1377 31.2991L33.7246 32.1321C32.0481 35.6049 30.944 39.1176 30.2598 41.76C29.9175 43.0818 29.6806 44.1874 29.5283 44.9631C29.4522 45.3509 29.3972 45.6565 29.3613 45.8655C29.3434 45.9698 29.33 46.0503 29.3213 46.1047C29.3169 46.132 29.3137 46.1532 29.3115 46.1672C29.3105 46.1741 29.3091 46.1792 29.3086 46.1829V46.1887C29.1891 46.9901 28.4399 47.5454 27.6387 47.426C26.8375 47.3065 26.2818 46.5571 26.4014 45.7532L26.4023 45.7522C26.4025 45.7515 26.4022 45.7505 26.4023 45.7493C26.4029 45.7458 26.4042 45.7397 26.4053 45.7327C26.4074 45.7186 26.4106 45.6971 26.415 45.6692C26.424 45.6128 26.4373 45.5288 26.4561 45.4192C26.4936 45.1995 26.5515 44.8768 26.6318 44.4661C26.7926 43.6444 27.0445 42.4706 27.4072 41.0667C28.133 38.2576 29.3018 34.5312 31.0762 30.8538C33.5281 25.7712 37.1283 20.8562 42.1582 18.3411Z" fill="url(#paint4_radial_1085_16668)" style="mix-blend-mode:overlay"/>
<path d="M42.1582 18.3411C42.8834 17.9785 43.7674 18.2726 44.1299 18.9973C44.4698 19.6772 44.2328 20.4964 43.6025 20.8948L43.4717 20.969C39.2442 23.0839 36.261 27.1374 34.1377 31.2991L33.7246 32.1321C32.0481 35.6049 30.944 39.1176 30.2598 41.76C29.9175 43.0818 29.6806 44.1874 29.5283 44.9631C29.4522 45.3509 29.3972 45.6565 29.3613 45.8655C29.3434 45.9698 29.33 46.0503 29.3213 46.1047C29.3169 46.132 29.3137 46.1532 29.3115 46.1672C29.3105 46.1741 29.3091 46.1792 29.3086 46.1829V46.1887C29.1891 46.9901 28.4399 47.5454 27.6387 47.426C26.8375 47.3065 26.2818 46.5571 26.4014 45.7532L26.4023 45.7522C26.4025 45.7515 26.4022 45.7505 26.4023 45.7493C26.4029 45.7458 26.4042 45.7397 26.4053 45.7327C26.4074 45.7186 26.4106 45.6971 26.415 45.6692C26.424 45.6128 26.4373 45.5288 26.4561 45.4192C26.4936 45.1995 26.5515 44.8768 26.6318 44.4661C26.7926 43.6444 27.0445 42.4706 27.4072 41.0667C28.133 38.2576 29.3018 34.5312 31.0762 30.8538C33.5281 25.7712 37.1283 20.8562 42.1582 18.3411Z" stroke="url(#paint5_linear_1085_16668)" stroke-width="0.56"/>
<path d="M50.7939 7.12671C51.5838 7.03459 52.3026 7.58497 52.4209 8.36792V8.3689L52.4219 8.36987C52.422 8.37063 52.4216 8.37223 52.4219 8.37378C52.4223 8.37703 52.4229 8.38201 52.4238 8.38843C52.4257 8.4017 52.429 8.4216 52.4326 8.448C52.4399 8.50122 52.4499 8.5809 52.4629 8.68433C52.4889 8.89118 52.5251 9.19486 52.5635 9.57886C52.6402 10.3469 52.7273 11.4373 52.7705 12.7244C52.857 15.3023 52.7652 18.6573 52.0586 21.7908C51.0134 26.4291 48.6258 30.4409 44.0869 31.5925C42.2831 32.0533 40.0706 32.0624 37.3721 31.3816C39.1761 28.149 41.5422 25.1695 44.7666 23.5583C46.921 22.4811 47.7939 19.858 46.7168 17.7039L46.5771 17.4265L46.3154 17.5935C41.3381 20.7591 36.7571 24.7214 32.7324 29.8005L30.9932 25.9451C30.3296 23.4664 29.9802 19.9363 31.7412 16.5535L31.9189 16.2263C34.0839 12.3798 39.2214 8.49086 50.7939 7.12671Z" fill="url(#paint6_linear_1085_16668)"/>
<path d="M50.7939 7.12671C51.5838 7.03459 52.3026 7.58497 52.4209 8.36792V8.3689L52.4219 8.36987C52.422 8.37063 52.4216 8.37223 52.4219 8.37378C52.4223 8.37703 52.4229 8.38201 52.4238 8.38843C52.4257 8.4017 52.429 8.4216 52.4326 8.448C52.4399 8.50122 52.4499 8.5809 52.4629 8.68433C52.4889 8.89118 52.5251 9.19486 52.5635 9.57886C52.6402 10.3469 52.7273 11.4373 52.7705 12.7244C52.857 15.3023 52.7652 18.6573 52.0586 21.7908C51.0134 26.4291 48.6258 30.4409 44.0869 31.5925C42.2831 32.0533 40.0706 32.0624 37.3721 31.3816C39.1761 28.149 41.5422 25.1695 44.7666 23.5583C46.921 22.4811 47.7939 19.858 46.7168 17.7039L46.5771 17.4265L46.3154 17.5935C41.3381 20.7591 36.7571 24.7214 32.7324 29.8005L30.9932 25.9451C30.3296 23.4664 29.9802 19.9363 31.7412 16.5535L31.9189 16.2263C34.0839 12.3798 39.2214 8.49086 50.7939 7.12671Z" fill="url(#paint7_radial_1085_16668)" style="mix-blend-mode:overlay"/>
<path d="M50.7939 7.12671C51.5838 7.03459 52.3026 7.58497 52.4209 8.36792V8.3689L52.4219 8.36987C52.422 8.37063 52.4216 8.37223 52.4219 8.37378C52.4223 8.37703 52.4229 8.38201 52.4238 8.38843C52.4257 8.4017 52.429 8.4216 52.4326 8.448C52.4399 8.50122 52.4499 8.5809 52.4629 8.68433C52.4889 8.89118 52.5251 9.19486 52.5635 9.57886C52.6402 10.3469 52.7273 11.4373 52.7705 12.7244C52.857 15.3023 52.7652 18.6573 52.0586 21.7908C51.0134 26.4291 48.6258 30.4409 44.0869 31.5925C42.2831 32.0533 40.0706 32.0624 37.3721 31.3816C39.1761 28.149 41.5422 25.1695 44.7666 23.5583C46.921 22.4811 47.7939 19.858 46.7168 17.7039L46.5771 17.4265L46.3154 17.5935C41.3381 20.7591 36.7571 24.7214 32.7324 29.8005L30.9932 25.9451C30.3296 23.4664 29.9802 19.9363 31.7412 16.5535L31.9189 16.2263C34.0839 12.3798 39.2214 8.49086 50.7939 7.12671Z" stroke="url(#paint8_linear_1085_16668)" stroke-width="0.56"/>
<path d="M12.8877 14.2307C13.2525 13.503 14.1349 13.2088 14.8623 13.5715C23.663 17.972 27.3241 26.137 28.7314 33.2737C29.4197 36.7685 29.5644 39.9945 29.5371 42.3469C29.5235 43.5226 29.4672 44.4792 29.4141 45.1409C29.3875 45.4717 29.3617 45.7288 29.3428 45.9026C29.3333 45.9895 29.3257 46.0558 29.3203 46.0999C29.3177 46.1216 29.3149 46.1378 29.3135 46.1487C29.3128 46.1541 29.3128 46.1588 29.3125 46.1614L29.3115 46.1643V46.1653C29.2036 46.9709 28.4648 47.5348 27.6592 47.427L27.5107 47.3997C26.7876 47.228 26.2965 46.5305 26.3975 45.7776V45.7717C26.3978 45.7688 26.3987 45.7644 26.3994 45.759C26.4008 45.7481 26.4028 45.7321 26.4053 45.7112C26.4104 45.6687 26.4171 45.6054 26.4258 45.5237C26.4432 45.3603 26.4673 45.1207 26.4912 44.8137C26.539 44.1993 26.589 43.3141 26.5996 42.2278C26.6207 40.0558 26.4827 37.075 25.8457 33.842C24.6009 27.5286 21.4387 20.1461 13.5469 16.2014C12.8217 15.8388 12.5259 14.9552 12.8877 14.2307Z" fill="url(#paint9_linear_1085_16668)"/>
<path d="M12.8877 14.2307C13.2525 13.503 14.1349 13.2088 14.8623 13.5715C23.663 17.972 27.3241 26.137 28.7314 33.2737C29.4197 36.7685 29.5644 39.9945 29.5371 42.3469C29.5235 43.5226 29.4672 44.4792 29.4141 45.1409C29.3875 45.4717 29.3617 45.7288 29.3428 45.9026C29.3333 45.9895 29.3257 46.0558 29.3203 46.0999C29.3177 46.1216 29.3149 46.1378 29.3135 46.1487C29.3128 46.1541 29.3128 46.1588 29.3125 46.1614L29.3115 46.1643V46.1653C29.2036 46.9709 28.4648 47.5348 27.6592 47.427L27.5107 47.3997C26.7876 47.228 26.2965 46.5305 26.3975 45.7776V45.7717C26.3978 45.7688 26.3987 45.7644 26.3994 45.759C26.4008 45.7481 26.4028 45.7321 26.4053 45.7112C26.4104 45.6687 26.4171 45.6054 26.4258 45.5237C26.4432 45.3603 26.4673 45.1207 26.4912 44.8137C26.539 44.1993 26.589 43.3141 26.5996 42.2278C26.6207 40.0558 26.4827 37.075 25.8457 33.842C24.6009 27.5286 21.4387 20.1461 13.5469 16.2014C12.8217 15.8388 12.5259 14.9552 12.8877 14.2307Z" fill="url(#paint10_radial_1085_16668)" style="mix-blend-mode:overlay"/>
<path d="M12.8877 14.2307C13.2525 13.503 14.1349 13.2088 14.8623 13.5715C23.663 17.972 27.3241 26.137 28.7314 33.2737C29.4197 36.7685 29.5644 39.9945 29.5371 42.3469C29.5235 43.5226 29.4672 44.4792 29.4141 45.1409C29.3875 45.4717 29.3617 45.7288 29.3428 45.9026C29.3333 45.9895 29.3257 46.0558 29.3203 46.0999C29.3177 46.1216 29.3149 46.1378 29.3135 46.1487C29.3128 46.1541 29.3128 46.1588 29.3125 46.1614L29.3115 46.1643V46.1653C29.2036 46.9709 28.4648 47.5348 27.6592 47.427L27.5107 47.3997C26.7876 47.228 26.2965 46.5305 26.3975 45.7776V45.7717C26.3978 45.7688 26.3987 45.7644 26.3994 45.759C26.4008 45.7481 26.4028 45.7321 26.4053 45.7112C26.4104 45.6687 26.4171 45.6054 26.4258 45.5237C26.4432 45.3603 26.4673 45.1207 26.4912 44.8137C26.539 44.1993 26.589 43.3141 26.5996 42.2278C26.6207 40.0558 26.4827 37.075 25.8457 33.842C24.6009 27.5286 21.4387 20.1461 13.5469 16.2014C12.8217 15.8388 12.5259 14.9552 12.8877 14.2307Z" stroke="url(#paint11_linear_1085_16668)" stroke-width="0.56"/>
<path d="M4.65625 3.89746C16.3104 3.78592 21.8979 6.99474 24.5303 10.5371C27.21 14.1396 27.0267 18.3556 26.5273 20.9756L25.5107 25.125C24.0609 23.7309 20.6976 20.7116 17.5469 18.0156C15.8241 16.5415 14.1598 15.1588 12.9033 14.1875C12.2766 13.703 11.745 13.3158 11.3555 13.0703C11.1632 12.9491 10.9915 12.8538 10.8545 12.8008C10.7891 12.7755 10.7075 12.7503 10.624 12.749C10.5473 12.7479 10.4188 12.7699 10.335 12.8809L10.3018 12.9346C9.22458 15.0889 10.0998 17.7119 12.2539 18.7891C16.031 20.6787 18.5542 23.4812 20.249 26.5508C17.9984 27.3267 16.0595 27.5231 14.4014 27.3193V27.3184C9.75396 26.7493 6.87813 23.0713 5.25488 18.6016C4.15812 15.5825 3.64316 12.2669 3.40332 9.69922C3.28355 8.41691 3.23285 7.32423 3.21191 6.55273C3.20145 6.16706 3.19861 5.86173 3.19824 5.65332C3.19806 5.54915 3.19871 5.46873 3.19922 5.41504C3.19947 5.38842 3.19902 5.36786 3.19922 5.35449C3.19932 5.34799 3.20014 5.34305 3.2002 5.33984V5.33594C3.21676 4.59151 3.78242 3.9857 4.50879 3.90625L4.65625 3.89746Z" fill="url(#paint12_linear_1085_16668)"/>
<path d="M4.65625 3.89746C16.3104 3.78592 21.8979 6.99474 24.5303 10.5371C27.21 14.1396 27.0267 18.3556 26.5273 20.9756L25.5107 25.125C24.0609 23.7309 20.6976 20.7116 17.5469 18.0156C15.8241 16.5415 14.1598 15.1588 12.9033 14.1875C12.2766 13.703 11.745 13.3158 11.3555 13.0703C11.1632 12.9491 10.9915 12.8538 10.8545 12.8008C10.7891 12.7755 10.7075 12.7503 10.624 12.749C10.5473 12.7479 10.4188 12.7699 10.335 12.8809L10.3018 12.9346C9.22458 15.0889 10.0998 17.7119 12.2539 18.7891C16.031 20.6787 18.5542 23.4812 20.249 26.5508C17.9984 27.3267 16.0595 27.5231 14.4014 27.3193V27.3184C9.75396 26.7493 6.87813 23.0713 5.25488 18.6016C4.15812 15.5825 3.64316 12.2669 3.40332 9.69922C3.28355 8.41691 3.23285 7.32423 3.21191 6.55273C3.20145 6.16706 3.19861 5.86173 3.19824 5.65332C3.19806 5.54915 3.19871 5.46873 3.19922 5.41504C3.19947 5.38842 3.19902 5.36786 3.19922 5.35449C3.19932 5.34799 3.20014 5.34305 3.2002 5.33984V5.33594C3.21676 4.59151 3.78242 3.9857 4.50879 3.90625L4.65625 3.89746Z" fill="url(#paint13_radial_1085_16668)" style="mix-blend-mode:overlay"/>
<path d="M4.65625 3.89746C16.3104 3.78592 21.8979 6.99474 24.5303 10.5371C27.21 14.1396 27.0267 18.3556 26.5273 20.9756L25.5107 25.125C24.0609 23.7309 20.6976 20.7116 17.5469 18.0156C15.8241 16.5415 14.1598 15.1588 12.9033 14.1875C12.2766 13.703 11.745 13.3158 11.3555 13.0703C11.1632 12.9491 10.9915 12.8538 10.8545 12.8008C10.7891 12.7755 10.7075 12.7503 10.624 12.749C10.5473 12.7479 10.4188 12.7699 10.335 12.8809L10.3018 12.9346C9.22458 15.0889 10.0998 17.7119 12.2539 18.7891C16.031 20.6787 18.5542 23.4812 20.249 26.5508C17.9984 27.3267 16.0595 27.5231 14.4014 27.3193V27.3184C9.75396 26.7493 6.87813 23.0713 5.25488 18.6016C4.15812 15.5825 3.64316 12.2669 3.40332 9.69922C3.28355 8.41691 3.23285 7.32423 3.21191 6.55273C3.20145 6.16706 3.19861 5.86173 3.19824 5.65332C3.19806 5.54915 3.19871 5.46873 3.19922 5.41504C3.19947 5.38842 3.19902 5.36786 3.19922 5.35449C3.19932 5.34799 3.20014 5.34305 3.2002 5.33984V5.33594C3.21676 4.59151 3.78242 3.9857 4.50879 3.90625L4.65625 3.89746Z" stroke="url(#paint14_linear_1085_16668)" stroke-width="0.56"/>
<defs>
<linearGradient id="paint0_linear_1085_16668" x1="7.41885" y1="52.0248" x2="53.8202" y2="35.9659" gradientUnits="userSpaceOnUse">
<stop stop-color="#7D4AE2"/>
<stop offset="0.804643" stop-color="#701D38"/>
</linearGradient>
<radialGradient id="paint1_radial_1085_16668" cx="0" cy="0" r="1" gradientTransform="matrix(-7.73271 -14.6328 16.5702 -8.42167 27.8325 54.7932)" gradientUnits="userSpaceOnUse">
<stop stop-color="#F2D25E"/>
<stop offset="1" stop-color="#F2D25E" stop-opacity="0"/>
</radialGradient>
<linearGradient id="paint2_linear_1085_16668" x1="7.44141" y1="46.5545" x2="48.2677" y2="46.5545" gradientUnits="userSpaceOnUse">
<stop stop-color="#51D1F4"/>
<stop offset="0.25" stop-color="white" stop-opacity="0.1"/>
<stop offset="0.75" stop-color="white" stop-opacity="0.1"/>
<stop offset="1" stop-color="#74288F"/>
</linearGradient>
<linearGradient id="paint3_linear_1085_16668" x1="26.0953" y1="46.7942" x2="49.5015" y2="45.361" gradientUnits="userSpaceOnUse">
<stop stop-color="#7D4AE2"/>
<stop offset="0.804643" stop-color="#701D38"/>
</linearGradient>
<radialGradient id="paint4_radial_1085_16668" cx="0" cy="0" r="1" gradientTransform="matrix(-3.49644 -37.397 7.49243 -21.5233 35.3255 53.8693)" gradientUnits="userSpaceOnUse">
<stop stop-color="#F2D25E"/>
<stop offset="1" stop-color="#F2D25E" stop-opacity="0"/>
</radialGradient>
<linearGradient id="paint5_linear_1085_16668" x1="26.1055" y1="32.8138" x2="44.5656" y2="32.8138" gradientUnits="userSpaceOnUse">
<stop stop-color="#51D1F4"/>
<stop offset="0.25" stop-color="white" stop-opacity="0.1"/>
<stop offset="0.75" stop-color="white" stop-opacity="0.1"/>
<stop offset="1" stop-color="#74288F"/>
</linearGradient>
<linearGradient id="paint6_linear_1085_16668" x1="30.1592" y1="31.4105" x2="59.0806" y2="28.8273" gradientUnits="userSpaceOnUse">
<stop stop-color="#7D4AE2"/>
<stop offset="0.804643" stop-color="#701D38"/>
</linearGradient>
<radialGradient id="paint7_radial_1085_16668" cx="0" cy="0" r="1" gradientTransform="matrix(-4.3385 -31.8114 9.29686 -18.3086 41.6124 37.4289)" gradientUnits="userSpaceOnUse">
<stop stop-color="#F2D25E"/>
<stop offset="1" stop-color="#F2D25E" stop-opacity="0"/>
</radialGradient>
<linearGradient id="paint8_linear_1085_16668" x1="30.1719" y1="19.5182" x2="53.0778" y2="19.5182" gradientUnits="userSpaceOnUse">
<stop stop-color="#51D1F4"/>
<stop offset="0.25" stop-color="white" stop-opacity="0.1"/>
<stop offset="0.75" stop-color="white" stop-opacity="0.1"/>
<stop offset="1" stop-color="#74288F"/>
</linearGradient>
<linearGradient id="paint9_linear_1085_16668" x1="12.4435" y1="46.6443" x2="34.4922" y2="45.5493" gradientUnits="userSpaceOnUse">
<stop stop-color="#7D4AE2"/>
<stop offset="0.804643" stop-color="#701D38"/>
</linearGradient>
<radialGradient id="paint10_radial_1085_16668" cx="0" cy="0" r="1" gradientTransform="matrix(-3.28944 -43.3772 7.04886 -24.9651 21.1273 54.8508)" gradientUnits="userSpaceOnUse">
<stop stop-color="#F2D25E"/>
<stop offset="1" stop-color="#F2D25E" stop-opacity="0"/>
</radialGradient>
<linearGradient id="paint11_linear_1085_16668" x1="12.4531" y1="30.4283" x2="29.8204" y2="30.4283" gradientUnits="userSpaceOnUse">
<stop stop-color="#51D1F4"/>
<stop offset="0.25" stop-color="white" stop-opacity="0.1"/>
<stop offset="0.75" stop-color="white" stop-opacity="0.1"/>
<stop offset="1" stop-color="#74288F"/>
</linearGradient>
<linearGradient id="paint12_linear_1085_16668" x1="2.90461" y1="26.9255" x2="33.3888" y2="23.8944" gradientUnits="userSpaceOnUse">
<stop stop-color="#7D4AE2"/>
<stop offset="0.804643" stop-color="#701D38"/>
</linearGradient>
<radialGradient id="paint13_radial_1085_16668" cx="0" cy="0" r="1" gradientTransform="matrix(-4.5816 -30.1769 9.8178 -17.3679 14.9996 32.6347)" gradientUnits="userSpaceOnUse">
<stop stop-color="#F2D25E"/>
<stop offset="1" stop-color="#F2D25E" stop-opacity="0"/>
</radialGradient>
<linearGradient id="paint14_linear_1085_16668" x1="2.91797" y1="15.6442" x2="27.1074" y2="15.6442" gradientUnits="userSpaceOnUse">
<stop stop-color="#51D1F4"/>
<stop offset="0.25" stop-color="white" stop-opacity="0.1"/>
<stop offset="0.75" stop-color="white" stop-opacity="0.1"/>
<stop offset="1" stop-color="#74288F"/>
</linearGradient>
</defs>
</svg>
