<svg width="41" height="41" viewBox="0 0 41 41" fill="none" xmlns="http://www.w3.org/2000/svg">
<g clip-path="url(#clip0_115_100)">
<path d="M19.6462 8.02097L18.9092 8.65349C18.0996 9.34824 17.6948 9.69561 17.2078 9.84578C16.7209 9.99594 16.207 9.93188 15.1791 9.80378L14.2433 9.68715C10.6262 9.23634 8.81759 9.01093 7.95282 10.1366C7.08805 11.2622 7.73979 12.9934 9.04327 16.4558L9.3805 17.3516C9.7509 18.3355 9.93611 18.8274 9.91048 19.3445C9.88485 19.8615 9.65129 20.345 9.18416 21.3121L8.75888 22.1926C7.11505 25.5959 6.29313 27.2976 7.04469 28.4556C7.79624 29.6137 9.62354 29.4612 13.2781 29.1562L14.2236 29.0773C15.2621 28.9906 15.7814 28.9473 16.2525 29.1167C16.7236 29.286 17.0932 29.6489 17.8324 30.3748L18.5053 31.0356C21.1065 33.5897 22.4071 34.8668 23.7364 34.4569C25.0656 34.047 25.5432 32.2215 26.4984 28.5706L26.7455 27.6261C26.8842 27.0959 26.9875 26.7011 27.0976 26.3869L34.8504 31.8154C35.3453 32.1619 36.0273 32.0417 36.3737 31.5468C36.7202 31.052 36.6 30.37 36.1051 30.0235L28.618 24.781C28.782 24.6864 28.9655 24.5834 29.1722 24.4674L30.0134 23.9953C33.2648 22.1706 34.8906 21.2582 34.9605 19.8468C35.0305 18.4354 33.4984 17.4597 30.4341 15.5083L29.6413 15.0035C28.7706 14.449 28.3352 14.1717 28.0599 13.7475C27.7846 13.3233 27.7005 12.8001 27.5324 11.7539L27.3793 10.8013C26.7876 7.11937 26.4918 5.27842 25.2058 4.81605C23.9197 4.35368 22.4952 5.57612 19.6462 8.02097Z" fill="url(#paint0_linear_115_100)"/>
<path d="M19.6462 8.02097L18.9092 8.65349C18.0996 9.34824 17.6948 9.69561 17.2078 9.84578C16.7209 9.99594 16.207 9.93188 15.1791 9.80378L14.2433 9.68715C10.6262 9.23634 8.81759 9.01093 7.95282 10.1366C7.08805 11.2622 7.73979 12.9934 9.04327 16.4558L9.3805 17.3516C9.7509 18.3355 9.93611 18.8274 9.91048 19.3445C9.88485 19.8615 9.65129 20.345 9.18416 21.3121L8.75888 22.1926C7.11505 25.5959 6.29313 27.2976 7.04469 28.4556C7.79624 29.6137 9.62354 29.4612 13.2781 29.1562L14.2236 29.0773C15.2621 28.9906 15.7814 28.9473 16.2525 29.1167C16.7236 29.286 17.0932 29.6489 17.8324 30.3748L18.5053 31.0356C21.1065 33.5897 22.4071 34.8668 23.7364 34.4569C25.0656 34.047 25.5432 32.2215 26.4984 28.5706L26.7455 27.6261C26.8842 27.0959 26.9875 26.7011 27.0976 26.3869L34.8504 31.8154C35.3453 32.1619 36.0273 32.0417 36.3737 31.5468C36.7202 31.052 36.6 30.37 36.1051 30.0235L28.618 24.781C28.782 24.6864 28.9655 24.5834 29.1722 24.4674L30.0134 23.9953C33.2648 22.1706 34.8906 21.2582 34.9605 19.8468C35.0305 18.4354 33.4984 17.4597 30.4341 15.5083L29.6413 15.0035C28.7706 14.449 28.3352 14.1717 28.0599 13.7475C27.7846 13.3233 27.7005 12.8001 27.5324 11.7539L27.3793 10.8013C26.7876 7.11937 26.4918 5.27842 25.2058 4.81605C23.9197 4.35368 22.4952 5.57612 19.6462 8.02097Z" fill="url(#paint1_radial_115_100)" style="mix-blend-mode:overlay"/>
</g>
<defs>
<linearGradient id="paint0_linear_115_100" x1="8.27018" y1="36.2762" x2="43.8409" y2="26.3124" gradientUnits="userSpaceOnUse">
<stop stop-color="#7D4AE2"/>
<stop offset="0.804643" stop-color="#701D38"/>
</linearGradient>
<radialGradient id="paint1_radial_115_100" cx="0" cy="0" r="1" gradientTransform="matrix(-11.7928 -35.0669 8.00204 -22.7899 23.8341 40.5595)" gradientUnits="userSpaceOnUse">
<stop stop-color="#F2D25E"/>
<stop offset="1" stop-color="#F2D25E" stop-opacity="0"/>
</radialGradient>
<clipPath id="clip0_115_100">
<rect width="35" height="35" fill="white" transform="translate(0 6.0777) rotate(-10)"/>
</clipPath>
</defs>
</svg>
