<svg width="29" height="29" viewBox="0 0 29 29" fill="none" xmlns="http://www.w3.org/2000/svg">
<path fill-rule="evenodd" clip-rule="evenodd" d="M13.625 0.0262128C20.8706 -0.410564 27.4494 4.6491 28.7402 11.9694C30.129 19.8459 24.8697 27.357 16.9932 28.7458C9.11667 30.1346 1.60561 24.8753 0.216766 16.9988C-1.07996 9.64472 3.70837 9.42399 7.7981 9.23547C10.1569 9.12673 12.2833 9.02871 12.8758 7.57891C13.281 6.58738 12.4767 5.58194 11.5993 4.96757C10.503 4.19996 10.2366 2.689 11.0042 1.59273C11.6186 0.715326 12.5558 0.0906636 13.625 0.0262128ZM17.0408 21.3852C16.8325 20.2037 17.6214 19.0771 18.8029 18.8687C19.9844 18.6604 21.111 19.4493 21.3193 20.6308C21.5277 21.8123 20.7388 22.9389 19.5573 23.1473C18.3758 23.3556 17.2492 22.5667 17.0408 21.3852ZM22.0709 11.6749C20.8895 11.8832 20.1006 13.0098 20.3089 14.1913C20.5172 15.3728 21.6439 16.1617 22.8253 15.9534C24.0068 15.745 24.7957 14.6184 24.5874 13.4369C24.3791 12.2554 23.2524 11.4665 22.0709 11.6749ZM6.38306 14.4411C5.20158 14.6494 4.41269 15.776 4.62101 16.9575C4.82934 18.139 5.956 18.9279 7.13748 18.7196C8.31896 18.5112 9.10785 17.3846 8.89952 16.2031C8.6912 15.0216 7.56454 14.2327 6.38306 14.4411ZM11.7932 20.1044C10.6117 20.3127 9.82282 21.4394 10.0311 22.6209C10.2395 23.8023 11.3661 24.5912 12.5476 24.3829C13.7291 24.1746 14.518 23.0479 14.3097 21.8664C14.1013 20.685 12.9747 19.8961 11.7932 20.1044Z" fill="url(#paint0_linear_723_22)"/>
<path fill-rule="evenodd" clip-rule="evenodd" d="M13.625 0.0262128C20.8706 -0.410564 27.4494 4.6491 28.7402 11.9694C30.129 19.8459 24.8697 27.357 16.9932 28.7458C9.11667 30.1346 1.60561 24.8753 0.216766 16.9988C-1.07996 9.64472 3.70837 9.42399 7.7981 9.23547C10.1569 9.12673 12.2833 9.02871 12.8758 7.57891C13.281 6.58738 12.4767 5.58194 11.5993 4.96757C10.503 4.19996 10.2366 2.689 11.0042 1.59273C11.6186 0.715326 12.5558 0.0906636 13.625 0.0262128ZM17.0408 21.3852C16.8325 20.2037 17.6214 19.0771 18.8029 18.8687C19.9844 18.6604 21.111 19.4493 21.3193 20.6308C21.5277 21.8123 20.7388 22.9389 19.5573 23.1473C18.3758 23.3556 17.2492 22.5667 17.0408 21.3852ZM22.0709 11.6749C20.8895 11.8832 20.1006 13.0098 20.3089 14.1913C20.5172 15.3728 21.6439 16.1617 22.8253 15.9534C24.0068 15.745 24.7957 14.6184 24.5874 13.4369C24.3791 12.2554 23.2524 11.4665 22.0709 11.6749ZM6.38306 14.4411C5.20158 14.6494 4.41269 15.776 4.62101 16.9575C4.82934 18.139 5.956 18.9279 7.13748 18.7196C8.31896 18.5112 9.10785 17.3846 8.89952 16.2031C8.6912 15.0216 7.56454 14.2327 6.38306 14.4411ZM11.7932 20.1044C10.6117 20.3127 9.82282 21.4394 10.0311 22.6209C10.2395 23.8023 11.3661 24.5912 12.5476 24.3829C13.7291 24.1746 14.518 23.0479 14.3097 21.8664C14.1013 20.685 12.9747 19.8961 11.7932 20.1044Z" fill="url(#paint1_radial_723_22)" style="mix-blend-mode:overlay"/>
<defs>
<linearGradient id="paint0_linear_723_22" x1="26.4104" y1="-1.33554" x2="-8.90898" y2="8.56755" gradientUnits="userSpaceOnUse">
<stop stop-color="#7D4AE2"/>
<stop offset="0.804643" stop-color="#701D38"/>
</linearGradient>
<radialGradient id="paint1_radial_723_22" cx="0" cy="0" r="1" gradientTransform="matrix(11.6942 34.7293 -7.95573 22.5775 10.9581 -5.5714)" gradientUnits="userSpaceOnUse">
<stop stop-color="#F2D25E"/>
<stop offset="1" stop-color="#F2D25E" stop-opacity="0"/>
</radialGradient>
</defs>
</svg>
