<svg width="47" height="47" viewBox="0 0 47 47" fill="none" xmlns="http://www.w3.org/2000/svg">
<path d="M39.9973 10.5739L10.8346 39.7365C9.99281 40.5783 8.62766 40.5783 7.78512 39.7358C6.94332 38.894 6.94332 37.5289 7.78512 36.687L36.9478 7.52438C37.7896 6.68257 39.1547 6.68257 39.9966 7.52438C40.8391 8.36691 40.8391 9.73207 39.9973 10.5739Z" fill="white"/>
<path d="M7.5242 10.5739L36.6869 39.7365C37.5287 40.5783 38.8938 40.5783 39.7364 39.7358C40.5782 38.894 40.5782 37.5289 39.7364 36.687L10.5737 7.52438C9.73189 6.68257 8.36673 6.68257 7.52493 7.52438C6.68239 8.36691 6.68239 9.73207 7.5242 10.5739Z" fill="white"/>
</svg>
