<svg width="41" height="41" viewBox="0 0 41 41" fill="none" xmlns="http://www.w3.org/2000/svg">
<path fill-rule="evenodd" clip-rule="evenodd" d="M16.6606 6.10169C9.66054 7.87823 4.99608 14.5398 5.72082 21.7253L10.0014 20.9705C10.598 20.8653 11.1668 21.2636 11.272 21.8601C11.3772 22.4567 10.9789 23.0255 10.3823 23.1307L6.10173 23.8855C7.87828 30.8855 14.5398 35.55 21.7253 34.8252L20.9705 30.5446C20.8653 29.9481 21.2636 29.3792 21.8602 29.2741C22.4567 29.1689 23.0256 29.5672 23.1308 30.1637L23.8856 34.4443C30.8856 32.6678 35.55 26.0063 34.8253 18.8208L30.5447 19.5756C29.9481 19.6807 29.3793 19.2824 29.2741 18.6859C29.1689 18.0893 29.5672 17.5205 30.1638 17.4153L34.4444 16.6605C32.6678 9.6605 26.0063 4.99604 18.8208 5.72078L19.5756 10.0014C19.6808 10.5979 19.2825 11.1668 18.6859 11.272C18.0894 11.3772 17.5205 10.9788 17.4153 10.3823L16.6606 6.10169ZM16.3126 20.9714C16.2074 20.3748 16.6057 19.806 17.2023 19.7008L19.0025 19.3833L18.685 17.5831C18.5799 16.9866 18.9782 16.4177 19.5747 16.3126C20.1713 16.2074 20.7401 16.6057 20.8453 17.2022L21.1627 19.0024L22.9629 18.685C23.5595 18.5798 24.1283 18.9781 24.2335 19.5747C24.3387 20.1712 23.9404 20.7401 23.3438 20.8453L21.5436 21.1627L21.8611 22.9629C21.9662 23.5594 21.5679 24.1283 20.9714 24.2335C20.3749 24.3387 19.806 23.9403 19.7008 23.3438L19.3834 21.5436L17.5832 21.861C16.9866 21.9662 16.4178 21.5679 16.3126 20.9714Z" fill="url(#paint0_linear_115_93)"/>
<path fill-rule="evenodd" clip-rule="evenodd" d="M16.6606 6.10169C9.66054 7.87823 4.99608 14.5398 5.72082 21.7253L10.0014 20.9705C10.598 20.8653 11.1668 21.2636 11.272 21.8601C11.3772 22.4567 10.9789 23.0255 10.3823 23.1307L6.10173 23.8855C7.87828 30.8855 14.5398 35.55 21.7253 34.8252L20.9705 30.5446C20.8653 29.9481 21.2636 29.3792 21.8602 29.2741C22.4567 29.1689 23.0256 29.5672 23.1308 30.1637L23.8856 34.4443C30.8856 32.6678 35.55 26.0063 34.8253 18.8208L30.5447 19.5756C29.9481 19.6807 29.3793 19.2824 29.2741 18.6859C29.1689 18.0893 29.5672 17.5205 30.1638 17.4153L34.4444 16.6605C32.6678 9.6605 26.0063 4.99604 18.8208 5.72078L19.5756 10.0014C19.6808 10.5979 19.2825 11.1668 18.6859 11.272C18.0894 11.3772 17.5205 10.9788 17.4153 10.3823L16.6606 6.10169ZM16.3126 20.9714C16.2074 20.3748 16.6057 19.806 17.2023 19.7008L19.0025 19.3833L18.685 17.5831C18.5799 16.9866 18.9782 16.4177 19.5747 16.3126C20.1713 16.2074 20.7401 16.6057 20.8453 17.2022L21.1627 19.0024L22.9629 18.685C23.5595 18.5798 24.1283 18.9781 24.2335 19.5747C24.3387 20.1712 23.9404 20.7401 23.3438 20.8453L21.5436 21.1627L21.8611 22.9629C21.9662 23.5594 21.5679 24.1283 20.9714 24.2335C20.3749 24.3387 19.806 23.9403 19.7008 23.3438L19.3834 21.5436L17.5832 21.861C16.9866 21.9662 16.4178 21.5679 16.3126 20.9714Z" fill="url(#paint1_radial_115_93)" style="mix-blend-mode:overlay"/>
<defs>
<linearGradient id="paint0_linear_115_93" x1="8.27018" y1="36.2762" x2="43.8409" y2="26.3124" gradientUnits="userSpaceOnUse">
<stop stop-color="#7D4AE2"/>
<stop offset="0.804643" stop-color="#701D38"/>
</linearGradient>
<radialGradient id="paint1_radial_115_93" cx="0" cy="0" r="1" gradientTransform="matrix(-11.7928 -35.0669 8.00204 -22.79 23.8341 40.5595)" gradientUnits="userSpaceOnUse">
<stop stop-color="#F2D25E"/>
<stop offset="1" stop-color="#F2D25E" stop-opacity="0"/>
</radialGradient>
</defs>
</svg>
