<svg width="16" height="16" viewBox="0 0 16 16" fill="none" xmlns="http://www.w3.org/2000/svg">
<g clip-path="url(#clip0_178_8382)">
<path d="M15.9838 3.40422C16.0067 3.60716 16.0045 3.98088 15.9838 4.18597C15.9166 4.85981 15.5558 5.68442 15.1291 6.20964C14.4903 6.99495 11.7569 9.77035 10.9852 10.2391C9.11074 11.3781 6.49458 10.7393 5.64062 8.66205C5.92647 8.38694 6.45956 8.04823 6.86117 8.02822C7.96452 7.9732 8.68698 9.1501 9.96684 8.29619C10.4178 7.99535 13.2097 5.20709 13.5277 4.74976C14.4338 3.4471 13.3241 1.8436 11.7619 2.06011C10.7758 2.19659 9.46376 4.09807 8.66555 4.72118C8.60623 4.74762 7.78873 4.39891 7.63366 4.39891H6.38953C6.39811 4.24242 6.54174 4.08878 6.6375 3.97159C7.18631 3.29775 9.51092 0.947521 10.1784 0.54736C12.5666 -0.885358 15.6765 0.640969 15.9845 3.40422H15.9838Z" fill="url(#paint0_linear_178_8382)"/>
<path d="M15.9838 3.40422C16.0067 3.60716 16.0045 3.98088 15.9838 4.18597C15.9166 4.85981 15.5558 5.68442 15.1291 6.20964C14.4903 6.99495 11.7569 9.77035 10.9852 10.2391C9.11074 11.3781 6.49458 10.7393 5.64062 8.66205C5.92647 8.38694 6.45956 8.04823 6.86117 8.02822C7.96452 7.9732 8.68698 9.1501 9.96684 8.29619C10.4178 7.99535 13.2097 5.20709 13.5277 4.74976C14.4338 3.4471 13.3241 1.8436 11.7619 2.06011C10.7758 2.19659 9.46376 4.09807 8.66555 4.72118C8.60623 4.74762 7.78873 4.39891 7.63366 4.39891H6.38953C6.39811 4.24242 6.54174 4.08878 6.6375 3.97159C7.18631 3.29775 9.51092 0.947521 10.1784 0.54736C12.5666 -0.885358 15.6765 0.640969 15.9845 3.40422H15.9838Z" fill="url(#paint1_radial_178_8382)" style="mix-blend-mode:overlay"/>
<path d="M3.40445 15.9836C0.638934 15.6749 -0.883888 12.5636 0.547465 10.1777C0.979086 9.45809 3.86966 6.59408 4.61142 5.99742C6.35006 4.59971 9.3028 4.97415 10.3383 7.02854C9.96667 7.42656 9.2442 7.80957 8.69396 7.81386C8.38168 7.816 8.1037 7.48659 7.78784 7.37082C7.12826 7.1293 6.49226 7.19933 5.89771 7.56805C5.41106 7.8696 2.5455 10.7265 2.27895 11.1988C1.32638 12.8873 3.29583 14.6016 4.78936 13.4961C5.18525 13.2032 6.95533 11.2024 7.1447 11.1652C7.93862 11.5153 8.71968 11.5332 9.56935 11.4525C9.63581 11.446 9.79302 11.3896 9.72871 11.5411C9.71156 11.5811 9.43715 11.9005 9.37569 11.9705C8.6375 12.8173 6.28503 15.2418 5.37033 15.6413C5.03232 15.7885 4.54568 15.9486 4.18552 15.9843C3.98043 16.005 3.60669 16.0072 3.40374 15.9843L3.40445 15.9836Z" fill="url(#paint2_linear_178_8382)"/>
<path d="M3.40445 15.9836C0.638934 15.6749 -0.883888 12.5636 0.547465 10.1777C0.979086 9.45809 3.86966 6.59408 4.61142 5.99742C6.35006 4.59971 9.3028 4.97415 10.3383 7.02854C9.96667 7.42656 9.2442 7.80957 8.69396 7.81386C8.38168 7.816 8.1037 7.48659 7.78784 7.37082C7.12826 7.1293 6.49226 7.19933 5.89771 7.56805C5.41106 7.8696 2.5455 10.7265 2.27895 11.1988C1.32638 12.8873 3.29583 14.6016 4.78936 13.4961C5.18525 13.2032 6.95533 11.2024 7.1447 11.1652C7.93862 11.5153 8.71968 11.5332 9.56935 11.4525C9.63581 11.446 9.79302 11.3896 9.72871 11.5411C9.71156 11.5811 9.43715 11.9005 9.37569 11.9705C8.6375 12.8173 6.28503 15.2418 5.37033 15.6413C5.03232 15.7885 4.54568 15.9486 4.18552 15.9843C3.98043 16.005 3.60669 16.0072 3.40374 15.9843L3.40445 15.9836Z" fill="url(#paint3_radial_178_8382)" style="mix-blend-mode:overlay"/>
</g>
<defs>
<linearGradient id="paint0_linear_178_8382" x1="5.6349" y1="10.4621" x2="18.7017" y2="9.22233" gradientUnits="userSpaceOnUse">
<stop stop-color="#7D4AE2"/>
<stop offset="0.804643" stop-color="#701D38"/>
</linearGradient>
<radialGradient id="paint1_radial_178_8382" cx="0" cy="0" r="1" gradientTransform="matrix(-1.96215 -13.5439 4.20464 -7.79497 10.8148 13.0245)" gradientUnits="userSpaceOnUse">
<stop stop-color="#F2D25E"/>
<stop offset="1" stop-color="#F2D25E" stop-opacity="0"/>
</radialGradient>
<linearGradient id="paint2_linear_178_8382" x1="-0.00571081" y1="15.6635" x2="13.0355" y2="14.4329" gradientUnits="userSpaceOnUse">
<stop stop-color="#7D4AE2"/>
<stop offset="0.804643" stop-color="#701D38"/>
</linearGradient>
<radialGradient id="paint3_radial_178_8382" cx="0" cy="0" r="1" gradientTransform="matrix(-1.95812 -13.5906 4.196 -7.82187 5.16353 18.2347)" gradientUnits="userSpaceOnUse">
<stop stop-color="#F2D25E"/>
<stop offset="1" stop-color="#F2D25E" stop-opacity="0"/>
</radialGradient>
<clipPath id="clip0_178_8382">
<rect width="16" height="16" fill="white"/>
</clipPath>
</defs>
</svg>
