<svg width="16" height="16" viewBox="0 0 16 16" fill="none" xmlns="http://www.w3.org/2000/svg">
<path d="M14.2775 5.58374L8.2775 1.58374C8.19533 1.52892 8.09877 1.49966 8 1.49966C7.90123 1.49966 7.80467 1.52892 7.7225 1.58374L1.7225 5.58374C1.65401 5.62944 1.59786 5.69134 1.55904 5.76396C1.52023 5.83657 1.49995 5.91765 1.5 5.99999V12.5C1.5 12.7652 1.60536 13.0196 1.79289 13.2071C1.98043 13.3946 2.23478 13.5 2.5 13.5H13.5C13.7652 13.5 14.0196 13.3946 14.2071 13.2071C14.3946 13.0196 14.5 12.7652 14.5 12.5V5.99999C14.5001 5.91765 14.4798 5.83657 14.441 5.76396C14.4021 5.69134 14.346 5.62944 14.2775 5.58374ZM2.5 12.5V6.97061L6.61875 9.90811C6.70355 9.96868 6.80516 10.0012 6.90938 10.0012H9.09062C9.19484 10.0012 9.29645 9.96868 9.38125 9.90811L13.5 6.97061V12.5H2.5Z" fill="url(#paint0_linear_178_8372)"/>
<path d="M14.2775 5.58374L8.2775 1.58374C8.19533 1.52892 8.09877 1.49966 8 1.49966C7.90123 1.49966 7.80467 1.52892 7.7225 1.58374L1.7225 5.58374C1.65401 5.62944 1.59786 5.69134 1.55904 5.76396C1.52023 5.83657 1.49995 5.91765 1.5 5.99999V12.5C1.5 12.7652 1.60536 13.0196 1.79289 13.2071C1.98043 13.3946 2.23478 13.5 2.5 13.5H13.5C13.7652 13.5 14.0196 13.3946 14.2071 13.2071C14.3946 13.0196 14.5 12.7652 14.5 12.5V5.99999C14.5001 5.91765 14.4798 5.83657 14.441 5.76396C14.4021 5.69134 14.346 5.62944 14.2775 5.58374ZM2.5 12.5V6.97061L6.61875 9.90811C6.70355 9.96868 6.80516 10.0012 6.90938 10.0012H9.09062C9.19484 10.0012 9.29645 9.96868 9.38125 9.90811L13.5 6.97061V12.5H2.5Z" fill="url(#paint1_radial_178_8372)" style="mix-blend-mode:overlay"/>
<defs>
<linearGradient id="paint0_linear_178_8372" x1="1.49282" y1="13.1266" x2="17.85" y2="11.3741" gradientUnits="userSpaceOnUse">
<stop stop-color="#7D4AE2"/>
<stop offset="0.804643" stop-color="#701D38"/>
</linearGradient>
<radialGradient id="paint1_radial_178_8372" cx="0" cy="0" r="1" gradientTransform="matrix(-2.46226 -15.0513 5.27632 -8.66253 7.99296 15.9741)" gradientUnits="userSpaceOnUse">
<stop stop-color="#F2D25E"/>
<stop offset="1" stop-color="#F2D25E" stop-opacity="0"/>
</radialGradient>
</defs>
</svg>
