<svg width="14" height="13" viewBox="0 0 14 13" fill="none" xmlns="http://www.w3.org/2000/svg">
<path d="M13.8054 0.13676C13.7279 0.0698653 13.6337 0.0253758 13.5328 0.00808478C13.4319 -0.00920628 13.3282 0.00135656 13.2329 0.0386353L0.566652 4.99551C0.387143 5.06531 0.235167 5.19154 0.133605 5.35519C0.0320429 5.51884 -0.0136084 5.71105 0.00352395 5.90289C0.0206563 6.09473 0.099645 6.27582 0.228598 6.41888C0.357551 6.56194 0.529489 6.65925 0.718527 6.69614L4.0004 7.34051V10.9999C3.99976 11.1992 4.05899 11.3941 4.17043 11.5594C4.28187 11.7247 4.44037 11.8526 4.6254 11.9268C4.81015 12.0022 5.01332 12.0203 5.20849 11.9787C5.40367 11.9372 5.58182 11.8378 5.71978 11.6936L7.30228 10.0524L9.8129 12.2499C9.99404 12.4106 10.2277 12.4995 10.4698 12.4999C10.5759 12.4998 10.6813 12.4831 10.7823 12.4505C10.9472 12.3982 11.0956 12.3035 11.2126 12.176C11.3296 12.0485 11.4112 11.8925 11.4492 11.7236L13.986 0.687385C14.0087 0.587854 14.0039 0.484023 13.9721 0.387023C13.9403 0.290023 13.8826 0.203511 13.8054 0.13676ZM10.471 11.4999L5.30353 6.96864L12.741 1.63801L10.471 11.4999Z" fill="url(#paint0_linear_178_8378)"/>
<path d="M13.8054 0.13676C13.7279 0.0698653 13.6337 0.0253758 13.5328 0.00808478C13.4319 -0.00920628 13.3282 0.00135656 13.2329 0.0386353L0.566652 4.99551C0.387143 5.06531 0.235167 5.19154 0.133605 5.35519C0.0320429 5.51884 -0.0136084 5.71105 0.00352395 5.90289C0.0206563 6.09473 0.099645 6.27582 0.228598 6.41888C0.357551 6.56194 0.529489 6.65925 0.718527 6.69614L4.0004 7.34051V10.9999C3.99976 11.1992 4.05899 11.3941 4.17043 11.5594C4.28187 11.7247 4.44037 11.8526 4.6254 11.9268C4.81015 12.0022 5.01332 12.0203 5.20849 11.9787C5.40367 11.9372 5.58182 11.8378 5.71978 11.6936L7.30228 10.0524L9.8129 12.2499C9.99404 12.4106 10.2277 12.4995 10.4698 12.4999C10.5759 12.4998 10.6813 12.4831 10.7823 12.4505C10.9472 12.3982 11.0956 12.3035 11.2126 12.176C11.3296 12.0485 11.4112 11.8925 11.4492 11.7236L13.986 0.687385C14.0087 0.587854 14.0039 0.484023 13.9721 0.387023C13.9403 0.290023 13.8826 0.203511 13.8054 0.13676ZM10.471 11.4999L5.30353 6.96864L12.741 1.63801L10.471 11.4999Z" fill="url(#paint1_radial_178_8378)" style="mix-blend-mode:overlay"/>
<defs>
<linearGradient id="paint0_linear_178_8378" x1="-0.00773359" y1="12.1109" x2="17.594" y2="10.1612" gradientUnits="userSpaceOnUse">
<stop stop-color="#7D4AE2"/>
<stop offset="0.804643" stop-color="#701D38"/>
</linearGradient>
<radialGradient id="paint1_radial_178_8378" cx="0" cy="0" r="1" gradientTransform="matrix(-2.65169 -15.6778 5.68223 -9.02314 6.99247 15.077)" gradientUnits="userSpaceOnUse">
<stop stop-color="#F2D25E"/>
<stop offset="1" stop-color="#F2D25E" stop-opacity="0"/>
</radialGradient>
</defs>
</svg>
