<svg width="17" height="17" viewBox="0 0 17 17" fill="none" xmlns="http://www.w3.org/2000/svg">
<g clip-path="url(#clip0_115_1405)">
<path d="M4.85956 0.0580133C3.97697 0.0996542 3.37425 0.240503 2.84736 0.447546C2.30204 0.660064 1.83984 0.945247 1.37997 1.40678C0.920095 1.86831 0.636904 2.33084 0.425879 2.87699C0.221656 3.40505 0.0832952 4.00826 0.0443088 4.89134C0.00532225 5.77443 -0.00330455 6.05828 0.00100885 8.31087C0.00532225 10.5635 0.0152763 10.8458 0.0580784 11.7307C0.100217 12.6132 0.240568 13.2157 0.447612 13.7428C0.660461 14.2881 0.945312 14.7501 1.40701 15.2102C1.86871 15.6702 2.33091 15.9527 2.87838 16.1641C3.40594 16.368 4.00932 16.507 4.89224 16.5457C5.77516 16.5843 6.05935 16.5933 8.31127 16.589C10.5632 16.5846 10.8467 16.5747 11.7315 16.5327C12.6162 16.4907 13.2156 16.3494 13.7428 16.1433C14.2881 15.93 14.7505 15.6456 15.2102 15.1838C15.6699 14.7219 15.953 14.2591 16.1638 13.7126C16.3682 13.185 16.5071 12.5816 16.5454 11.6994C16.584 10.814 16.5932 10.5313 16.5889 8.27902C16.5845 6.02676 16.5744 5.7444 16.5324 4.85982C16.4905 3.97524 16.35 3.37452 16.1431 2.84712C15.9299 2.30181 15.6454 1.84011 15.1838 1.37974C14.7223 0.919366 14.2591 0.636507 13.7128 0.426145C13.1849 0.221922 12.5819 0.0827324 11.6989 0.0445754C10.816 0.00641835 10.5318 -0.00336975 8.27909 0.000943649C6.02633 0.00525705 5.7443 0.0148793 4.85956 0.0580133ZM4.95644 15.0534C4.14768 15.0182 3.70854 14.8838 3.41589 14.7714C3.02835 14.622 2.75229 14.4415 2.46064 14.1527C2.16899 13.8639 1.98982 13.5868 1.83852 13.2001C1.72488 12.9075 1.58801 12.4688 1.55018 11.6601C1.50904 10.7859 1.50041 10.5235 1.4956 8.30888C1.49079 6.09429 1.49925 5.83216 1.53757 4.9577C1.57208 4.14961 1.70729 3.70997 1.8196 3.41749C1.96891 3.02945 2.14875 2.75389 2.43825 2.4624C2.72774 2.17092 3.00396 1.99141 3.39101 1.84011C3.68333 1.72597 4.12196 1.59027 4.9304 1.55178C5.80519 1.5103 6.06731 1.50201 8.28158 1.4972C10.4958 1.49238 10.7586 1.50068 11.6337 1.53917C12.4418 1.57434 12.8816 1.70822 13.1738 1.8212C13.5615 1.97051 13.8374 2.14985 14.1289 2.43984C14.4204 2.72983 14.6 3.00506 14.7513 3.39294C14.8656 3.68442 15.0014 4.1229 15.0395 4.93182C15.0812 5.80661 15.0906 6.0689 15.0946 8.283C15.0986 10.4971 15.0908 10.7601 15.0525 11.6342C15.0171 12.4429 14.8831 12.8822 14.7704 13.1752C14.6211 13.5626 14.4411 13.8388 14.1514 14.1301C13.8618 14.4215 13.5859 14.601 13.1987 14.7523C12.9067 14.8662 12.4676 15.0023 11.6598 15.0408C10.785 15.0819 10.5229 15.0905 8.30779 15.0954C6.09269 15.1002 5.8314 15.0912 4.95661 15.0534M11.7187 3.8616C11.719 4.05849 11.7777 4.25085 11.8874 4.41437C11.9971 4.57789 12.1527 4.70521 12.3348 4.78024C12.5168 4.85526 12.717 4.87462 12.91 4.83587C13.1031 4.79711 13.2803 4.70198 13.4192 4.5625C13.5582 4.42303 13.6527 4.24548 13.6907 4.0523C13.7288 3.85913 13.7087 3.65901 13.633 3.47726C13.5573 3.2955 13.4294 3.14028 13.2655 3.03122C13.1016 2.92215 12.909 2.86415 12.7121 2.86454C12.4482 2.86507 12.1952 2.9704 12.0089 3.15738C11.8227 3.34435 11.7183 3.59766 11.7187 3.8616ZM4.03586 8.30324C4.04051 10.6557 5.95101 12.5584 8.30298 12.5539C10.6549 12.5495 12.559 10.6391 12.5545 8.28665C12.55 5.93419 10.639 4.03099 8.28672 4.03563C5.93442 4.04028 4.03138 5.95111 4.03586 8.30324ZM5.52996 8.30026C5.52888 7.75338 5.68999 7.21847 5.99291 6.76316C6.29584 6.30785 6.72698 5.95259 7.23181 5.74231C7.73665 5.53203 8.2925 5.47617 8.82907 5.5818C9.36565 5.68743 9.85886 5.9498 10.2463 6.33573C10.6338 6.72166 10.8981 7.21383 11.0059 7.74998C11.1136 8.28614 11.06 8.84221 10.8517 9.34787C10.6434 9.85353 10.2899 10.2861 9.83574 10.5908C9.38163 10.8955 8.84736 11.0588 8.30049 11.0598C7.93736 11.0606 7.57765 10.9898 7.24188 10.8515C6.90611 10.7133 6.60087 10.5102 6.3436 10.2539C6.08632 9.99768 5.88205 9.69325 5.74244 9.35803C5.60283 9.02282 5.53063 8.66338 5.52996 8.30026Z" fill="white"/>
</g>
<defs>
<clipPath id="clip0_115_1405">
<rect width="16.59" height="16.59" fill="white"/>
</clipPath>
</defs>
</svg>
