<svg width="139" height="118" viewBox="0 0 139 118" fill="none" xmlns="http://www.w3.org/2000/svg">
<path d="M75 60.5634H110.328C109.724 85.9493 102.421 88.8309 93.2496 89.6534L89.7126 90.0857V118L93.7895 117.785C105.766 117.12 119.008 114.991 127.842 104.239C135.586 94.8126 139 79.4128 139 55.7727V0H75V60.5634Z" fill="white" fill-opacity="0.1"/>
<path d="M0 60.5634H35.328C34.724 85.9493 27.4214 88.8309 18.2496 89.6534L14.7126 90.0857V118L18.7895 117.785C30.7663 117.12 44.0077 114.991 52.8419 104.239C60.5859 94.8126 64 79.4128 64 55.7727V0H0V60.5634Z" fill="white" fill-opacity="0.1"/>
</svg>
