<svg width="40" height="40" viewBox="0 0 40 40" fill="none" xmlns="http://www.w3.org/2000/svg">
<path fill-rule="evenodd" clip-rule="evenodd" d="M34.2064 17.7356C35.3273 25.7114 29.7703 33.0857 21.7946 34.2066C19.4844 34.5313 17.2247 34.2957 15.1528 33.6034C14.6022 33.4194 14.002 33.4168 13.4676 33.6434L10.3738 34.9554C9.03071 35.5249 7.57458 34.4276 7.75184 32.9796L8.16018 29.644C8.23072 29.0678 8.06276 28.4916 7.73413 28.013C6.49754 26.2122 5.64823 24.105 5.32355 21.7948C4.20263 13.8191 9.75958 6.44473 17.7354 5.32381C25.7111 4.20289 33.0854 9.75984 34.2064 17.7356ZM25.5415 18.9534C25.3701 17.7338 23.9161 17.0995 21.008 15.8307C18.0602 14.5447 16.5863 13.9016 15.6606 14.656C14.7349 15.4103 14.9675 17.0649 15.4325 20.3741C15.8976 23.6833 16.1302 25.3379 17.2279 25.8079C18.3256 26.2778 19.5652 25.2534 22.0443 23.2047C24.4901 21.1835 25.7129 20.1729 25.5415 18.9534Z" fill="url(#paint0_linear_115_106)"/>
<path fill-rule="evenodd" clip-rule="evenodd" d="M34.2064 17.7356C35.3273 25.7114 29.7703 33.0857 21.7946 34.2066C19.4844 34.5313 17.2247 34.2957 15.1528 33.6034C14.6022 33.4194 14.002 33.4168 13.4676 33.6434L10.3738 34.9554C9.03071 35.5249 7.57458 34.4276 7.75184 32.9796L8.16018 29.644C8.23072 29.0678 8.06276 28.4916 7.73413 28.013C6.49754 26.2122 5.64823 24.105 5.32355 21.7948C4.20263 13.8191 9.75958 6.44473 17.7354 5.32381C25.7111 4.20289 33.0854 9.75984 34.2064 17.7356ZM25.5415 18.9534C25.3701 17.7338 23.9161 17.0995 21.008 15.8307C18.0602 14.5447 16.5863 13.9016 15.6606 14.656C14.7349 15.4103 14.9675 17.0649 15.4325 20.3741C15.8976 23.6833 16.1302 25.3379 17.2279 25.8079C18.3256 26.2778 19.5652 25.2534 22.0443 23.2047C24.4901 21.1835 25.7129 20.1729 25.5415 18.9534Z" fill="url(#paint1_radial_115_106)" style="mix-blend-mode:overlay"/>
<defs>
<linearGradient id="paint0_linear_115_106" x1="7.21089" y1="35.3397" x2="43.1076" y2="26.6234" gradientUnits="userSpaceOnUse">
<stop stop-color="#7D4AE2"/>
<stop offset="0.804643" stop-color="#701D38"/>
</linearGradient>
<radialGradient id="paint1_radial_115_106" cx="0" cy="0" r="1" gradientTransform="matrix(-10.5618 -35.4571 8.79252 -22.4968 22.6158 40.1636)" gradientUnits="userSpaceOnUse">
<stop stop-color="#F2D25E"/>
<stop offset="1" stop-color="#F2D25E" stop-opacity="0"/>
</radialGradient>
</defs>
</svg>
