<svg width="122" height="25" viewBox="0 0 122 25" fill="none" xmlns="http://www.w3.org/2000/svg">
<path d="M11.457 4.48444C11.6924 3.95641 11.8101 3.69239 11.974 3.61108C12.1163 3.54045 12.2835 3.54045 12.4258 3.61108C12.5897 3.69239 12.7074 3.95641 12.9428 4.48444L14.8175 8.69032C14.8872 8.84642 14.9219 8.92447 14.9758 8.98424C15.0234 9.03713 15.0817 9.07943 15.1466 9.10838C15.2201 9.14112 15.3051 9.15009 15.4751 9.16802L20.0545 9.65135C20.6294 9.71203 20.9168 9.74237 21.0448 9.8731C21.1559 9.98665 21.2076 10.1457 21.1844 10.3029C21.1578 10.4838 20.943 10.6773 20.5136 11.0644L17.0928 14.1471C16.9659 14.2615 16.9024 14.3187 16.8622 14.3884C16.8267 14.4501 16.8044 14.5185 16.797 14.5892C16.7885 14.6693 16.8062 14.7528 16.8417 14.9201L17.7972 19.4246C17.9171 19.9902 17.9771 20.2729 17.8923 20.435C17.8186 20.5759 17.6834 20.6741 17.5267 20.7006C17.3464 20.7311 17.096 20.5868 16.5952 20.2979L12.6063 17.9972C12.4582 17.9118 12.3842 17.8692 12.3055 17.8524C12.2359 17.8377 12.1639 17.8377 12.0943 17.8524C12.0156 17.8692 11.9416 17.9118 11.7935 17.9972L7.80468 20.2979C7.30389 20.5868 7.05349 20.7311 6.87313 20.7006C6.71645 20.6741 6.58119 20.5759 6.50754 20.435C6.42276 20.2729 6.48274 19.9902 6.60269 19.4246L7.55812 14.9201C7.59358 14.7528 7.61131 14.6693 7.60289 14.5892C7.59544 14.5185 7.5732 14.4501 7.53762 14.3884C7.49741 14.3187 7.43393 14.2615 7.30698 14.1471L3.88628 11.0644C3.45683 10.6773 3.2421 10.4838 3.2154 10.3029C3.19222 10.1457 3.24388 9.98665 3.35504 9.8731C3.48302 9.74237 3.77048 9.71203 4.34541 9.65135L8.92477 9.16802C9.09474 9.15009 9.17971 9.14112 9.25319 9.10838C9.31821 9.07943 9.37642 9.03713 9.42407 8.98424C9.4779 8.92447 9.51269 8.84642 9.58228 8.69032L11.457 4.48444Z" fill="#FFBF35"/>
<path d="M35.8574 4.48444C36.0928 3.95641 36.2105 3.69239 36.3744 3.61108C36.5167 3.54045 36.6839 3.54045 36.8262 3.61108C36.9901 3.69239 37.1078 3.95641 37.3432 4.48444L39.2179 8.69032C39.2876 8.84642 39.3223 8.92447 39.3762 8.98424C39.4238 9.03713 39.482 9.07943 39.547 9.10838C39.6205 9.14112 39.7055 9.15009 39.8755 9.16802L44.4549 9.65135C45.0298 9.71203 45.3172 9.74237 45.4452 9.8731C45.5563 9.98665 45.608 10.1457 45.5848 10.3029C45.5582 10.4838 45.3434 10.6773 44.914 11.0644L41.4932 14.1471C41.3663 14.2615 41.3028 14.3187 41.2626 14.3884C41.227 14.4501 41.2048 14.5185 41.1974 14.5892C41.1889 14.6693 41.2066 14.7528 41.2421 14.9201L42.1976 19.4246C42.3175 19.9902 42.3775 20.2729 42.2927 20.435C42.219 20.5759 42.0838 20.6741 41.9271 20.7006C41.7468 20.7311 41.4964 20.5868 40.9956 20.2979L37.0067 17.9972C36.8586 17.9118 36.7846 17.8692 36.7059 17.8524C36.6363 17.8377 36.5643 17.8377 36.4947 17.8524C36.416 17.8692 36.342 17.9118 36.1939 17.9972L32.2051 20.2979C31.7043 20.5868 31.4539 20.7311 31.2735 20.7006C31.1168 20.6741 30.9816 20.5759 30.9079 20.435C30.8232 20.2729 30.8831 19.9902 31.0031 19.4246L31.9585 14.9201C31.994 14.7528 32.0117 14.6693 32.0033 14.5892C31.9958 14.5185 31.9736 14.4501 31.938 14.3884C31.8978 14.3187 31.8343 14.2615 31.7074 14.1471L28.2867 11.0644C27.8572 10.6773 27.6425 10.4838 27.6158 10.3029C27.5926 10.1457 27.6443 9.98665 27.7554 9.8731C27.8834 9.74237 28.1709 9.71203 28.7458 9.65135L33.3252 9.16802C33.4951 9.15009 33.5801 9.14112 33.6536 9.10838C33.7186 9.07943 33.7768 9.03713 33.8245 8.98424C33.8783 8.92447 33.9131 8.84642 33.9827 8.69032L35.8574 4.48444Z" fill="#FFBF35"/>
<path d="M60.2568 4.48444C60.4922 3.95641 60.6099 3.69239 60.7738 3.61108C60.9161 3.54045 61.0833 3.54045 61.2256 3.61108C61.3895 3.69239 61.5072 3.95641 61.7426 4.48444L63.6173 8.69032C63.687 8.84642 63.7217 8.92447 63.7756 8.98424C63.8232 9.03713 63.8815 9.07943 63.9464 9.10838C64.0199 9.14112 64.1049 9.15009 64.2749 9.16802L68.8543 9.65135C69.4292 9.71203 69.7166 9.74237 69.8446 9.8731C69.9557 9.98665 70.0074 10.1457 69.9842 10.3029C69.9576 10.4838 69.7428 10.6773 69.3134 11.0644L65.8926 14.1471C65.7657 14.2615 65.7022 14.3187 65.662 14.3884C65.6265 14.4501 65.6042 14.5185 65.5968 14.5892C65.5883 14.6693 65.606 14.7528 65.6415 14.9201L66.597 19.4246C66.7169 19.9902 66.7769 20.2729 66.6921 20.435C66.6184 20.5759 66.4832 20.6741 66.3265 20.7006C66.1462 20.7311 65.8958 20.5868 65.395 20.2979L61.4061 17.9972C61.2581 17.9118 61.184 17.8692 61.1053 17.8524C61.0357 17.8377 60.9637 17.8377 60.8941 17.8524C60.8154 17.8692 60.7414 17.9118 60.5934 17.9972L56.6045 20.2979C56.1037 20.5868 55.8533 20.7311 55.6729 20.7006C55.5163 20.6741 55.381 20.5759 55.3073 20.435C55.2226 20.2729 55.2825 19.9902 55.4025 19.4246L56.3579 14.9201C56.3934 14.7528 56.4111 14.6693 56.4027 14.5892C56.3952 14.5185 56.373 14.4501 56.3374 14.3884C56.2972 14.3187 56.2337 14.2615 56.1068 14.1471L52.6861 11.0644C52.2566 10.6773 52.0419 10.4838 52.0152 10.3029C51.992 10.1457 52.0437 9.98665 52.1548 9.8731C52.2828 9.74237 52.5703 9.71203 53.1452 9.65135L57.7246 9.16802C57.8945 9.15009 57.9795 9.14112 58.053 9.10838C58.118 9.07943 58.1762 9.03713 58.2239 8.98424C58.2777 8.92447 58.3125 8.84642 58.3821 8.69032L60.2568 4.48444Z" fill="#FFBF35"/>
<path d="M84.6572 4.48444C84.8926 3.95641 85.0103 3.69239 85.1742 3.61108C85.3165 3.54045 85.4837 3.54045 85.626 3.61108C85.7899 3.69239 85.9076 3.95641 86.143 4.48444L88.0177 8.69032C88.0874 8.84642 88.1221 8.92447 88.176 8.98424C88.2236 9.03713 88.2818 9.07943 88.3468 9.10838C88.4203 9.14112 88.5053 9.15009 88.6753 9.16802L93.2547 9.65135C93.8296 9.71203 94.117 9.74237 94.245 9.8731C94.3561 9.98665 94.4078 10.1457 94.3846 10.3029C94.358 10.4838 94.1432 10.6773 93.7138 11.0644L90.293 14.1471C90.1661 14.2615 90.1026 14.3187 90.0624 14.3884C90.0269 14.4501 90.0046 14.5185 89.9972 14.5892C89.9887 14.6693 90.0064 14.7528 90.0419 14.9201L90.9974 19.4246C91.1173 19.9902 91.1773 20.2729 91.0925 20.435C91.0188 20.5759 90.8836 20.6741 90.7269 20.7006C90.5466 20.7311 90.2962 20.5868 89.7954 20.2979L85.8065 17.9972C85.6584 17.9118 85.5844 17.8692 85.5057 17.8524C85.4361 17.8377 85.3641 17.8377 85.2945 17.8524C85.2158 17.8692 85.1418 17.9118 84.9937 17.9972L81.0049 20.2979C80.5041 20.5868 80.2537 20.7311 80.0733 20.7006C79.9166 20.6741 79.7814 20.5759 79.7077 20.435C79.623 20.2729 79.6829 19.9902 79.8029 19.4246L80.7583 14.9201C80.7938 14.7528 80.8115 14.6693 80.8031 14.5892C80.7956 14.5185 80.7734 14.4501 80.7378 14.3884C80.6976 14.3187 80.6341 14.2615 80.5072 14.1471L77.0865 11.0644C76.657 10.6773 76.4423 10.4838 76.4156 10.3029C76.3924 10.1457 76.4441 9.98665 76.5552 9.8731C76.6832 9.74237 76.9707 9.71203 77.5456 9.65135L82.125 9.16802C82.2949 9.15009 82.3799 9.14112 82.4534 9.10838C82.5184 9.07943 82.5766 9.03713 82.6243 8.98424C82.6781 8.92447 82.7129 8.84642 82.7825 8.69032L84.6572 4.48444Z" fill="#FFBF35"/>
<path d="M109.057 4.48444C109.292 3.95641 109.41 3.69239 109.574 3.61108C109.716 3.54045 109.883 3.54045 110.025 3.61108C110.189 3.69239 110.307 3.95641 110.542 4.48444L112.417 8.69032C112.487 8.84642 112.522 8.92447 112.575 8.98424C112.623 9.03713 112.681 9.07943 112.746 9.10838C112.82 9.14112 112.905 9.15009 113.075 9.16802L117.654 9.65135C118.229 9.71203 118.516 9.74237 118.644 9.8731C118.756 9.98665 118.807 10.1457 118.784 10.3029C118.757 10.4838 118.543 10.6773 118.113 11.0644L114.692 14.1471C114.566 14.2615 114.502 14.3187 114.462 14.3884C114.426 14.4501 114.404 14.5185 114.397 14.5892C114.388 14.6693 114.406 14.7528 114.441 14.9201L115.397 19.4246C115.517 19.9902 115.577 20.2729 115.492 20.435C115.418 20.5759 115.283 20.6741 115.126 20.7006C114.946 20.7311 114.696 20.5868 114.195 20.2979L110.206 17.9972C110.058 17.9118 109.984 17.8692 109.905 17.8524C109.836 17.8377 109.764 17.8377 109.694 17.8524C109.615 17.8692 109.541 17.9118 109.393 17.9972L105.404 20.2979C104.903 20.5868 104.653 20.7311 104.473 20.7006C104.316 20.6741 104.181 20.5759 104.107 20.435C104.022 20.2729 104.082 19.9902 104.202 19.4246L105.158 14.9201C105.193 14.7528 105.211 14.6693 105.202 14.5892C105.195 14.5185 105.173 14.4501 105.137 14.3884C105.097 14.3187 105.034 14.2615 104.907 14.1471L101.486 11.0644C101.056 10.6773 100.842 10.4838 100.815 10.3029C100.792 10.1457 100.843 9.98665 100.955 9.8731C101.083 9.74237 101.37 9.71203 101.945 9.65135L106.524 9.16802C106.694 9.15009 106.779 9.14112 106.853 9.10838C106.918 9.07943 106.976 9.03713 107.024 8.98424C107.078 8.92447 107.112 8.84642 107.182 8.69032L109.057 4.48444Z" fill="#FFBF35"/>
</svg>
