<svg width="31" height="35" viewBox="0 0 31 35" fill="none" xmlns="http://www.w3.org/2000/svg">
<path d="M30.2229 8.07447C28.9189 6.03229 26.115 5.184 22.3368 5.67098C22.2033 5.68653 22.0619 5.71025 21.9284 5.7258C21.8735 5.60037 21.8186 5.47454 21.7557 5.3491C20.1298 1.90072 17.9069 0 15.4877 0C13.0685 0 10.8378 1.9008 9.21973 5.3491C9.16474 5.47454 9.10191 5.60037 9.04693 5.7258C8.90554 5.70256 8.77202 5.68653 8.63857 5.6709C4.85276 5.17606 2.05646 6.03237 0.75245 8.07455C-0.551248 10.1167 -0.150823 13.0149 1.87565 16.2353C2.14841 16.6689 2.43934 17.0909 2.74766 17.5C2.43348 17.924 2.14294 18.3404 1.87573 18.7643C-0.150823 21.9847 -0.551248 24.8909 0.75245 26.9255C1.81281 28.5905 3.87094 29.4625 6.64336 29.4625C7.30785 29.4589 7.97156 29.4143 8.63056 29.3287C8.76408 29.3131 8.90547 29.2894 9.03899 29.2738C9.09421 29.3996 9.14911 29.5251 9.21203 29.6509C10.8379 33.0989 13.0608 35 15.4797 35C17.8989 35 20.1298 33.0989 21.7476 29.6509C21.8026 29.5251 21.8655 29.3996 21.9204 29.2739C22.0618 29.2974 22.1954 29.3132 22.3291 29.3287C22.9877 29.4179 23.6515 29.4626 24.3161 29.4625C27.0887 29.4625 29.1466 28.5905 30.207 26.9255C31.5109 24.8833 31.1103 21.9847 29.084 18.7643C28.8112 18.3309 28.5203 17.9091 28.212 17.5C28.5262 17.0756 28.8168 16.6596 29.084 16.2353C31.1339 13.0073 31.5346 10.1086 30.2229 8.07447ZM10.6416 6.01674C11.9688 3.1891 13.7361 1.57091 15.4877 1.57091C17.2392 1.57091 19.0066 3.1891 20.3339 6.01674C20.3348 6.02265 20.3376 6.02812 20.3418 6.03237C18.6735 6.43366 17.0459 6.98838 15.4797 7.68944C13.915 6.98486 12.2871 6.43002 10.6178 6.03237C10.6335 6.03237 10.6335 6.02436 10.6415 6.01666L10.6416 6.01674ZM22.5648 17.5C22.5651 18.7567 22.497 20.0128 22.3604 21.2622C21.3814 22.0522 20.3587 22.7864 19.2971 23.4614C18.072 24.2482 16.7968 24.9541 15.4797 25.5745C14.1651 24.9492 12.8903 24.2435 11.6626 23.4614C10.6022 22.7846 9.57963 22.0504 8.5993 21.2622C8.32685 18.7614 8.32685 16.2383 8.5993 13.7375C10.7164 12.0362 13.0257 10.589 15.4798 9.42545C16.7945 10.0505 18.0694 10.7561 19.2972 11.5382C20.3575 12.215 21.3801 12.9492 22.3605 13.7374C22.497 14.987 22.5652 16.243 22.5648 17.5H22.5648ZM24.0648 15.2142C24.834 15.9306 25.558 16.694 26.2327 17.5C25.558 18.3058 24.8339 19.0691 24.0648 19.7854C24.112 19.0316 24.1357 18.2698 24.1357 17.5C24.1357 16.7302 24.1121 15.9684 24.0648 15.2142ZM22.0383 23.4931C21.7903 24.8531 21.4304 26.1902 20.9622 27.4909C19.7423 27.2154 18.5451 26.8478 17.3808 26.3913C18.3259 25.8944 19.2508 25.3599 20.1532 24.7891C20.7975 24.3727 21.4258 23.9407 22.0383 23.4931ZM13.5946 26.3913C12.4324 26.8537 11.2346 27.2214 10.0131 27.4909C9.54496 26.1902 9.18507 24.8531 8.93712 23.4931C9.54192 23.9407 10.1703 24.3727 10.8222 24.7811C11.7412 25.3702 12.668 25.9043 13.5946 26.3913ZM6.91049 19.7854C6.14146 19.069 5.41743 18.3057 4.74256 17.5C5.41735 16.6941 6.14138 15.9307 6.91049 15.2142C6.86328 15.9684 6.83964 16.7302 6.83964 17.5C6.83964 18.2698 6.86321 19.0316 6.91049 19.7854ZM8.93712 11.5069C9.18502 10.1469 9.54494 8.80977 10.0132 7.5091C11.2332 7.78429 12.4304 8.1519 13.5946 8.60874C12.6495 9.10561 11.7246 9.64009 10.8222 10.2109C10.1816 10.6247 9.55293 11.0569 8.93712 11.5069ZM20.1456 10.2109C19.2343 9.62983 18.3074 9.08771 17.3727 8.60874C18.5351 8.14626 19.7329 7.77851 20.9546 7.5091C21.4225 8.80986 21.7825 10.147 22.0306 11.5069C21.4258 11.0592 20.7975 10.6272 20.1456 10.2109ZM3.2033 15.3949C1.5379 12.7556 1.12955 10.3916 2.07209 8.91491C2.82621 7.73672 4.46003 7.10035 6.667 7.10035C7.2579 7.10286 7.84824 7.14245 8.43427 7.21817H8.4499C7.81453 9.06566 7.37239 10.974 7.13057 12.9127C5.92018 13.9226 4.79326 15.0285 3.76082 16.2196C3.56445 15.9527 3.37602 15.6778 3.2033 15.3949ZM8.42657 27.7738C7.84051 27.8499 7.25027 27.8892 6.6593 27.8916C4.45202 27.8916 2.81827 27.2633 2.06439 26.0771C1.12185 24.6004 1.53028 22.2364 3.19529 19.5971C3.36809 19.3222 3.55676 19.0393 3.75312 18.7643C4.7853 19.9557 5.91212 21.0616 7.12256 22.0713C7.36456 24.0099 7.8068 25.9183 8.4422 27.7658C8.4422 27.7738 8.43427 27.7738 8.42657 27.7738ZM20.3339 28.9833C19.0066 31.8109 17.2393 33.4291 15.4877 33.4291C13.736 33.4291 11.9688 31.8109 10.6415 28.9833C10.6406 28.9773 10.6378 28.9718 10.6335 28.9676C12.3019 28.5663 13.9296 28.0115 15.4957 27.3102C17.0603 28.015 18.6882 28.57 20.3575 28.9676C20.3418 28.9676 20.3418 28.9753 20.3339 28.9833ZM27.7721 19.6051C29.4375 22.244 29.8458 24.6084 28.9033 26.0851C27.9607 27.5614 25.6437 28.1822 22.5488 27.7738H22.5331C23.1686 25.9263 23.6108 24.018 23.8527 22.0793C25.0632 21.0695 26.19 19.9636 27.2223 18.7724C27.411 19.0473 27.5994 19.3222 27.7722 19.6051H27.7721ZM23.8448 12.9207C23.6031 10.982 23.1609 9.07365 22.5255 7.22618H22.5412C25.6357 6.82544 27.9528 7.43825 28.8954 8.91491C29.8379 10.3916 29.4295 12.7556 27.7644 15.3949C27.5917 15.6698 27.403 15.9527 27.2066 16.2276C26.1792 15.0345 25.0547 13.9284 23.8448 12.9207Z" fill="white"/>
<path d="M15.4874 14.3892C13.7696 14.3892 12.377 15.7818 12.377 17.4996C12.377 19.2176 13.7696 20.6099 15.4874 20.6099C17.2054 20.6099 18.598 19.2176 18.598 17.4997C18.5967 15.7822 17.2047 14.3905 15.4874 14.3892ZM15.4874 19.039C14.6373 19.039 13.9479 18.3499 13.9479 17.4997C13.9479 16.6495 14.6373 15.9601 15.4874 15.9601C16.3376 15.9601 17.0271 16.6495 17.0271 17.4997C17.0255 18.3493 16.3371 19.0378 15.4874 19.039Z" fill="white"/>
</svg>
