<svg width="31" height="35" viewBox="0 0 31 35" fill="none" xmlns="http://www.w3.org/2000/svg">
<g clip-path="url(#clip0_96_8536)">
<path d="M21.0125 4.16074C21.0125 4.16074 20.6187 4.27319 19.9718 4.46998C19.8592 4.10451 19.6905 3.68283 19.4655 3.23303C18.7341 1.82741 17.6371 1.06837 16.3433 1.06837C16.2589 1.06837 16.1745 1.06837 16.062 1.09648C16.0339 1.04026 15.9776 1.01214 15.9495 0.95592C15.3869 0.337446 14.6556 0.0563212 13.7836 0.0844337C12.096 0.140659 10.4083 1.34949 9.05815 3.51415C8.1018 5.03222 7.37047 6.94387 7.17358 8.43383C5.23276 9.02419 3.88262 9.44588 3.85449 9.47399C2.87002 9.78323 2.84189 9.81134 2.72938 10.7391C2.56061 11.4419 0.000976562 31.2611 0.000976562 31.2611L21.2656 34.9439V4.10451C21.1531 4.13263 21.0687 4.13263 21.0125 4.16074ZM16.0901 5.67881C14.965 6.01616 13.7274 6.40973 12.5179 6.7752C12.8554 5.45391 13.5305 4.13263 14.3181 3.26114C14.6275 2.9519 15.0494 2.58644 15.5276 2.36154C16.0057 3.37359 16.1182 4.7511 16.0901 5.67881ZM13.8118 1.20893C14.2055 1.20893 14.5431 1.29327 14.8244 1.46194C14.3743 1.68684 13.9243 2.05231 13.5023 2.47399C12.4335 3.6266 11.6178 5.4258 11.2802 7.14066C10.2676 7.44989 9.25504 7.75913 8.32682 8.04026C8.91751 5.36957 11.1959 1.29327 13.8118 1.20893ZM10.5208 16.6708C10.6333 18.47 15.3869 18.8635 15.6682 23.1085C15.8651 26.4539 13.8961 28.731 11.0552 28.8997C7.62363 29.1246 5.73906 27.1005 5.73906 27.1005L6.47038 24.0081C6.47038 24.0081 8.35495 25.4419 9.87385 25.3294C10.8583 25.2732 11.224 24.4579 11.1959 23.8957C11.0552 21.5342 7.17358 21.6748 6.92043 17.7953C6.69541 14.5623 8.83312 11.2732 13.5586 10.964C15.3869 10.8515 16.3151 11.3013 16.3151 11.3013L15.2463 15.3495C15.2463 15.3495 14.0368 14.7872 12.6023 14.8997C10.5208 15.0403 10.4927 16.3615 10.5208 16.6708ZM17.2152 5.34146C17.2152 4.49809 17.1027 3.28925 16.7089 2.2772C18.0028 2.53022 18.6216 3.96395 18.9029 4.83544C18.3966 4.976 17.834 5.14467 17.2152 5.34146Z" fill="white"/>
<path d="M21.9688 34.8315L30.8009 32.6387C30.8009 32.6387 27.0036 6.97202 26.9755 6.80334C26.9474 6.63467 26.8067 6.52222 26.6661 6.52222C26.5255 6.52222 24.0502 6.46599 24.0502 6.46599C24.0502 6.46599 22.5313 5.00414 21.9688 4.44189V34.8315Z" fill="white"/>
</g>
<defs>
<clipPath id="clip0_96_8536">
<rect width="30.8" height="35" fill="white"/>
</clipPath>
</defs>
</svg>
