<svg width="20" height="17" viewBox="0 0 20 17" fill="none" xmlns="http://www.w3.org/2000/svg">
<path d="M17.794 0.143119C17.794 0.143119 19.5933 -0.55854 19.4428 1.14536C19.3932 1.84701 18.9435 4.30305 18.5934 6.95916L17.3939 14.8279C17.3939 14.8279 17.2938 15.9807 16.3939 16.1812C15.4945 16.3813 14.1449 15.4796 13.8948 15.279C13.6948 15.1285 10.1462 12.873 8.89661 11.7707C8.54648 11.4697 8.14632 10.8685 8.94663 10.1669L14.1949 5.15477C14.7947 4.55268 15.3945 3.14937 12.8954 4.85373L5.89731 9.61482C5.89731 9.61482 5.09747 10.1164 3.59828 9.6653L0.348881 8.6626C0.348881 8.6626 -0.850654 7.91092 1.19875 7.15924C6.19743 4.80371 12.3456 2.39815 17.7935 0.142655" fill="white"/>
</svg>
