<svg width="33" height="32" viewBox="0 0 33 32" fill="none" xmlns="http://www.w3.org/2000/svg">
<path d="M16.1199 0.911932L10.3752 1.92488C4.959 2.8799 2.25092 3.3574 0.865015 5.33668C-0.520887 7.31595 -0.0433787 10.024 0.911638 15.4402L1.16487 16.8764C1.30456 17.6686 1.43063 18.3836 1.55409 19.029L16.7707 16.3459C16.7475 15.3441 16.9017 14.2684 17.5968 13.2758C18.3279 12.2316 19.3501 11.7184 20.347 11.401C21.2522 11.1129 22.3921 10.912 23.6353 10.693L23.8924 10.6476C25.1356 10.4283 26.2754 10.2272 27.2246 10.1883C28.0142 10.156 28.8557 10.2239 29.6702 10.5741L29.6352 10.3755C28.6802 4.95929 28.2027 2.25121 26.2234 0.86531C24.2441 -0.520592 21.536 -0.0430839 16.1199 0.911932Z" fill="url(#paint0_linear_728_15)"/>
<path d="M16.1199 0.911932L10.3752 1.92488C4.959 2.8799 2.25092 3.3574 0.865015 5.33668C-0.520887 7.31595 -0.0433787 10.024 0.911638 15.4402L1.16487 16.8764C1.30456 17.6686 1.43063 18.3836 1.55409 19.029L16.7707 16.3459C16.7475 15.3441 16.9017 14.2684 17.5968 13.2758C18.3279 12.2316 19.3501 11.7184 20.347 11.401C21.2522 11.1129 22.3921 10.912 23.6353 10.693L23.8924 10.6476C25.1356 10.4283 26.2754 10.2272 27.2246 10.1883C28.0142 10.156 28.8557 10.2239 29.6702 10.5741L29.6352 10.3755C28.6802 4.95929 28.2027 2.25121 26.2234 0.86531C24.2441 -0.520592 21.536 -0.0430839 16.1199 0.911932Z" fill="url(#paint1_radial_728_15)" style="mix-blend-mode:overlay"/>
<path d="M3.72372 24.009C5.20818 25.0484 7.23924 24.6903 11.3014 23.974L15.9689 23.151L16.9819 28.8957L12.3143 29.7187C11.7194 29.8236 11.3222 30.3909 11.4271 30.9858C11.532 31.5807 12.0993 31.9779 12.6942 31.873L20.6657 30.4674L20.6229 30.4378C19.5787 29.7066 19.0654 28.6844 18.7481 27.6875C18.46 26.7823 18.2591 25.6424 18.0401 24.3992L17.235 19.8336C17.1086 19.117 16.9882 18.4348 16.9015 17.8037L1.85305 20.4571C2.27296 22.2458 2.76193 23.3355 3.72372 24.009Z" fill="url(#paint2_linear_728_15)"/>
<path d="M3.72372 24.009C5.20818 25.0484 7.23924 24.6903 11.3014 23.974L15.9689 23.151L16.9819 28.8957L12.3143 29.7187C11.7194 29.8236 11.3222 30.3909 11.4271 30.9858C11.532 31.5807 12.0993 31.9779 12.6942 31.873L20.6657 30.4674L20.6229 30.4378C19.5787 29.7066 19.0654 28.6844 18.7481 27.6875C18.46 26.7823 18.2591 25.6424 18.0401 24.3992L17.235 19.8336C17.1086 19.117 16.9882 18.4348 16.9015 17.8037L1.85305 20.4571C2.27296 22.2458 2.76193 23.3355 3.72372 24.009Z" fill="url(#paint3_radial_728_15)" style="mix-blend-mode:overlay"/>
<path fill-rule="evenodd" clip-rule="evenodd" d="M30.9014 17.5564L31.6611 21.8649C32.1386 24.573 32.3774 25.927 31.6844 26.9166C30.9915 27.9063 29.6374 28.145 26.9293 28.6225C24.2212 29.1001 22.8672 29.3388 21.8776 28.6459C20.8879 27.9529 20.6492 26.5989 20.1717 23.8908L19.412 19.5822C18.9345 16.8742 18.6957 15.5201 19.3886 14.5305C20.0816 13.5408 21.4356 13.3021 24.1437 12.8246C26.8518 12.3471 28.2058 12.1083 29.1955 12.8013C30.1851 13.4942 30.4239 14.8483 30.9014 17.5564ZM23.9095 26.1934C23.8046 25.5985 24.2019 25.0312 24.7967 24.9263L27.6691 24.4198C28.264 24.3149 28.8313 24.7121 28.9362 25.307C29.0411 25.9019 28.6438 26.4692 28.049 26.5741L25.1766 27.0806C24.5817 27.1855 24.0144 26.7882 23.9095 26.1934Z" fill="url(#paint4_linear_728_15)"/>
<path fill-rule="evenodd" clip-rule="evenodd" d="M30.9014 17.5564L31.6611 21.8649C32.1386 24.573 32.3774 25.927 31.6844 26.9166C30.9915 27.9063 29.6374 28.145 26.9293 28.6225C24.2212 29.1001 22.8672 29.3388 21.8776 28.6459C20.8879 27.9529 20.6492 26.5989 20.1717 23.8908L19.412 19.5822C18.9345 16.8742 18.6957 15.5201 19.3886 14.5305C20.0816 13.5408 21.4356 13.3021 24.1437 12.8246C26.8518 12.3471 28.2058 12.1083 29.1955 12.8013C30.1851 13.4942 30.4239 14.8483 30.9014 17.5564ZM23.9095 26.1934C23.8046 25.5985 24.2019 25.0312 24.7967 24.9263L27.6691 24.4198C28.264 24.3149 28.8313 24.7121 28.9362 25.307C29.0411 25.9019 28.6438 26.4692 28.049 26.5741L25.1766 27.0806C24.5817 27.1855 24.0144 26.7882 23.9095 26.1934Z" fill="url(#paint5_radial_728_15)" style="mix-blend-mode:overlay"/>
<defs>
<linearGradient id="paint0_linear_728_15" x1="3.89969" y1="32.4791" x2="39.5024" y2="22.598" gradientUnits="userSpaceOnUse">
<stop stop-color="#7D4AE2"/>
<stop offset="0.804643" stop-color="#701D38"/>
</linearGradient>
<radialGradient id="paint1_radial_728_15" cx="0" cy="0" r="1" gradientTransform="matrix(-11.9516 -35.9675 7.91064 -23.3083 19.4936 36.9328)" gradientUnits="userSpaceOnUse">
<stop stop-color="#F2D25E"/>
<stop offset="1" stop-color="#F2D25E" stop-opacity="0"/>
</radialGradient>
<linearGradient id="paint2_linear_728_15" x1="3.89969" y1="32.4791" x2="39.5024" y2="22.598" gradientUnits="userSpaceOnUse">
<stop stop-color="#7D4AE2"/>
<stop offset="0.804643" stop-color="#701D38"/>
</linearGradient>
<radialGradient id="paint3_radial_728_15" cx="0" cy="0" r="1" gradientTransform="matrix(-11.9516 -35.9675 7.91064 -23.3083 19.4936 36.9328)" gradientUnits="userSpaceOnUse">
<stop stop-color="#F2D25E"/>
<stop offset="1" stop-color="#F2D25E" stop-opacity="0"/>
</radialGradient>
<linearGradient id="paint4_linear_728_15" x1="3.89969" y1="32.4791" x2="39.5024" y2="22.598" gradientUnits="userSpaceOnUse">
<stop stop-color="#7D4AE2"/>
<stop offset="0.804643" stop-color="#701D38"/>
</linearGradient>
<radialGradient id="paint5_radial_728_15" cx="0" cy="0" r="1" gradientTransform="matrix(-11.9516 -35.9675 7.91064 -23.3083 19.4936 36.9328)" gradientUnits="userSpaceOnUse">
<stop stop-color="#F2D25E"/>
<stop offset="1" stop-color="#F2D25E" stop-opacity="0"/>
</radialGradient>
</defs>
</svg>
