<svg width="35" height="35" viewBox="0 0 35 35" fill="none" xmlns="http://www.w3.org/2000/svg">
<g clip-path="url(#clip0_96_8524)">
<mask id="mask0_96_8524" style="mask-type:luminance" maskUnits="userSpaceOnUse" x="0" y="0" width="35" height="35">
<path d="M0 0H35V35H0V0Z" fill="white"/>
</mask>
<g mask="url(#mask0_96_8524)">
<path d="M27.9387 11.9233C28.8598 13.604 29.384 15.5327 29.384 17.5844C29.384 21.9379 27.0247 25.7387 23.5165 27.7841L27.1206 17.3633C27.7938 15.6798 28.018 14.3337 28.018 13.1368C28.018 12.7023 27.9894 12.2991 27.9387 11.9233ZM19.2101 12.0518C19.9205 12.0144 20.5606 11.9397 20.5606 11.9397C21.1965 11.8644 21.1215 10.93 20.4854 10.9672C20.4854 10.9672 18.574 11.1172 17.3401 11.1172C16.1807 11.1172 14.2323 10.9672 14.2323 10.9672C13.5959 10.93 13.5213 11.902 14.1575 11.9397C14.1575 11.9397 14.7594 12.0144 15.3952 12.0518L17.2336 17.0891L14.6508 24.834L10.3538 12.0518C11.0648 12.0144 11.7043 11.9397 11.7043 11.9397C12.3397 11.8644 12.2647 10.93 11.6288 10.9672C11.6288 10.9672 9.71787 11.1172 8.48385 11.1172C8.26246 11.1172 8.00148 11.1118 7.7244 11.1029C9.8344 7.89954 13.4611 5.78413 17.5838 5.78413C20.6558 5.78413 23.453 6.95871 25.5523 8.88232C25.5015 8.87926 25.4519 8.87288 25.3995 8.87288C24.2404 8.87288 23.4179 9.8826 23.4179 10.9672C23.4179 11.9397 23.979 12.7625 24.577 13.7348C25.0258 14.5208 25.55 15.5304 25.55 16.9893C25.55 17.9991 25.1615 19.1712 24.652 20.804L23.4747 24.7366L19.2101 12.0518ZM17.5838 29.3857C16.4255 29.3857 15.3076 29.2158 14.2501 28.9048L17.7911 18.6166L21.418 28.554C21.4419 28.6123 21.4712 28.6661 21.5025 28.7166C20.2759 29.1484 18.958 29.3857 17.5838 29.3857ZM5.78357 17.5844C5.78357 15.8736 6.15051 14.2495 6.80537 12.782L12.4344 28.2045C8.4976 26.292 5.78357 22.2552 5.78357 17.5844ZM17.5838 4.45982C10.3468 4.45982 4.45898 10.3475 4.45898 17.5844C4.45898 24.8216 10.3468 30.71 17.5838 30.71C24.8208 30.71 30.7088 24.8216 30.7088 17.5844C30.7088 10.3475 24.8208 4.45982 17.5838 4.45982Z" fill="white"/>
</g>
</g>
<defs>
<clipPath id="clip0_96_8524">
<rect width="35" height="35" fill="white"/>
</clipPath>
</defs>
</svg>
